<svg width="320" height="96" viewBox="0 0 320 96" fill="none" xmlns="http://www.w3.org/2000/svg">
<g id="dana-sandy">
<rect id="Rectangle 2" width="320" height="96" rx="5" fill="#151414"/>
<g id="DANA SANDY">
<path d="M23.1151 59.6355V9.38345H25.6722V59.6355H23.1151ZM28.2293 59.6355V9.38345H33.3436V59.6355H28.2293ZM41.0149 59.6355V9.38345H43.572V59.6355H41.0149ZM30.9569 67.0455H35.5597C37.2076 67.0455 38.4862 67.2727 39.3954 67.7269C40.3614 68.1812 41.1854 68.8626 41.8673 69.7711C43.1742 71.4745 43.8277 73.8878 43.8277 77.0108C43.7141 80.2473 42.9754 82.689 41.6116 84.3356C40.2478 86.0391 38.1168 86.8624 35.2188 86.8056H30.9569V67.0455ZM35.0483 85.1022C39.4238 85.1022 41.6116 82.4618 41.6116 77.1811C41.6116 74.5124 41.1286 72.4682 40.1625 71.0487C39.1397 69.6291 37.5486 68.9193 35.3893 68.9193H33.0879V85.1022H35.0483Z" fill="#F5F5F5"/>
<path d="M51.25 59.6355V9.38345H53.8071V59.6355H51.25ZM56.3642 59.6355V9.38345H58.9213V59.6355H56.3642ZM66.5927 59.6355V9.38345H71.7069V59.6355H66.5927ZM68.4679 81.0139H62.0751L60.1147 86.8056H57.8985L65.1436 66.7048H65.3993L72.7297 86.8056H70.4283L68.4679 81.0139ZM67.8712 79.3104L65.3141 71.8152L62.6718 79.3104H67.8712Z" fill="#F5F5F5"/>
<path d="M79.3849 59.6355V9.38345H81.942V59.6355H79.3849ZM84.4991 59.6355V9.38345H92.1704V59.6355H84.4991ZM99.8418 59.6355V9.38345H104.956V59.6355H99.8418ZM87.1414 67.0455H89.2724L97.5404 81.6953V67.0455H100.012V67.3011C99.8418 67.4146 99.7565 67.5566 99.7565 67.7269C99.6997 67.8405 99.6713 68.096 99.6713 68.4935V86.8056H97.9665L89.1871 71.3042V86.8056H87.1414V67.0455Z" fill="#F5F5F5"/>
<path d="M107.52 59.6355V9.38345H110.077V59.6355H107.52ZM112.634 59.6355V9.38345H115.191V59.6355H112.634ZM122.862 59.6355V9.38345H127.977V59.6355H122.862ZM124.738 81.0139H118.345L116.384 86.8056H114.168L121.413 66.7048H121.669L128.999 86.8056H126.698L124.738 81.0139ZM124.141 79.3104L121.584 71.8152L118.942 79.3104H124.141Z" fill="#F5F5F5"/>
<path d="M135.655 59.6355V9.38345H140.769V59.6355H135.655ZM143.326 59.6355V9.38345H148.44V59.6355H143.326ZM153.554 59.6355V9.38345H158.669V59.6355H153.554Z" fill="#F5F5F5"/>
<path d="M163.79 59.6355V9.38345H168.904V59.6355H163.79ZM171.461 59.6355V9.38345H179.132V59.6355H171.461ZM181.689 59.6355V9.38345H184.246V59.6355H181.689ZM177.768 87.1463C175.211 87.1463 173.137 86.2946 171.546 84.5912L172.739 82.6322L172.825 82.3767L173.08 82.4618C173.08 82.5186 173.109 82.6322 173.166 82.8025C173.166 82.9161 173.222 83.058 173.336 83.2284C173.393 83.342 173.507 83.4555 173.677 83.5691C174.87 84.5912 176.348 85.1022 178.109 85.1022C179.246 85.1022 180.212 84.7899 181.007 84.1653C181.803 83.4839 182.201 82.689 182.201 81.7804C182.201 81.1558 182.059 80.6164 181.775 80.1622C181.547 79.7647 181.121 79.3672 180.496 78.9697C179.871 78.5723 178.905 78.0896 177.598 77.5218C175.666 76.7836 174.274 75.9319 173.421 74.9666C172.626 74.0013 172.228 72.9225 172.228 71.73C172.228 70.2537 172.768 69.0613 173.847 68.1528C174.927 67.2443 176.376 66.79 178.195 66.79C179.274 66.79 180.297 67.0171 181.263 67.4714C182.172 67.9257 182.996 68.5219 183.735 69.26L182.286 71.219L182.115 71.0487C182.115 70.9919 182.087 70.9067 182.03 70.7931C182.03 70.6228 181.973 70.4808 181.86 70.3673C181.803 70.1969 181.689 70.055 181.519 69.9414C181.064 69.4872 180.524 69.1465 179.899 68.9193C179.331 68.749 178.649 68.6638 177.854 68.6638C176.831 68.6638 176.035 68.9477 175.467 69.5155C174.842 70.0834 174.529 70.7648 174.529 71.5597C174.529 72.1843 174.643 72.7237 174.87 73.178C175.154 73.6322 175.637 74.0581 176.319 74.4556C177.001 74.9098 178.024 75.3925 179.388 75.9035C181.263 76.6985 182.57 77.4934 183.309 78.2884C183.991 79.1401 184.332 80.1906 184.332 81.4398C184.332 82.405 184.104 83.3136 183.65 84.1653C183.138 85.017 182.4 85.7268 181.434 86.2946C180.411 86.8624 179.189 87.1463 177.768 87.1463Z" fill="#F5F5F5"/>
<path d="M191.924 59.6355V9.38345H194.481V59.6355H191.924ZM197.039 59.6355V9.38345H199.596V59.6355H197.039ZM207.267 59.6355V9.38345H212.381V59.6355H207.267ZM209.142 81.0139H202.749L200.789 86.8056H198.573L205.818 66.7048H206.074L213.404 86.8056H211.103L209.142 81.0139ZM208.546 79.3104L205.988 71.8152L203.346 79.3104H208.546Z" fill="#F5F5F5"/>
<path d="M220.059 59.6355V9.38345H222.616V59.6355H220.059ZM225.173 59.6355V9.38345H232.845V59.6355H225.173ZM240.516 59.6355V9.38345H245.63V59.6355H240.516ZM227.816 67.0455H229.947L238.215 81.6953V67.0455H240.687V67.3011C240.516 67.4146 240.431 67.5566 240.431 67.7269C240.374 67.8405 240.346 68.096 240.346 68.4935V86.8056H238.641L229.862 71.3042V86.8056H227.816V67.0455Z" fill="#F5F5F5"/>
<path d="M248.194 59.6355V9.38345H250.751V59.6355H248.194ZM253.308 59.6355V9.38345H258.423V59.6355H253.308ZM266.094 59.6355V9.38345H268.651V59.6355H266.094ZM256.036 67.0455H260.639C262.287 67.0455 263.565 67.2727 264.474 67.7269C265.44 68.1812 266.264 68.8626 266.946 69.7711C268.253 71.4745 268.907 73.8878 268.907 77.0108C268.793 80.2473 268.054 82.689 266.691 84.3356C265.327 86.0391 263.196 86.8624 260.298 86.8056H256.036V67.0455ZM260.127 85.1022C264.503 85.1022 266.691 82.4618 266.691 77.1811C266.691 74.5124 266.208 72.4682 265.242 71.0487C264.219 69.6291 262.628 68.9193 260.468 68.9193H258.167V85.1022H260.127Z" fill="#F5F5F5"/>
<path d="M276.329 59.6355V9.38345H284V59.6355H276.329ZM286.557 59.6355V9.38345H291.672V59.6355H286.557ZM294.229 59.6355V9.38345H296.786V59.6355H294.229ZM289.456 79.0549L283.318 67.0455H285.876L290.734 76.6701L295.081 67.0455H297.468L291.842 79.0549V86.8056H289.456V79.0549Z" fill="#F5F5F5"/>
</g>
</g>
</svg>
