<svg width="753" height="200" viewBox="0 0 753 200" fill="none" xmlns="http://www.w3.org/2000/svg">
<rect width="753" height="200" rx="5" fill="#151414"/>
<path d="M54.3928 124.241V19.5489H60.41V124.241H54.3928ZM66.4272 124.241V19.5489H78.4616V124.241H66.4272ZM96.5132 124.241V19.5489H102.53V124.241H96.5132ZM72.8455 139.678H83.6765C87.5542 139.678 90.5628 140.151 92.7023 141.098C94.9754 142.044 96.9143 143.464 98.5189 145.356C101.594 148.905 103.132 153.933 103.132 160.439C102.865 167.182 101.126 172.269 97.9172 175.699C94.708 179.248 89.6937 180.963 82.8742 180.845H72.8455V139.678ZM82.473 177.296C92.7691 177.296 97.9172 171.796 97.9172 160.794C97.9172 155.234 96.7806 150.975 94.5074 148.018C92.1006 145.061 88.3565 143.582 83.2753 143.582H77.8598V177.296H82.473Z" fill="#F5F5F5"/>
<path d="M120.598 124.241V19.5489H126.615V124.241H120.598ZM132.632 124.241V19.5489H138.649V124.241H132.632ZM156.701 124.241V19.5489H168.735V124.241H156.701ZM161.113 168.779H146.07L141.457 180.845H136.242L153.291 138.968H153.893L171.142 180.845H165.727L161.113 168.779ZM159.709 165.23L153.692 149.615L147.474 165.23H159.709Z" fill="#F5F5F5"/>
<path d="M186.803 124.241V19.5489H192.82V124.241H186.803ZM198.837 124.241V19.5489H216.889V124.241H198.837ZM234.94 124.241V19.5489H246.975V124.241H234.94ZM205.055 139.678H210.069L229.525 170.199V139.678H235.341V140.211C234.94 140.447 234.74 140.743 234.74 141.098C234.606 141.334 234.539 141.867 234.539 142.695V180.845H230.528L209.868 148.55V180.845H205.055V139.678Z" fill="#F5F5F5"/>
<path d="M253.007 124.241V19.5489H259.025V124.241H253.007ZM265.042 124.241V19.5489H271.059V124.241H265.042ZM289.111 124.241V19.5489H301.145V124.241H289.111ZM293.523 168.779H278.48L273.867 180.845H268.652L285.701 138.968H286.303L303.552 180.845H298.136L293.523 168.779ZM292.119 165.23L286.102 149.615L279.884 165.23H292.119Z" fill="#F5F5F5"/>
<path d="M319.212 124.241V19.5489H331.247V124.241H319.212ZM337.264 124.241V19.5489H349.298V124.241H337.264ZM361.333 124.241V19.5489H373.367V124.241H361.333Z" fill="#F5F5F5"/>
<path d="M385.417 124.241V19.5489H397.452V124.241H385.417ZM403.469 124.241V19.5489H421.52V124.241H403.469ZM427.538 124.241V19.5489H433.555V124.241H427.538ZM418.311 181.555C412.294 181.555 407.413 179.78 403.669 176.232L406.477 172.15L406.678 171.618L407.28 171.796C407.28 171.914 407.347 172.15 407.48 172.505C407.48 172.742 407.614 173.038 407.881 173.393C408.015 173.629 408.283 173.866 408.684 174.102C411.492 176.232 414.968 177.296 419.113 177.296C421.788 177.296 424.061 176.646 425.933 175.344C427.805 173.925 428.741 172.269 428.741 170.376C428.741 169.075 428.407 167.951 427.738 167.005C427.203 166.176 426.2 165.348 424.73 164.52C423.259 163.692 420.985 162.687 417.91 161.504C413.364 159.966 410.088 158.192 408.082 156.18C406.21 154.169 405.274 151.922 405.274 149.438C405.274 146.362 406.544 143.878 409.085 141.985C411.625 140.092 415.035 139.146 419.314 139.146C421.855 139.146 424.262 139.619 426.535 140.565C428.674 141.512 430.613 142.754 432.351 144.292L428.942 148.373L428.54 148.018C428.54 147.9 428.474 147.722 428.34 147.486C428.34 147.131 428.206 146.835 427.939 146.599C427.805 146.244 427.538 145.948 427.136 145.711C426.067 144.765 424.796 144.055 423.326 143.582C421.988 143.227 420.384 143.05 418.512 143.05C416.105 143.05 414.233 143.641 412.896 144.824C411.425 146.007 410.689 147.427 410.689 149.083C410.689 150.384 410.957 151.508 411.492 152.454C412.16 153.401 413.297 154.288 414.901 155.116C416.506 156.062 418.913 157.068 422.122 158.132C426.535 159.788 429.61 161.445 431.348 163.101C432.953 164.875 433.755 167.064 433.755 169.666C433.755 171.677 433.22 173.57 432.151 175.344C430.947 177.119 429.209 178.598 426.936 179.78C424.529 180.963 421.654 181.555 418.311 181.555Z" fill="#F5F5F5"/>
<path d="M451.622 124.241V19.5489H457.639V124.241H451.622ZM463.656 124.241V19.5489H469.674V124.241H463.656ZM487.725 124.241V19.5489H499.76V124.241H487.725ZM492.138 168.779H477.095L472.482 180.845H467.267L484.315 138.968H484.917L502.167 180.845H496.751L492.138 168.779ZM490.734 165.23L484.717 149.615L478.499 165.23H490.734Z" fill="#F5F5F5"/>
<path d="M517.827 124.241V19.5489H523.844V124.241H517.827ZM529.861 124.241V19.5489H547.913V124.241H529.861ZM565.965 124.241V19.5489H577.999V124.241H565.965ZM536.079 139.678H541.093L560.549 170.199V139.678H566.366V140.211C565.965 140.447 565.764 140.743 565.764 141.098C565.63 141.334 565.563 141.867 565.563 142.695V180.845H561.552L540.893 148.55V180.845H536.079V139.678Z" fill="#F5F5F5"/>
<path d="M584.032 124.241V19.5489H590.049V124.241H584.032ZM596.066 124.241V19.5489H608.101V124.241H596.066ZM626.152 124.241V19.5489H632.169V124.241H626.152ZM602.485 139.678H613.316C617.193 139.678 620.202 140.151 622.341 141.098C624.614 142.044 626.553 143.464 628.158 145.356C631.233 148.905 632.771 153.933 632.771 160.439C632.504 167.182 630.765 172.269 627.556 175.699C624.347 179.248 619.333 180.963 612.513 180.845H602.485V139.678ZM612.112 177.296C622.408 177.296 627.556 171.796 627.556 160.794C627.556 155.234 626.42 150.975 624.146 148.018C621.74 145.061 617.996 143.582 612.914 143.582H607.499V177.296H612.112Z" fill="#F5F5F5"/>
<path d="M650.237 124.241V19.5489H668.288V124.241H650.237ZM674.305 124.241V19.5489H686.34V124.241H674.305ZM692.357 124.241V19.5489H698.374V124.241H692.357ZM681.125 164.698L666.684 139.678H672.701L684.134 159.729L694.363 139.678H699.979L686.741 164.698V180.845H681.125V164.698Z" fill="#F5F5F5"/>
</svg>
