<svg width="120" height="120" viewBox="0 0 120 120" fill="none" xmlns="http://www.w3.org/2000/svg">
<circle cx="60" cy="60" r="60" fill="url(#paint0_linear_20_20)"/>
<path d="M23.3766 25.9024C23.3766 25.2325 23.6427 24.5901 24.1164 24.1164C24.5901 23.6427 25.2325 23.3766 25.9024 23.3766V25.9024H23.3766Z" fill="white"/>
<path d="M25.9024 23.3766H28.4281V25.9024H25.9024V23.3766Z" fill="white"/>
<path d="M28.4281 23.3766H30.9539V25.9024H28.4281V23.3766Z" fill="white"/>
<path d="M30.9539 23.3766H33.4796V25.9024H30.9539V23.3766Z" fill="white"/>
<path d="M33.4796 23.3766H36.0054V25.9024H33.4796V23.3766Z" fill="white"/>
<path d="M36.0054 23.3766H38.5311V25.9024H36.0054V23.3766Z" fill="white"/>
<path d="M38.5311 23.3766C39.201 23.3766 39.8434 23.6427 40.3171 24.1164C40.7908 24.5901 41.0569 25.2325 41.0569 25.9024H38.5311V23.3766Z" fill="white"/>
<path d="M47.3712 23.3766C47.7062 23.3766 48.0274 23.5097 48.2642 23.7465C48.5011 23.9833 48.6341 24.3046 48.6341 24.6395C48.6341 24.9744 48.5011 25.2957 48.2642 25.5325C48.0274 25.7693 47.7062 25.9024 47.3712 25.9024C47.0363 25.9024 46.7151 25.7693 46.4783 25.5325C46.2414 25.2957 46.1084 24.9744 46.1084 24.6395C46.1084 24.3046 46.2414 23.9833 46.4783 23.7465C46.7151 23.5097 47.0363 23.3766 47.3712 23.3766Z" fill="white"/>
<path d="M53.6856 25.9024C53.6856 25.2325 53.9517 24.5901 54.4254 24.1164C54.8991 23.6427 55.5415 23.3766 56.2114 23.3766V25.9024H53.6856Z" fill="white"/>
<path d="M56.2114 23.3766H58.7371V25.9024H56.2114V23.3766Z" fill="white"/>
<path d="M60 23.3766C60.3349 23.3766 60.6561 23.5097 60.893 23.7465C61.1298 23.9833 61.2629 24.3046 61.2629 24.6395C61.2629 24.9744 61.1298 25.2957 60.893 25.5325C60.6561 25.7693 60.3349 25.9024 60 25.9024H58.7371V23.3766H60Z" fill="white"/>
<path d="M71.3659 25.9024C71.3659 25.2325 71.632 24.5901 72.1056 24.1164C72.5793 23.6427 73.2217 23.3766 73.8916 23.3766V25.9024H71.3659Z" fill="white"/>
<path d="M75.1545 23.3766C75.4894 23.3766 75.8106 23.5097 76.0475 23.7465C76.2843 23.9833 76.4174 24.3046 76.4174 24.6395C76.4174 24.9744 76.2843 25.2957 76.0475 25.5325C75.8106 25.7693 75.4894 25.9024 75.1545 25.9024H73.8916V23.3766H75.1545Z" fill="white"/>
<path d="M78.9431 25.9024C78.9431 25.2325 79.2092 24.5901 79.6829 24.1164C80.1566 23.6427 80.799 23.3766 81.4689 23.3766V25.9024H78.9431Z" fill="white"/>
<path d="M81.4689 23.3766H83.9946V25.9024H81.4689V23.3766Z" fill="white"/>
<path d="M83.9946 23.3766H86.5204V25.9024H83.9946V23.3766Z" fill="white"/>
<path d="M86.5204 23.3766H89.0461V25.9024H86.5204V23.3766Z" fill="white"/>
<path d="M89.0461 23.3766H91.5719V25.9024H89.0461V23.3766Z" fill="white"/>
<path d="M91.5719 23.3766H94.0976V25.9024H91.5719V23.3766Z" fill="white"/>
<path d="M94.0976 23.3766C94.7675 23.3766 95.4099 23.6427 95.8836 24.1164C96.3573 24.5901 96.6234 25.2325 96.6234 25.9024H94.0976V23.3766Z" fill="white"/>
<path d="M23.3766 25.9024H25.9024V28.4281H23.3766V25.9024Z" fill="white"/>
<path d="M38.5311 25.9024H41.0569V28.4281H38.5311V25.9024Z" fill="white"/>
<path d="M53.6856 25.9024H56.2114V28.4281H53.6856V25.9024Z" fill="white"/>
<path d="M61.2629 28.4281C61.2629 27.7583 61.529 27.1158 62.0026 26.6422C62.4763 26.1685 63.1187 25.9024 63.7886 25.9024V28.4281H61.2629Z" fill="white"/>
<path d="M63.7886 25.9024H66.3144V28.4281H63.7886V25.9024Z" fill="white"/>
<path d="M67.5772 25.9024C67.9122 25.9024 68.2334 26.0354 68.4702 26.2723C68.7071 26.5091 68.8401 26.8303 68.8401 27.1652C68.8401 27.5002 68.7071 27.8214 68.4702 28.0582C68.2334 28.2951 67.9122 28.4281 67.5772 28.4281H66.3144V25.9024H67.5772Z" fill="white"/>
<path d="M71.3659 25.9024H73.8916V28.4281H71.3659V25.9024Z" fill="white"/>
<path d="M78.9431 25.9024H81.4689V28.4281H78.9431V25.9024Z" fill="white"/>
<path d="M94.0976 25.9024H96.6234V28.4281H94.0976V25.9024Z" fill="white"/>
<path d="M23.3766 28.4281H25.9024V30.9539H23.3766V28.4281Z" fill="white"/>
<path d="M28.4281 30.9539C28.4281 30.284 28.6942 29.6416 29.1679 29.1679C29.6416 28.6942 30.284 28.4281 30.9539 28.4281V30.9539H28.4281Z" fill="white"/>
<path d="M30.9539 28.4281H33.4796V30.9539H30.9539V28.4281Z" fill="white"/>
<path d="M33.4796 28.4281C34.1495 28.4281 34.7919 28.6942 35.2656 29.1679C35.7393 29.6416 36.0054 30.284 36.0054 30.9539H33.4796V28.4281Z" fill="white"/>
<path d="M38.5311 28.4281H41.0569V30.9539H38.5311V28.4281Z" fill="white"/>
<path d="M43.5826 29.691C43.5826 29.3561 43.7157 29.0348 43.9525 28.798C44.1893 28.5612 44.5106 28.4281 44.8455 28.4281C45.1804 28.4281 45.5016 28.5612 45.7385 28.798C45.9753 29.0348 46.1084 29.3561 46.1084 29.691V30.9539H43.5826V29.691Z" fill="white"/>
<path d="M53.6856 29.691C53.6856 30.0259 53.8187 30.3472 54.0555 30.584C54.2923 30.8208 54.6136 30.9539 54.9485 30.9539C55.2834 30.9539 55.6046 30.8208 55.8415 30.584C56.0783 30.3472 56.2114 30.0259 56.2114 29.691V28.4281H53.6856V29.691Z" fill="white"/>
<path d="M58.7371 30.9539C58.7371 30.284 59.0032 29.6416 59.4769 29.1679C59.9506 28.6942 60.593 28.4281 61.2629 28.4281V30.9539H58.7371Z" fill="white"/>
<path d="M61.2629 28.4281H63.7886V30.9539H61.2629V28.4281Z" fill="white"/>
<path d="M63.7886 30.9539C64.4585 30.9539 65.1009 30.6878 65.5746 30.2141C66.0483 29.7404 66.3144 29.098 66.3144 28.4281H63.7886V30.9539Z" fill="white"/>
<path d="M70.103 28.4281C69.7681 28.4281 69.4468 28.5612 69.21 28.798C68.9732 29.0348 68.8401 29.3561 68.8401 29.691C68.8401 30.0259 68.9732 30.3472 69.21 30.584C69.4468 30.8208 69.7681 30.9539 70.103 30.9539H71.3659V28.4281H70.103Z" fill="white"/>
<path d="M71.3659 30.9539C72.0357 30.9539 72.6782 30.6878 73.1518 30.2141C73.6255 29.7404 73.8916 29.098 73.8916 28.4281H71.3659V30.9539Z" fill="white"/>
<path d="M78.9431 28.4281H81.4689V30.9539H78.9431V28.4281Z" fill="white"/>
<path d="M83.9946 30.9539C83.9946 30.284 84.2607 29.6416 84.7344 29.1679C85.2081 28.6942 85.8505 28.4281 86.5204 28.4281V30.9539H83.9946Z" fill="white"/>
<path d="M86.5204 28.4281H89.0461V30.9539H86.5204V28.4281Z" fill="white"/>
<path d="M89.0461 28.4281C89.716 28.4281 90.3584 28.6942 90.8321 29.1679C91.3058 29.6416 91.5719 30.284 91.5719 30.9539H89.0461V28.4281Z" fill="white"/>
<path d="M94.0976 28.4281H96.6234V30.9539H94.0976V28.4281Z" fill="white"/>
<path d="M23.3766 30.9539H25.9024V33.4796H23.3766V30.9539Z" fill="white"/>
<path d="M28.4281 30.9539H30.9539V33.4796H28.4281V30.9539Z" fill="white"/>
<path d="M30.9539 30.9539H33.4796V33.4796H30.9539V30.9539Z" fill="white"/>
<path d="M33.4796 30.9539H36.0054V33.4796H33.4796V30.9539Z" fill="white"/>
<path d="M38.5311 30.9539H41.0569V33.4796H38.5311V30.9539Z" fill="white"/>
<path d="M43.5826 30.9539C43.5826 31.6237 43.8487 32.2662 44.3224 32.7398C44.7961 33.2135 45.4385 33.4796 46.1084 33.4796V30.9539H43.5826Z" fill="white"/>
<path d="M46.1084 30.9539H48.6341V33.4796H46.1084V30.9539Z" fill="white"/>
<path d="M48.6341 30.9539H51.1599V33.4796H48.6341V30.9539Z" fill="white"/>
<path d="M51.1599 30.9539C51.8297 30.9539 52.4722 31.22 52.9458 31.6936C53.4195 32.1673 53.6856 32.8098 53.6856 33.4796H51.1599V30.9539Z" fill="white"/>
<path d="M58.7371 32.2168C58.7371 32.5517 58.8702 32.8729 59.107 33.1097C59.3438 33.3466 59.6651 33.4796 60 33.4796C60.3349 33.4796 60.6561 33.3466 60.893 33.1097C61.1298 32.8729 61.2629 32.5517 61.2629 32.2168V30.9539H58.7371V32.2168Z" fill="white"/>
<path d="M67.5772 30.9539C67.9122 30.9539 68.2334 31.0869 68.4702 31.3238C68.7071 31.5606 68.8401 31.8818 68.8401 32.2168C68.8401 32.5517 68.7071 32.8729 68.4702 33.1097C68.2334 33.3466 67.9122 33.4796 67.5772 33.4796C67.2423 33.4796 66.9211 33.3466 66.6843 33.1097C66.4474 32.8729 66.3144 32.5517 66.3144 32.2168C66.3144 31.8818 66.4474 31.5606 66.6843 31.3238C66.9211 31.0869 67.2423 30.9539 67.5772 30.9539Z" fill="white"/>
<path d="M75.1545 30.9539C75.4894 30.9539 75.8106 31.0869 76.0475 31.3238C76.2843 31.5606 76.4174 31.8818 76.4174 32.2168C76.4174 32.5517 76.2843 32.8729 76.0475 33.1097C75.8106 33.3466 75.4894 33.4796 75.1545 33.4796C74.8196 33.4796 74.4983 33.3466 74.2615 33.1097C74.0247 32.8729 73.8916 32.5517 73.8916 32.2168C73.8916 31.8818 74.0247 31.5606 74.2615 31.3238C74.4983 31.0869 74.8196 30.9539 75.1545 30.9539Z" fill="white"/>
<path d="M78.9431 30.9539H81.4689V33.4796H78.9431V30.9539Z" fill="white"/>
<path d="M83.9946 30.9539H86.5204V33.4796H83.9946V30.9539Z" fill="white"/>
<path d="M86.5204 30.9539H89.0461V33.4796H86.5204V30.9539Z" fill="white"/>
<path d="M89.0461 30.9539H91.5719V33.4796H89.0461V30.9539Z" fill="white"/>
<path d="M94.0976 30.9539H96.6234V33.4796H94.0976V30.9539Z" fill="white"/>
<path d="M23.3766 33.4796H25.9024V36.0054H23.3766V33.4796Z" fill="white"/>
<path d="M28.4281 33.4796C28.4281 34.1495 28.6942 34.7919 29.1679 35.2656C29.6416 35.7393 30.284 36.0054 30.9539 36.0054V33.4796H28.4281Z" fill="white"/>
<path d="M30.9539 33.4796H33.4796V36.0054H30.9539V33.4796Z" fill="white"/>
<path d="M33.4796 36.0054C34.1495 36.0054 34.7919 35.7393 35.2656 35.2656C35.7393 34.7919 36.0054 34.1495 36.0054 33.4796H33.4796V36.0054Z" fill="white"/>
<path d="M38.5311 33.4796H41.0569V36.0054H38.5311V33.4796Z" fill="white"/>
<path d="M48.6341 33.4796C48.6341 34.1495 48.9002 34.7919 49.3739 35.2656C49.8476 35.7393 50.49 36.0054 51.1599 36.0054V33.4796H48.6341Z" fill="white"/>
<path d="M51.1599 33.4796H53.6856V36.0054H51.1599V33.4796Z" fill="white"/>
<path d="M54.9485 33.4796C55.2834 33.4796 55.6046 33.6127 55.8415 33.8495C56.0783 34.0863 56.2114 34.4076 56.2114 34.7425C56.2114 35.0774 56.0783 35.3987 55.8415 35.6355C55.6046 35.8723 55.2834 36.0054 54.9485 36.0054H53.6856V33.4796H54.9485Z" fill="white"/>
<path d="M70.103 33.4796C69.7681 33.4796 69.4468 33.6127 69.21 33.8495C68.9732 34.0863 68.8401 34.4076 68.8401 34.7425C68.8401 35.0774 68.9732 35.3987 69.21 35.6355C69.4468 35.8723 69.7681 36.0054 70.103 36.0054H71.3659V33.4796H70.103Z" fill="white"/>
<path d="M72.6287 33.4796C72.9637 33.4796 73.2849 33.6127 73.5217 33.8495C73.7586 34.0863 73.8916 34.4076 73.8916 34.7425C73.8916 35.0774 73.7586 35.3987 73.5217 35.6355C73.2849 35.8723 72.9637 36.0054 72.6287 36.0054H71.3659V33.4796H72.6287Z" fill="white"/>
<path d="M78.9431 33.4796H81.4689V36.0054H78.9431V33.4796Z" fill="white"/>
<path d="M83.9946 33.4796C83.9946 34.1495 84.2607 34.7919 84.7344 35.2656C85.2081 35.7393 85.8505 36.0054 86.5204 36.0054V33.4796H83.9946Z" fill="white"/>
<path d="M86.5204 33.4796H89.0461V36.0054H86.5204V33.4796Z" fill="white"/>
<path d="M89.0461 36.0054C89.716 36.0054 90.3584 35.7393 90.8321 35.2656C91.3058 34.7919 91.5719 34.1495 91.5719 33.4796H89.0461V36.0054Z" fill="white"/>
<path d="M94.0976 33.4796H96.6234V36.0054H94.0976V33.4796Z" fill="white"/>
<path d="M23.3766 36.0054H25.9024V38.5311H23.3766V36.0054Z" fill="white"/>
<path d="M38.5311 36.0054H41.0569V38.5311H38.5311V36.0054Z" fill="white"/>
<path d="M47.3712 36.0054C47.7062 36.0054 48.0274 36.1384 48.2642 36.3753C48.5011 36.6121 48.6341 36.9333 48.6341 37.2682C48.6341 37.6032 48.5011 37.9244 48.2642 38.1612C48.0274 38.3981 47.7062 38.5311 47.3712 38.5311C47.0363 38.5311 46.7151 38.3981 46.4783 38.1612C46.2414 37.9244 46.1084 37.6032 46.1084 37.2682C46.1084 36.9333 46.2414 36.6121 46.4783 36.3753C46.7151 36.1384 47.0363 36.0054 47.3712 36.0054Z" fill="white"/>
<path d="M51.1599 37.2682C51.1599 37.6032 51.2929 37.9244 51.5298 38.1612C51.7666 38.3981 52.0878 38.5311 52.4227 38.5311C52.7577 38.5311 53.0789 38.3981 53.3157 38.1612C53.5526 37.9244 53.6856 37.6032 53.6856 37.2682V36.0054H51.1599V37.2682Z" fill="white"/>
<path d="M57.4742 36.0054C57.8092 36.0054 58.1304 36.1384 58.3672 36.3753C58.6041 36.6121 58.7371 36.9333 58.7371 37.2682C58.7371 37.6032 58.6041 37.9244 58.3672 38.1612C58.1304 38.3981 57.8092 38.5311 57.4742 38.5311C57.1393 38.5311 56.8181 38.3981 56.5813 38.1612C56.3444 37.9244 56.2114 37.6032 56.2114 37.2682C56.2114 36.9333 56.3444 36.6121 56.5813 36.3753C56.8181 36.1384 57.1393 36.0054 57.4742 36.0054Z" fill="white"/>
<path d="M62.5257 36.0054C62.8607 36.0054 63.1819 36.1384 63.4187 36.3753C63.6556 36.6121 63.7886 36.9333 63.7886 37.2682C63.7886 37.6032 63.6556 37.9244 63.4187 38.1612C63.1819 38.3981 62.8607 38.5311 62.5257 38.5311C62.1908 38.5311 61.8696 38.3981 61.6328 38.1612C61.3959 37.9244 61.2629 37.6032 61.2629 37.2682C61.2629 36.9333 61.3959 36.6121 61.6328 36.3753C61.8696 36.1384 62.1908 36.0054 62.5257 36.0054Z" fill="white"/>
<path d="M73.8916 37.2682C73.8916 36.9333 74.0247 36.6121 74.2615 36.3753C74.4983 36.1384 74.8196 36.0054 75.1545 36.0054C75.4894 36.0054 75.8106 36.1384 76.0475 36.3753C76.2843 36.6121 76.4174 36.9333 76.4174 37.2682V38.5311H73.8916V37.2682Z" fill="white"/>
<path d="M78.9431 36.0054H81.4689V38.5311H78.9431V36.0054Z" fill="white"/>
<path d="M94.0976 36.0054H96.6234V38.5311H94.0976V36.0054Z" fill="white"/>
<path d="M23.3766 38.5311C23.3766 39.201 23.6427 39.8434 24.1164 40.3171C24.5901 40.7908 25.2325 41.0569 25.9024 41.0569V38.5311H23.3766Z" fill="white"/>
<path d="M25.9024 38.5311H28.4281V41.0569H25.9024V38.5311Z" fill="white"/>
<path d="M28.4281 38.5311H30.9539V41.0569H28.4281V38.5311Z" fill="white"/>
<path d="M30.9539 38.5311H33.4796V41.0569H30.9539V38.5311Z" fill="white"/>
<path d="M33.4796 38.5311H36.0054V41.0569H33.4796V38.5311Z" fill="white"/>
<path d="M36.0054 38.5311H38.5311V41.0569H36.0054V38.5311Z" fill="white"/>
<path d="M38.5311 41.0569C39.201 41.0569 39.8434 40.7908 40.3171 40.3171C40.7908 39.8434 41.0569 39.201 41.0569 38.5311H38.5311V41.0569Z" fill="white"/>
<path d="M44.8455 38.5311C45.1804 38.5311 45.5016 38.6642 45.7385 38.901C45.9753 39.1378 46.1084 39.4591 46.1084 39.794C46.1084 40.1289 45.9753 40.4502 45.7385 40.687C45.5016 40.9238 45.1804 41.0569 44.8455 41.0569C44.5106 41.0569 44.1893 40.9238 43.9525 40.687C43.7157 40.4502 43.5826 40.1289 43.5826 39.794C43.5826 39.4591 43.7157 39.1378 43.9525 38.901C44.1893 38.6642 44.5106 38.5311 44.8455 38.5311Z" fill="white"/>
<path d="M48.6341 39.794C48.6341 39.4591 48.7672 39.1378 49.004 38.901C49.2408 38.6642 49.5621 38.5311 49.897 38.5311C50.2319 38.5311 50.5531 38.6642 50.79 38.901C51.0268 39.1378 51.1599 39.4591 51.1599 39.794V41.0569H48.6341V39.794Z" fill="white"/>
<path d="M53.6856 39.794C53.6856 39.4591 53.8187 39.1378 54.0555 38.901C54.2923 38.6642 54.6136 38.5311 54.9485 38.5311C55.2834 38.5311 55.6046 38.6642 55.8415 38.901C56.0783 39.1378 56.2114 39.4591 56.2114 39.794V41.0569H53.6856V39.794Z" fill="white"/>
<path d="M58.7371 39.794C58.7371 39.4591 58.8702 39.1378 59.107 38.901C59.3438 38.6642 59.6651 38.5311 60 38.5311C60.3349 38.5311 60.6561 38.6642 60.893 38.901C61.1298 39.1378 61.2629 39.4591 61.2629 39.794V41.0569H58.7371V39.794Z" fill="white"/>
<path d="M65.0515 38.5311C65.3864 38.5311 65.7076 38.6642 65.9445 38.901C66.1813 39.1378 66.3144 39.4591 66.3144 39.794C66.3144 40.1289 66.1813 40.4502 65.9445 40.687C65.7076 40.9238 65.3864 41.0569 65.0515 41.0569C64.7166 41.0569 64.3953 40.9238 64.1585 40.687C63.9217 40.4502 63.7886 40.1289 63.7886 39.794C63.7886 39.4591 63.9217 39.1378 64.1585 38.901C64.3953 38.6642 64.7166 38.5311 65.0515 38.5311Z" fill="white"/>
<path d="M68.8401 39.794C68.8401 39.4591 68.9732 39.1378 69.21 38.901C69.4468 38.6642 69.7681 38.5311 70.103 38.5311C70.4379 38.5311 70.7591 38.6642 70.996 38.901C71.2328 39.1378 71.3659 39.4591 71.3659 39.794V41.0569H68.8401V39.794Z" fill="white"/>
<path d="M73.8916 38.5311H76.4174V41.0569H73.8916V38.5311Z" fill="white"/>
<path d="M78.9431 38.5311C78.9431 39.201 79.2092 39.8434 79.6829 40.3171C80.1566 40.7908 80.799 41.0569 81.4689 41.0569V38.5311H78.9431Z" fill="white"/>
<path d="M81.4689 38.5311H83.9946V41.0569H81.4689V38.5311Z" fill="white"/>
<path d="M83.9946 38.5311H86.5204V41.0569H83.9946V38.5311Z" fill="white"/>
<path d="M86.5204 38.5311H89.0461V41.0569H86.5204V38.5311Z" fill="white"/>
<path d="M89.0461 38.5311H91.5719V41.0569H89.0461V38.5311Z" fill="white"/>
<path d="M91.5719 38.5311H94.0976V41.0569H91.5719V38.5311Z" fill="white"/>
<path d="M94.0976 41.0569C94.7675 41.0569 95.4099 40.7908 95.8836 40.3171C96.3573 39.8434 96.6234 39.201 96.6234 38.5311H94.0976V41.0569Z" fill="white"/>
<path d="M46.1084 43.5826C46.1084 42.9128 46.3745 42.2703 46.8481 41.7967C47.3218 41.323 47.9642 41.0569 48.6341 41.0569V43.5826H46.1084Z" fill="white"/>
<path d="M48.6341 41.0569H51.1599V43.5826H48.6341V41.0569Z" fill="white"/>
<path d="M53.6856 42.3197C53.6856 42.6547 53.8187 42.9759 54.0555 43.2127C54.2923 43.4496 54.6136 43.5826 54.9485 43.5826C55.2834 43.5826 55.6046 43.4496 55.8415 43.2127C56.0783 42.9759 56.2114 42.6547 56.2114 42.3197V41.0569H53.6856V42.3197Z" fill="white"/>
<path d="M58.7371 42.3197C58.7371 42.6547 58.8702 42.9759 59.107 43.2127C59.3438 43.4496 59.6651 43.5826 60 43.5826C60.3349 43.5826 60.6561 43.4496 60.893 43.2127C61.1298 42.9759 61.2629 42.6547 61.2629 42.3197V41.0569H58.7371V42.3197Z" fill="white"/>
<path d="M67.5772 41.0569C67.2423 41.0569 66.9211 41.1899 66.6843 41.4268C66.4474 41.6636 66.3144 41.9848 66.3144 42.3197C66.3144 42.6547 66.4474 42.9759 66.6843 43.2127C66.9211 43.4496 67.2423 43.5826 67.5772 43.5826H68.8401V41.0569H67.5772Z" fill="white"/>
<path d="M68.8401 41.0569H71.3659V43.5826H68.8401V41.0569Z" fill="white"/>
<path d="M71.3659 41.0569H73.8916V43.5826H71.3659V41.0569Z" fill="white"/>
<path d="M73.8916 43.5826C74.5615 43.5826 75.2039 43.3165 75.6776 42.8428C76.1513 42.3692 76.4174 41.7267 76.4174 41.0569H73.8916V43.5826Z" fill="white"/>
<path d="M30.9539 46.1084C30.9539 45.4385 31.22 44.7961 31.6936 44.3224C32.1673 43.8487 32.8097 43.5826 33.4796 43.5826V46.1084H30.9539Z" fill="white"/>
<path d="M34.7425 43.5826C35.0774 43.5826 35.3986 43.7157 35.6355 43.9525C35.8723 44.1893 36.0054 44.5106 36.0054 44.8455C36.0054 45.1804 35.8723 45.5017 35.6355 45.7385C35.3986 45.9753 35.0774 46.1084 34.7425 46.1084H33.4796V43.5826H34.7425Z" fill="white"/>
<path d="M39.794 43.5826C39.4591 43.5826 39.1378 43.7157 38.901 43.9525C38.6642 44.1893 38.5311 44.5106 38.5311 44.8455C38.5311 45.1804 38.6642 45.5017 38.901 45.7385C39.1378 45.9753 39.4591 46.1084 39.794 46.1084H41.0569V43.5826H39.794Z" fill="white"/>
<path d="M41.0569 43.5826C41.7267 43.5826 42.3692 43.8487 42.8428 44.3224C43.3165 44.7961 43.5826 45.4385 43.5826 46.1084H41.0569V43.5826Z" fill="white"/>
<path d="M46.1084 43.5826C46.1084 44.2525 46.3745 44.8949 46.8481 45.3686C47.3218 45.8423 47.9642 46.1084 48.6341 46.1084V43.5826H46.1084Z" fill="white"/>
<path d="M48.6341 43.5826H51.1599V46.1084H48.6341V43.5826Z" fill="white"/>
<path d="M52.4227 43.5826C52.7577 43.5826 53.0789 43.7157 53.3157 43.9525C53.5526 44.1893 53.6856 44.5106 53.6856 44.8455C53.6856 45.1804 53.5526 45.5017 53.3157 45.7385C53.0789 45.9753 52.7577 46.1084 52.4227 46.1084H51.1599V43.5826H52.4227Z" fill="white"/>
<path d="M56.2114 44.8455C56.2114 44.5106 56.3444 44.1893 56.5813 43.9525C56.8181 43.7157 57.1393 43.5826 57.4742 43.5826C57.8092 43.5826 58.1304 43.7157 58.3672 43.9525C58.6041 44.1893 58.7371 44.5106 58.7371 44.8455V46.1084H56.2114V44.8455Z" fill="white"/>
<path d="M71.3659 44.8455C71.3659 45.1804 71.4989 45.5017 71.7358 45.7385C71.9726 45.9753 72.2938 46.1084 72.6287 46.1084C72.9637 46.1084 73.2849 45.9753 73.5217 45.7385C73.7586 45.5017 73.8916 45.1804 73.8916 44.8455V43.5826H71.3659V44.8455Z" fill="white"/>
<path d="M87.7832 43.5826C87.4483 43.5826 87.1271 43.7157 86.8903 43.9525C86.6534 44.1893 86.5204 44.5106 86.5204 44.8455C86.5204 45.1804 86.6534 45.5017 86.8903 45.7385C87.1271 45.9753 87.4483 46.1084 87.7832 46.1084H89.0461V43.5826H87.7832Z" fill="white"/>
<path d="M89.0461 43.5826C89.716 43.5826 90.3584 43.8487 90.8321 44.3224C91.3058 44.7961 91.5719 45.4385 91.5719 46.1084H89.0461V43.5826Z" fill="white"/>
<path d="M25.9024 48.6341C25.9024 47.9643 26.1685 47.3218 26.6421 46.8481C27.1158 46.3745 27.7582 46.1084 28.4281 46.1084V48.6341H25.9024Z" fill="white"/>
<path d="M28.4281 46.1084H30.9539V48.6341H28.4281V46.1084Z" fill="white"/>
<path d="M30.9539 48.6341C31.6237 48.6341 32.2662 48.368 32.7398 47.8943C33.2135 47.4207 33.4796 46.7782 33.4796 46.1084H30.9539V48.6341Z" fill="white"/>
<path d="M36.0054 47.3713C36.0054 47.0363 36.1384 46.7151 36.3753 46.4783C36.6121 46.2414 36.9333 46.1084 37.2682 46.1084C37.6032 46.1084 37.9244 46.2414 38.1612 46.4783C38.3981 46.7151 38.5311 47.0363 38.5311 47.3713V48.6341H36.0054V47.3713Z" fill="white"/>
<path d="M41.0569 46.1084H43.5826V48.6341H41.0569V46.1084Z" fill="white"/>
<path d="M43.5826 46.1084C44.2525 46.1084 44.8949 46.3745 45.3686 46.8481C45.8423 47.3218 46.1084 47.9643 46.1084 48.6341H43.5826V46.1084Z" fill="white"/>
<path d="M54.9485 46.1084C54.6136 46.1084 54.2923 46.2414 54.0555 46.4783C53.8187 46.7151 53.6856 47.0363 53.6856 47.3713C53.6856 47.7062 53.8187 48.0274 54.0555 48.2642C54.2923 48.5011 54.6136 48.6341 54.9485 48.6341H56.2114V46.1084H54.9485Z" fill="white"/>
<path d="M56.2114 46.1084H58.7371V48.6341H56.2114V46.1084Z" fill="white"/>
<path d="M60 46.1084C60.3349 46.1084 60.6561 46.2414 60.893 46.4783C61.1298 46.7151 61.2629 47.0363 61.2629 47.3713C61.2629 47.7062 61.1298 48.0274 60.893 48.2642C60.6561 48.5011 60.3349 48.6341 60 48.6341H58.7371V46.1084H60Z" fill="white"/>
<path d="M65.0515 46.1084C64.7166 46.1084 64.3953 46.2414 64.1585 46.4783C63.9217 46.7151 63.7886 47.0363 63.7886 47.3713C63.7886 47.7062 63.9217 48.0274 64.1585 48.2642C64.3953 48.5011 64.7166 48.6341 65.0515 48.6341H66.3144V46.1084H65.0515Z" fill="white"/>
<path d="M66.3144 46.1084H68.8401V48.6341H66.3144V46.1084Z" fill="white"/>
<path d="M70.103 46.1084C70.4379 46.1084 70.7591 46.2414 70.996 46.4783C71.2328 46.7151 71.3659 47.0363 71.3659 47.3713C71.3659 47.7062 71.2328 48.0274 70.996 48.2642C70.7591 48.5011 70.4379 48.6341 70.103 48.6341H68.8401V46.1084H70.103Z" fill="white"/>
<path d="M81.4689 48.6341C81.4689 47.9643 81.735 47.3218 82.2086 46.8481C82.6823 46.3745 83.3247 46.1084 83.9946 46.1084V48.6341H81.4689Z" fill="white"/>
<path d="M85.2575 46.1084C85.5924 46.1084 85.9136 46.2414 86.1505 46.4783C86.3873 46.7151 86.5204 47.0363 86.5204 47.3713C86.5204 47.7062 86.3873 48.0274 86.1505 48.2642C85.9136 48.5011 85.5924 48.6341 85.2575 48.6341H83.9946V46.1084H85.2575Z" fill="white"/>
<path d="M89.0461 46.1084H91.5719V48.6341H89.0461V46.1084Z" fill="white"/>
<path d="M92.8347 46.1084C93.1697 46.1084 93.4909 46.2414 93.7277 46.4783C93.9646 46.7151 94.0976 47.0363 94.0976 47.3713C94.0976 47.7062 93.9646 48.0274 93.7277 48.2642C93.4909 48.5011 93.1697 48.6341 92.8347 48.6341H91.5719V46.1084H92.8347Z" fill="white"/>
<path d="M25.9024 49.897C25.9024 50.2319 26.0354 50.5532 26.2723 50.79C26.5091 51.0268 26.8303 51.1599 27.1652 51.1599C27.5002 51.1599 27.8214 51.0268 28.0582 50.79C28.2951 50.5532 28.4281 50.2319 28.4281 49.897V48.6341H25.9024V49.897Z" fill="white"/>
<path d="M36.0054 48.6341H38.5311V51.1599H36.0054V48.6341Z" fill="white"/>
<path d="M38.5311 48.6341H41.0569V51.1599H38.5311V48.6341Z" fill="white"/>
<path d="M41.0569 48.6341H43.5826V51.1599H41.0569V48.6341Z" fill="white"/>
<path d="M43.5826 48.6341H46.1084V51.1599H43.5826V48.6341Z" fill="white"/>
<path d="M71.3659 51.1599C71.3659 50.49 71.632 49.8476 72.1056 49.3739C72.5793 48.9002 73.2217 48.6341 73.8916 48.6341V51.1599H71.3659Z" fill="white"/>
<path d="M73.8916 48.6341H76.4174V51.1599H73.8916V48.6341Z" fill="white"/>
<path d="M76.4174 48.6341H78.9431V51.1599H76.4174V48.6341Z" fill="white"/>
<path d="M78.9431 48.6341H81.4689V51.1599H78.9431V48.6341Z" fill="white"/>
<path d="M81.4689 51.1599C82.1387 51.1599 82.7812 50.8938 83.2548 50.4201C83.7285 49.9464 83.9946 49.304 83.9946 48.6341H81.4689V51.1599Z" fill="white"/>
<path d="M86.5204 51.1599C86.5204 50.49 86.7865 49.8476 87.2601 49.3739C87.7338 48.9002 88.3762 48.6341 89.0461 48.6341V51.1599H86.5204Z" fill="white"/>
<path d="M89.0461 51.1599C89.716 51.1599 90.3584 50.8938 90.8321 50.4201C91.3058 49.9464 91.5719 49.304 91.5719 48.6341H89.0461V51.1599Z" fill="white"/>
<path d="M28.4281 52.4227C28.4281 52.0878 28.5612 51.7666 28.798 51.5298C29.0348 51.2929 29.3561 51.1599 29.691 51.1599C30.0259 51.1599 30.3471 51.2929 30.584 51.5298C30.8208 51.7666 30.9539 52.0878 30.9539 52.4227V53.6856H28.4281V52.4227Z" fill="white"/>
<path d="M34.7425 51.1599C34.4076 51.1599 34.0863 51.2929 33.8495 51.5298C33.6127 51.7666 33.4796 52.0878 33.4796 52.4227C33.4796 52.7577 33.6127 53.0789 33.8495 53.3157C34.0863 53.5526 34.4076 53.6856 34.7425 53.6856H36.0054V51.1599H34.7425Z" fill="white"/>
<path d="M36.0054 53.6856C36.6752 53.6856 37.3177 53.4195 37.7913 52.9458C38.265 52.4722 38.5311 51.8297 38.5311 51.1599H36.0054V53.6856Z" fill="white"/>
<path d="M43.5826 51.1599H46.1084V53.6856H43.5826V51.1599Z" fill="white"/>
<path d="M71.3659 51.1599C71.3659 51.8297 71.632 52.4722 72.1056 52.9458C72.5793 53.4195 73.2217 53.6856 73.8916 53.6856V51.1599H71.3659Z" fill="white"/>
<path d="M73.8916 51.1599H76.4174V53.6856H73.8916V51.1599Z" fill="white"/>
<path d="M86.5204 51.1599H89.0461V53.6856H86.5204V51.1599Z" fill="white"/>
<path d="M95.3605 51.1599C95.6954 51.1599 96.0166 51.2929 96.2535 51.5298C96.4903 51.7666 96.6234 52.0878 96.6234 52.4227C96.6234 52.7577 96.4903 53.0789 96.2535 53.3157C96.0166 53.5526 95.6954 53.6856 95.3605 53.6856C95.0256 53.6856 94.7043 53.5526 94.4675 53.3157C94.2307 53.0789 94.0976 52.7577 94.0976 52.4227C94.0976 52.0878 94.2307 51.7666 94.4675 51.5298C94.7043 51.2929 95.0256 51.1599 95.3605 51.1599Z" fill="white"/>
<path d="M25.9024 56.2114C25.9024 55.5415 26.1685 54.8991 26.6421 54.4254C27.1158 53.9517 27.7582 53.6856 28.4281 53.6856V56.2114H25.9024Z" fill="white"/>
<path d="M28.4281 53.6856H30.9539V56.2114H28.4281V53.6856Z" fill="white"/>
<path d="M39.794 53.6856C40.1289 53.6856 40.4501 53.8187 40.687 54.0555C40.9238 54.2923 41.0569 54.6136 41.0569 54.9485C41.0569 55.2834 40.9238 55.6047 40.687 55.8415C40.4501 56.0783 40.1289 56.2114 39.794 56.2114C39.4591 56.2114 39.1378 56.0783 38.901 55.8415C38.6642 55.6047 38.5311 55.2834 38.5311 54.9485C38.5311 54.6136 38.6642 54.2923 38.901 54.0555C39.1378 53.8187 39.4591 53.6856 39.794 53.6856Z" fill="white"/>
<path d="M43.5826 54.9485C43.5826 55.2834 43.7157 55.6047 43.9525 55.8415C44.1893 56.0783 44.5106 56.2114 44.8455 56.2114C45.1804 56.2114 45.5016 56.0783 45.7385 55.8415C45.9753 55.6047 46.1084 55.2834 46.1084 54.9485V53.6856H43.5826V54.9485Z" fill="white"/>
<path d="M73.8916 53.6856C73.8916 54.3555 74.1577 54.9979 74.6314 55.4716C75.1051 55.9453 75.7475 56.2114 76.4174 56.2114V53.6856H73.8916Z" fill="white"/>
<path d="M76.4174 53.6856H78.9431V56.2114H76.4174V53.6856Z" fill="white"/>
<path d="M78.9431 53.6856C79.613 53.6856 80.2554 53.9517 80.7291 54.4254C81.2028 54.8991 81.4689 55.5415 81.4689 56.2114H78.9431V53.6856Z" fill="white"/>
<path d="M86.5204 54.9485C86.5204 55.2834 86.6534 55.6047 86.8903 55.8415C87.1271 56.0783 87.4483 56.2114 87.7832 56.2114C88.1182 56.2114 88.4394 56.0783 88.6762 55.8415C88.9131 55.6047 89.0461 55.2834 89.0461 54.9485V53.6856H86.5204V54.9485Z" fill="white"/>
<path d="M92.8347 53.6856C93.1697 53.6856 93.4909 53.8187 93.7277 54.0555C93.9646 54.2923 94.0976 54.6136 94.0976 54.9485C94.0976 55.2834 93.9646 55.6047 93.7277 55.8415C93.4909 56.0783 93.1697 56.2114 92.8347 56.2114C92.4998 56.2114 92.1786 56.0783 91.9418 55.8415C91.7049 55.6047 91.5719 55.2834 91.5719 54.9485C91.5719 54.6136 91.7049 54.2923 91.9418 54.0555C92.1786 53.8187 92.4998 53.6856 92.8347 53.6856Z" fill="white"/>
<path d="M25.9024 56.2114C25.9024 56.8812 26.1685 57.5237 26.6421 57.9973C27.1158 58.471 27.7582 58.7371 28.4281 58.7371V56.2114H25.9024Z" fill="white"/>
<path d="M28.4281 56.2114H30.9539V58.7371H28.4281V56.2114Z" fill="white"/>
<path d="M34.7425 56.2114C35.0774 56.2114 35.3986 56.3444 35.6355 56.5813C35.8723 56.8181 36.0054 57.1393 36.0054 57.4742C36.0054 57.8092 35.8723 58.1304 35.6355 58.3672C35.3986 58.6041 35.0774 58.7371 34.7425 58.7371C34.4076 58.7371 34.0863 58.6041 33.8495 58.3672C33.6127 58.1304 33.4796 57.8092 33.4796 57.4742C33.4796 57.1393 33.6127 56.8181 33.8495 56.5813C34.0863 56.3444 34.4076 56.2114 34.7425 56.2114Z" fill="white"/>
<path d="M42.3197 56.2114C42.6547 56.2114 42.9759 56.3444 43.2127 56.5813C43.4496 56.8181 43.5826 57.1393 43.5826 57.4742C43.5826 57.8092 43.4496 58.1304 43.2127 58.3672C42.9759 58.6041 42.6547 58.7371 42.3197 58.7371C41.9848 58.7371 41.6636 58.6041 41.4268 58.3672C41.1899 58.1304 41.0569 57.8092 41.0569 57.4742C41.0569 57.1393 41.1899 56.8181 41.4268 56.5813C41.6636 56.3444 41.9848 56.2114 42.3197 56.2114Z" fill="white"/>
<path d="M47.3712 56.2114C47.7062 56.2114 48.0274 56.3444 48.2642 56.5813C48.5011 56.8181 48.6341 57.1393 48.6341 57.4742C48.6341 57.8092 48.5011 58.1304 48.2642 58.3672C48.0274 58.6041 47.7062 58.7371 47.3712 58.7371C47.0363 58.7371 46.7151 58.6041 46.4783 58.3672C46.2414 58.1304 46.1084 57.8092 46.1084 57.4742C46.1084 57.1393 46.2414 56.8181 46.4783 56.5813C46.7151 56.3444 47.0363 56.2114 47.3712 56.2114Z" fill="white"/>
<path d="M78.9431 56.2114H81.4689V58.7371H78.9431V56.2114Z" fill="white"/>
<path d="M85.2575 56.2114C85.5924 56.2114 85.9136 56.3444 86.1505 56.5813C86.3873 56.8181 86.5204 57.1393 86.5204 57.4742C86.5204 57.8092 86.3873 58.1304 86.1505 58.3672C85.9136 58.6041 85.5924 58.7371 85.2575 58.7371C84.9226 58.7371 84.6013 58.6041 84.3645 58.3672C84.1277 58.1304 83.9946 57.8092 83.9946 57.4742C83.9946 57.1393 84.1277 56.8181 84.3645 56.5813C84.6013 56.3444 84.9226 56.2114 85.2575 56.2114Z" fill="white"/>
<path d="M90.309 56.2114C90.6439 56.2114 90.9651 56.3444 91.202 56.5813C91.4388 56.8181 91.5719 57.1393 91.5719 57.4742C91.5719 57.8092 91.4388 58.1304 91.202 58.3672C90.9651 58.6041 90.6439 58.7371 90.309 58.7371C89.9741 58.7371 89.6528 58.6041 89.416 58.3672C89.1792 58.1304 89.0461 57.8092 89.0461 57.4742C89.0461 57.1393 89.1792 56.8181 89.416 56.5813C89.6528 56.3444 89.9741 56.2114 90.309 56.2114Z" fill="white"/>
<path d="M94.0976 57.4742C94.0976 57.1393 94.2307 56.8181 94.4675 56.5813C94.7043 56.3444 95.0256 56.2114 95.3605 56.2114C95.6954 56.2114 96.0166 56.3444 96.2535 56.5813C96.4903 56.8181 96.6234 57.1393 96.6234 57.4742V58.7371H94.0976V57.4742Z" fill="white"/>
<path d="M28.4281 58.7371C28.4281 59.407 28.6942 60.0494 29.1679 60.5231C29.6416 60.9968 30.284 61.2629 30.9539 61.2629V58.7371H28.4281Z" fill="white"/>
<path d="M30.9539 58.7371C31.6237 58.7371 32.2662 59.0032 32.7398 59.4769C33.2135 59.9506 33.4796 60.593 33.4796 61.2629H30.9539V58.7371Z" fill="white"/>
<path d="M39.794 58.7371C40.1289 58.7371 40.4501 58.8702 40.687 59.107C40.9238 59.3438 41.0569 59.6651 41.0569 60C41.0569 60.3349 40.9238 60.6562 40.687 60.893C40.4501 61.1298 40.1289 61.2629 39.794 61.2629C39.4591 61.2629 39.1378 61.1298 38.901 60.893C38.6642 60.6562 38.5311 60.3349 38.5311 60C38.5311 59.6651 38.6642 59.3438 38.901 59.107C39.1378 58.8702 39.4591 58.7371 39.794 58.7371Z" fill="white"/>
<path d="M44.8455 58.7371C45.1804 58.7371 45.5016 58.8702 45.7385 59.107C45.9753 59.3438 46.1084 59.6651 46.1084 60C46.1084 60.3349 45.9753 60.6562 45.7385 60.893C45.5016 61.1298 45.1804 61.2629 44.8455 61.2629C44.5106 61.2629 44.1893 61.1298 43.9525 60.893C43.7157 60.6562 43.5826 60.3349 43.5826 60C43.5826 59.6651 43.7157 59.3438 43.9525 59.107C44.1893 58.8702 44.5106 58.7371 44.8455 58.7371Z" fill="white"/>
<path d="M72.6287 58.7371C72.9637 58.7371 73.2849 58.8702 73.5217 59.107C73.7586 59.3438 73.8916 59.6651 73.8916 60C73.8916 60.3349 73.7586 60.6562 73.5217 60.893C73.2849 61.1298 72.9637 61.2629 72.6287 61.2629C72.2938 61.2629 71.9726 61.1298 71.7358 60.893C71.4989 60.6562 71.3659 60.3349 71.3659 60C71.3659 59.6651 71.4989 59.3438 71.7358 59.107C71.9726 58.8702 72.2938 58.7371 72.6287 58.7371Z" fill="white"/>
<path d="M76.4174 61.2629C76.4174 60.593 76.6835 59.9506 77.1571 59.4769C77.6308 59.0032 78.2732 58.7371 78.9431 58.7371V61.2629H76.4174Z" fill="white"/>
<path d="M78.9431 58.7371H81.4689V61.2629H78.9431V58.7371Z" fill="white"/>
<path d="M82.7317 58.7371C83.0667 58.7371 83.3879 58.8702 83.6247 59.107C83.8616 59.3438 83.9946 59.6651 83.9946 60C83.9946 60.3349 83.8616 60.6562 83.6247 60.893C83.3879 61.1298 83.0667 61.2629 82.7317 61.2629H81.4689V58.7371H82.7317Z" fill="white"/>
<path d="M86.5204 60C86.5204 59.6651 86.6534 59.3438 86.8903 59.107C87.1271 58.8702 87.4483 58.7371 87.7832 58.7371C88.1182 58.7371 88.4394 58.8702 88.6762 59.107C88.9131 59.3438 89.0461 59.6651 89.0461 60V61.2629H86.5204V60Z" fill="white"/>
<path d="M94.0976 60C94.0976 60.3349 94.2307 60.6562 94.4675 60.893C94.7043 61.1298 95.0256 61.2629 95.3605 61.2629C95.6954 61.2629 96.0166 61.1298 96.2535 60.893C96.4903 60.6562 96.6234 60.3349 96.6234 60V58.7371H94.0976V60Z" fill="white"/>
<path d="M23.3766 63.7886C23.3766 63.1188 23.6427 62.4763 24.1164 62.0027C24.5901 61.529 25.2325 61.2629 25.9024 61.2629V63.7886H23.3766Z" fill="white"/>
<path d="M25.9024 61.2629C26.5722 61.2629 27.2147 61.529 27.6883 62.0027C28.162 62.4763 28.4281 63.1188 28.4281 63.7886H25.9024V61.2629Z" fill="white"/>
<path d="M30.9539 61.2629H33.4796V63.7886H30.9539V61.2629Z" fill="white"/>
<path d="M34.7425 61.2629C35.0774 61.2629 35.3986 61.3959 35.6355 61.6328C35.8723 61.8696 36.0054 62.1908 36.0054 62.5257C36.0054 62.8607 35.8723 63.1819 35.6355 63.4187C35.3986 63.6556 35.0774 63.7886 34.7425 63.7886H33.4796V61.2629H34.7425Z" fill="white"/>
<path d="M42.3197 61.2629C42.6547 61.2629 42.9759 61.3959 43.2127 61.6328C43.4496 61.8696 43.5826 62.1908 43.5826 62.5257C43.5826 62.8607 43.4496 63.1819 43.2127 63.4187C42.9759 63.6556 42.6547 63.7886 42.3197 63.7886C41.9848 63.7886 41.6636 63.6556 41.4268 63.4187C41.1899 63.1819 41.0569 62.8607 41.0569 62.5257C41.0569 62.1908 41.1899 61.8696 41.4268 61.6328C41.6636 61.3959 41.9848 61.2629 42.3197 61.2629Z" fill="white"/>
<path d="M76.4174 62.5257C76.4174 62.8607 76.5504 63.1819 76.7873 63.4187C77.0241 63.6556 77.3453 63.7886 77.6802 63.7886C78.0152 63.7886 78.3364 63.6556 78.5732 63.4187C78.8101 63.1819 78.9431 62.8607 78.9431 62.5257V61.2629H76.4174V62.5257Z" fill="white"/>
<path d="M85.2575 61.2629C84.9226 61.2629 84.6013 61.3959 84.3645 61.6328C84.1277 61.8696 83.9946 62.1908 83.9946 62.5257C83.9946 62.8607 84.1277 63.1819 84.3645 63.4187C84.6013 63.6556 84.9226 63.7886 85.2575 63.7886H86.5204V61.2629H85.2575Z" fill="white"/>
<path d="M86.5204 61.2629H89.0461V63.7886H86.5204V61.2629Z" fill="white"/>
<path d="M89.0461 61.2629H91.5719V63.7886H89.0461V61.2629Z" fill="white"/>
<path d="M91.5719 61.2629C92.2417 61.2629 92.8842 61.529 93.3578 62.0027C93.8315 62.4763 94.0976 63.1188 94.0976 63.7886H91.5719V61.2629Z" fill="white"/>
<path d="M23.3766 63.7886H25.9024V66.3144H23.3766V63.7886Z" fill="white"/>
<path d="M25.9024 63.7886H28.4281V66.3144H25.9024V63.7886Z" fill="white"/>
<path d="M28.4281 63.7886H30.9539V66.3144H28.4281V63.7886Z" fill="white"/>
<path d="M30.9539 66.3144C31.6237 66.3144 32.2662 66.0483 32.7398 65.5746C33.2135 65.1009 33.4796 64.4585 33.4796 63.7886H30.9539V66.3144Z" fill="white"/>
<path d="M39.794 63.7886C40.1289 63.7886 40.4501 63.9217 40.687 64.1585C40.9238 64.3953 41.0569 64.7166 41.0569 65.0515C41.0569 65.3864 40.9238 65.7077 40.687 65.9445C40.4501 66.1813 40.1289 66.3144 39.794 66.3144C39.4591 66.3144 39.1378 66.1813 38.901 65.9445C38.6642 65.7077 38.5311 65.3864 38.5311 65.0515C38.5311 64.7166 38.6642 64.3953 38.901 64.1585C39.1378 63.9217 39.4591 63.7886 39.794 63.7886Z" fill="white"/>
<path d="M44.8455 63.7886C45.1804 63.7886 45.5016 63.9217 45.7385 64.1585C45.9753 64.3953 46.1084 64.7166 46.1084 65.0515C46.1084 65.3864 45.9753 65.7077 45.7385 65.9445C45.5016 66.1813 45.1804 66.3144 44.8455 66.3144C44.5106 66.3144 44.1893 66.1813 43.9525 65.9445C43.7157 65.7077 43.5826 65.3864 43.5826 65.0515C43.5826 64.7166 43.7157 64.3953 43.9525 64.1585C44.1893 63.9217 44.5106 63.7886 44.8455 63.7886Z" fill="white"/>
<path d="M75.1545 63.7886C75.4894 63.7886 75.8106 63.9217 76.0475 64.1585C76.2843 64.3953 76.4174 64.7166 76.4174 65.0515C76.4174 65.3864 76.2843 65.7077 76.0475 65.9445C75.8106 66.1813 75.4894 66.3144 75.1545 66.3144C74.8196 66.3144 74.4983 66.1813 74.2615 65.9445C74.0247 65.7077 73.8916 65.3864 73.8916 65.0515C73.8916 64.7166 74.0247 64.3953 74.2615 64.1585C74.4983 63.9217 74.8196 63.7886 75.1545 63.7886Z" fill="white"/>
<path d="M81.4689 65.0515C81.4689 64.7166 81.6019 64.3953 81.8388 64.1585C82.0756 63.9217 82.3968 63.7886 82.7317 63.7886C83.0667 63.7886 83.3879 63.9217 83.6247 64.1585C83.8616 64.3953 83.9946 64.7166 83.9946 65.0515V66.3144H81.4689V65.0515Z" fill="white"/>
<path d="M86.5204 63.7886H89.0461V66.3144H86.5204V63.7886Z" fill="white"/>
<path d="M91.5719 65.0515C91.5719 65.3864 91.7049 65.7077 91.9418 65.9445C92.1786 66.1813 92.4998 66.3144 92.8347 66.3144C93.1697 66.3144 93.4909 66.1813 93.7277 65.9445C93.9646 65.7077 94.0976 65.3864 94.0976 65.0515V63.7886H91.5719V65.0515Z" fill="white"/>
<path d="M23.3766 66.3144H25.9024V68.8401H23.3766V66.3144Z" fill="white"/>
<path d="M25.9024 66.3144H28.4281V68.8401H25.9024V66.3144Z" fill="white"/>
<path d="M28.4281 68.8401C29.098 68.8401 29.7404 68.574 30.2141 68.1003C30.6878 67.6267 30.9539 66.9842 30.9539 66.3144H28.4281V68.8401Z" fill="white"/>
<path d="M36.0054 67.5772C36.0054 67.2423 36.1384 66.9211 36.3753 66.6843C36.6121 66.4474 36.9333 66.3144 37.2682 66.3144C37.6032 66.3144 37.9244 66.4474 38.1612 66.6843C38.3981 66.9211 38.5311 67.2423 38.5311 67.5772V68.8401H36.0054V67.5772Z" fill="white"/>
<path d="M42.3197 66.3144C42.6547 66.3144 42.9759 66.4474 43.2127 66.6843C43.4496 66.9211 43.5826 67.2423 43.5826 67.5772C43.5826 67.9122 43.4496 68.2334 43.2127 68.4702C42.9759 68.7071 42.6547 68.8401 42.3197 68.8401C41.9848 68.8401 41.6636 68.7071 41.4268 68.4702C41.1899 68.2334 41.0569 67.9122 41.0569 67.5772C41.0569 67.2423 41.1899 66.9211 41.4268 66.6843C41.6636 66.4474 41.9848 66.3144 42.3197 66.3144Z" fill="white"/>
<path d="M47.3712 66.3144C47.7062 66.3144 48.0274 66.4474 48.2642 66.6843C48.5011 66.9211 48.6341 67.2423 48.6341 67.5772C48.6341 67.9122 48.5011 68.2334 48.2642 68.4702C48.0274 68.7071 47.7062 68.8401 47.3712 68.8401C47.0363 68.8401 46.7151 68.7071 46.4783 68.4702C46.2414 68.2334 46.1084 67.9122 46.1084 67.5772C46.1084 67.2423 46.2414 66.9211 46.4783 66.6843C46.7151 66.4474 47.0363 66.3144 47.3712 66.3144Z" fill="white"/>
<path d="M81.4689 66.3144C81.4689 66.9842 81.735 67.6267 82.2086 68.1003C82.6823 68.574 83.3247 68.8401 83.9946 68.8401V66.3144H81.4689Z" fill="white"/>
<path d="M83.9946 66.3144H86.5204V68.8401H83.9946V66.3144Z" fill="white"/>
<path d="M86.5204 66.3144H89.0461V68.8401H86.5204V66.3144Z" fill="white"/>
<path d="M90.309 66.3144C90.6439 66.3144 90.9651 66.4474 91.202 66.6843C91.4388 66.9211 91.5719 67.2423 91.5719 67.5772C91.5719 67.9122 91.4388 68.2334 91.202 68.4702C90.9651 68.7071 90.6439 68.8401 90.309 68.8401H89.0461V66.3144H90.309Z" fill="white"/>
<path d="M23.3766 68.8401H25.9024V71.3659H23.3766V68.8401Z" fill="white"/>
<path d="M25.9024 68.8401H28.4281V71.3659H25.9024V68.8401Z" fill="white"/>
<path d="M32.2167 68.8401C31.8818 68.8401 31.5606 68.9732 31.3238 69.21C31.0869 69.4468 30.9539 69.7681 30.9539 70.103C30.9539 70.4379 31.0869 70.7592 31.3238 70.996C31.5606 71.2328 31.8818 71.3659 32.2167 71.3659H33.4796V68.8401H32.2167Z" fill="white"/>
<path d="M33.4796 68.8401H36.0054V71.3659H33.4796V68.8401Z" fill="white"/>
<path d="M36.0054 68.8401H38.5311V71.3659H36.0054V68.8401Z" fill="white"/>
<path d="M39.794 68.8401C40.1289 68.8401 40.4501 68.9732 40.687 69.21C40.9238 69.4468 41.0569 69.7681 41.0569 70.103C41.0569 70.4379 40.9238 70.7592 40.687 70.996C40.4501 71.2328 40.1289 71.3659 39.794 71.3659H38.5311V68.8401H39.794Z" fill="white"/>
<path d="M71.3659 70.103C71.3659 69.7681 71.4989 69.4468 71.7358 69.21C71.9726 68.9732 72.2938 68.8401 72.6287 68.8401C72.9637 68.8401 73.2849 68.9732 73.5217 69.21C73.7586 69.4468 73.8916 69.7681 73.8916 70.103V71.3659H71.3659V70.103Z" fill="white"/>
<path d="M83.9946 68.8401C83.9946 69.51 84.2607 70.1524 84.7344 70.6261C85.2081 71.0998 85.8505 71.3659 86.5204 71.3659V68.8401H83.9946Z" fill="white"/>
<path d="M86.5204 71.3659C87.1902 71.3659 87.8327 71.0998 88.3063 70.6261C88.78 70.1524 89.0461 69.51 89.0461 68.8401H86.5204V71.3659Z" fill="white"/>
<path d="M95.3605 68.8401C95.6954 68.8401 96.0166 68.9732 96.2535 69.21C96.4903 69.4468 96.6234 69.7681 96.6234 70.103C96.6234 70.4379 96.4903 70.7592 96.2535 70.996C96.0166 71.2328 95.6954 71.3659 95.3605 71.3659C95.0256 71.3659 94.7043 71.2328 94.4675 70.996C94.2307 70.7592 94.0976 70.4379 94.0976 70.103C94.0976 69.7681 94.2307 69.4468 94.4675 69.21C94.7043 68.9732 95.0256 68.8401 95.3605 68.8401Z" fill="white"/>
<path d="M23.3766 71.3659H25.9024V73.8916H23.3766V71.3659Z" fill="white"/>
<path d="M25.9024 71.3659H28.4281V73.8916H25.9024V71.3659Z" fill="white"/>
<path d="M33.4796 71.3659H36.0054V73.8916H33.4796V71.3659Z" fill="white"/>
<path d="M41.0569 72.6287C41.0569 72.2938 41.1899 71.9726 41.4268 71.7358C41.6636 71.4989 41.9848 71.3659 42.3197 71.3659C42.6547 71.3659 42.9759 71.4989 43.2127 71.7358C43.4496 71.9726 43.5826 72.2938 43.5826 72.6287V73.8916H41.0569V72.6287Z" fill="white"/>
<path d="M47.3712 71.3659C47.0363 71.3659 46.7151 71.4989 46.4783 71.7358C46.2414 71.9726 46.1084 72.2938 46.1084 72.6287C46.1084 72.9637 46.2414 73.2849 46.4783 73.5217C46.7151 73.7586 47.0363 73.8916 47.3712 73.8916H48.6341V71.3659H47.3712Z" fill="white"/>
<path d="M49.897 71.3659C50.2319 71.3659 50.5531 71.4989 50.79 71.7358C51.0268 71.9726 51.1599 72.2938 51.1599 72.6287C51.1599 72.9637 51.0268 73.2849 50.79 73.5217C50.5531 73.7586 50.2319 73.8916 49.897 73.8916H48.6341V71.3659H49.897Z" fill="white"/>
<path d="M54.9485 71.3659C54.6136 71.3659 54.2923 71.4989 54.0555 71.7358C53.8187 71.9726 53.6856 72.2938 53.6856 72.6287C53.6856 72.9637 53.8187 73.2849 54.0555 73.5217C54.2923 73.7586 54.6136 73.8916 54.9485 73.8916H56.2114V71.3659H54.9485Z" fill="white"/>
<path d="M56.2114 71.3659H58.7371V73.8916H56.2114V71.3659Z" fill="white"/>
<path d="M58.7371 71.3659H61.2629V73.8916H58.7371V71.3659Z" fill="white"/>
<path d="M61.2629 71.3659H63.7886V73.8916H61.2629V71.3659Z" fill="white"/>
<path d="M63.7886 71.3659H66.3144V73.8916H63.7886V71.3659Z" fill="white"/>
<path d="M66.3144 71.3659H68.8401V73.8916H66.3144V71.3659Z" fill="white"/>
<path d="M68.8401 71.3659H71.3659V73.8916H68.8401V71.3659Z" fill="white"/>
<path d="M71.3659 73.8916C72.0357 73.8916 72.6782 73.6255 73.1518 73.1518C73.6255 72.6782 73.8916 72.0357 73.8916 71.3659H71.3659V73.8916Z" fill="white"/>
<path d="M76.4174 73.8916C76.4174 73.2218 76.6835 72.5793 77.1571 72.1057C77.6308 71.632 78.2732 71.3659 78.9431 71.3659V73.8916H76.4174Z" fill="white"/>
<path d="M78.9431 71.3659C79.613 71.3659 80.2554 71.632 80.7291 72.1057C81.2028 72.5793 81.4689 73.2218 81.4689 73.8916H78.9431V71.3659Z" fill="white"/>
<path d="M89.0461 73.8916C89.0461 73.2218 89.3122 72.5793 89.7859 72.1057C90.2596 71.632 90.902 71.3659 91.5719 71.3659V73.8916H89.0461Z" fill="white"/>
<path d="M92.8347 71.3659C93.1697 71.3659 93.4909 71.4989 93.7277 71.7358C93.9646 71.9726 94.0976 72.2938 94.0976 72.6287C94.0976 72.9637 93.9646 73.2849 93.7277 73.5217C93.4909 73.7586 93.1697 73.8916 92.8347 73.8916H91.5719V71.3659H92.8347Z" fill="white"/>
<path d="M23.3766 73.8916C23.3766 74.5615 23.6427 75.2039 24.1164 75.6776C24.5901 76.1513 25.2325 76.4174 25.9024 76.4174V73.8916H23.3766Z" fill="white"/>
<path d="M25.9024 73.8916H28.4281V76.4174H25.9024V73.8916Z" fill="white"/>
<path d="M28.4281 73.8916H30.9539V76.4174H28.4281V73.8916Z" fill="white"/>
<path d="M30.9539 73.8916H33.4796V76.4174H30.9539V73.8916Z" fill="white"/>
<path d="M33.4796 76.4174C34.1495 76.4174 34.7919 76.1513 35.2656 75.6776C35.7393 75.2039 36.0054 74.5615 36.0054 73.8916H33.4796V76.4174Z" fill="white"/>
<path d="M39.794 73.8916C39.4591 73.8916 39.1378 74.0247 38.901 74.2615C38.6642 74.4983 38.5311 74.8196 38.5311 75.1545C38.5311 75.4894 38.6642 75.8107 38.901 76.0475C39.1378 76.2843 39.4591 76.4174 39.794 76.4174H41.0569V73.8916H39.794Z" fill="white"/>
<path d="M41.0569 73.8916H43.5826V76.4174H41.0569V73.8916Z" fill="white"/>
<path d="M43.5826 73.8916C44.2525 73.8916 44.8949 74.1577 45.3686 74.6314C45.8423 75.1051 46.1084 75.7475 46.1084 76.4174H43.5826V73.8916Z" fill="white"/>
<path d="M52.4227 73.8916C52.7577 73.8916 53.0789 74.0247 53.3157 74.2615C53.5526 74.4983 53.6856 74.8196 53.6856 75.1545C53.6856 75.4894 53.5526 75.8107 53.3157 76.0475C53.0789 76.2843 52.7577 76.4174 52.4227 76.4174C52.0878 76.4174 51.7666 76.2843 51.5298 76.0475C51.2929 75.8107 51.1599 75.4894 51.1599 75.1545C51.1599 74.8196 51.2929 74.4983 51.5298 74.2615C51.7666 74.0247 52.0878 73.8916 52.4227 73.8916Z" fill="white"/>
<path d="M58.7371 75.1545C58.7371 75.4894 58.8702 75.8107 59.107 76.0475C59.3438 76.2843 59.6651 76.4174 60 76.4174C60.3349 76.4174 60.6561 76.2843 60.893 76.0475C61.1298 75.8107 61.2629 75.4894 61.2629 75.1545V73.8916H58.7371V75.1545Z" fill="white"/>
<path d="M63.7886 73.8916C63.7886 74.5615 64.0547 75.2039 64.5284 75.6776C65.0021 76.1513 65.6445 76.4174 66.3144 76.4174V73.8916H63.7886Z" fill="white"/>
<path d="M66.3144 73.8916H68.8401V76.4174H66.3144V73.8916Z" fill="white"/>
<path d="M68.8401 73.8916H71.3659V76.4174H68.8401V73.8916Z" fill="white"/>
<path d="M73.8916 76.4174C73.8916 75.7475 74.1577 75.1051 74.6314 74.6314C75.1051 74.1577 75.7475 73.8916 76.4174 73.8916V76.4174H73.8916Z" fill="white"/>
<path d="M76.4174 73.8916H78.9431V76.4174H76.4174V73.8916Z" fill="white"/>
<path d="M78.9431 73.8916H81.4689V76.4174H78.9431V73.8916Z" fill="white"/>
<path d="M81.4689 73.8916H83.9946V76.4174H81.4689V73.8916Z" fill="white"/>
<path d="M83.9946 73.8916H86.5204V76.4174H83.9946V73.8916Z" fill="white"/>
<path d="M86.5204 73.8916H89.0461V76.4174H86.5204V73.8916Z" fill="white"/>
<path d="M89.0461 73.8916H91.5719V76.4174H89.0461V73.8916Z" fill="white"/>
<path d="M95.3605 73.8916C95.6954 73.8916 96.0166 74.0247 96.2535 74.2615C96.4903 74.4983 96.6234 74.8196 96.6234 75.1545C96.6234 75.4894 96.4903 75.8107 96.2535 76.0475C96.0166 76.2843 95.6954 76.4174 95.3605 76.4174C95.0256 76.4174 94.7043 76.2843 94.4675 76.0475C94.2307 75.8107 94.0976 75.4894 94.0976 75.1545C94.0976 74.8196 94.2307 74.4983 94.4675 74.2615C94.7043 74.0247 95.0256 73.8916 95.3605 73.8916Z" fill="white"/>
<path d="M43.5826 76.4174H46.1084V78.9431H43.5826V76.4174Z" fill="white"/>
<path d="M46.1084 76.4174H48.6341V78.9431H46.1084V76.4174Z" fill="white"/>
<path d="M48.6341 76.4174C49.304 76.4174 49.9464 76.6835 50.4201 77.1571C50.8938 77.6308 51.1599 78.2733 51.1599 78.9431H48.6341V76.4174Z" fill="white"/>
<path d="M61.2629 77.6802C61.2629 77.3453 61.3959 77.0241 61.6328 76.7873C61.8696 76.5504 62.1908 76.4174 62.5257 76.4174C62.8607 76.4174 63.1819 76.5504 63.4187 76.7873C63.6556 77.0241 63.7886 77.3453 63.7886 77.6802V78.9431H61.2629V77.6802Z" fill="white"/>
<path d="M66.3144 76.4174H68.8401V78.9431H66.3144V76.4174Z" fill="white"/>
<path d="M68.8401 76.4174H71.3659V78.9431H68.8401V76.4174Z" fill="white"/>
<path d="M73.8916 76.4174H76.4174V78.9431H73.8916V76.4174Z" fill="white"/>
<path d="M83.9946 76.4174H86.5204V78.9431H83.9946V76.4174Z" fill="white"/>
<path d="M86.5204 76.4174H89.0461V78.9431H86.5204V76.4174Z" fill="white"/>
<path d="M89.0461 76.4174H91.5719V78.9431H89.0461V76.4174Z" fill="white"/>
<path d="M92.8347 76.4174C93.1697 76.4174 93.4909 76.5504 93.7277 76.7873C93.9646 77.0241 94.0976 77.3453 94.0976 77.6802C94.0976 78.0152 93.9646 78.3364 93.7277 78.5732C93.4909 78.8101 93.1697 78.9431 92.8347 78.9431H91.5719V76.4174H92.8347Z" fill="white"/>
<path d="M23.3766 81.4689C23.3766 80.799 23.6427 80.1566 24.1164 79.6829C24.5901 79.2092 25.2325 78.9431 25.9024 78.9431V81.4689H23.3766Z" fill="white"/>
<path d="M25.9024 78.9431H28.4281V81.4689H25.9024V78.9431Z" fill="white"/>
<path d="M28.4281 78.9431H30.9539V81.4689H28.4281V78.9431Z" fill="white"/>
<path d="M30.9539 78.9431H33.4796V81.4689H30.9539V78.9431Z" fill="white"/>
<path d="M33.4796 78.9431H36.0054V81.4689H33.4796V78.9431Z" fill="white"/>
<path d="M36.0054 78.9431H38.5311V81.4689H36.0054V78.9431Z" fill="white"/>
<path d="M38.5311 78.9431C39.201 78.9431 39.8434 79.2092 40.3171 79.6829C40.7908 80.1566 41.0569 80.799 41.0569 81.4689H38.5311V78.9431Z" fill="white"/>
<path d="M43.5826 78.9431C43.5826 79.613 43.8487 80.2554 44.3224 80.7291C44.7961 81.2028 45.4385 81.4689 46.1084 81.4689V78.9431H43.5826Z" fill="white"/>
<path d="M46.1084 78.9431H48.6341V81.4689H46.1084V78.9431Z" fill="white"/>
<path d="M48.6341 81.4689C49.304 81.4689 49.9464 81.2028 50.4201 80.7291C50.8938 80.2554 51.1599 79.613 51.1599 78.9431H48.6341V81.4689Z" fill="white"/>
<path d="M61.2629 78.9431H63.7886V81.4689H61.2629V78.9431Z" fill="white"/>
<path d="M66.3144 78.9431C66.3144 79.613 66.5805 80.2554 67.0541 80.7291C67.5278 81.2028 68.1702 81.4689 68.8401 81.4689V78.9431H66.3144Z" fill="white"/>
<path d="M68.8401 78.9431H71.3659V81.4689H68.8401V78.9431Z" fill="white"/>
<path d="M71.3659 78.9431H73.8916V81.4689H71.3659V78.9431Z" fill="white"/>
<path d="M73.8916 78.9431H76.4174V81.4689H73.8916V78.9431Z" fill="white"/>
<path d="M80.206 78.9431C80.5409 78.9431 80.8621 79.0762 81.099 79.313C81.3358 79.5498 81.4689 79.8711 81.4689 80.206C81.4689 80.5409 81.3358 80.8622 81.099 81.099C80.8621 81.3358 80.5409 81.4689 80.206 81.4689C79.8711 81.4689 79.5498 81.3358 79.313 81.099C79.0762 80.8622 78.9431 80.5409 78.9431 80.206C78.9431 79.8711 79.0762 79.5498 79.313 79.313C79.5498 79.0762 79.8711 78.9431 80.206 78.9431Z" fill="white"/>
<path d="M83.9946 78.9431H86.5204V81.4689H83.9946V78.9431Z" fill="white"/>
<path d="M89.0461 80.206C89.0461 80.5409 89.1792 80.8622 89.416 81.099C89.6528 81.3358 89.9741 81.4689 90.309 81.4689C90.6439 81.4689 90.9651 81.3358 91.202 81.099C91.4388 80.8622 91.5719 80.5409 91.5719 80.206V78.9431H89.0461V80.206Z" fill="white"/>
<path d="M23.3766 81.4689H25.9024V83.9946H23.3766V81.4689Z" fill="white"/>
<path d="M38.5311 81.4689H41.0569V83.9946H38.5311V81.4689Z" fill="white"/>
<path d="M52.4227 81.4689C52.0878 81.4689 51.7666 81.6019 51.5298 81.8388C51.2929 82.0756 51.1599 82.3968 51.1599 82.7318C51.1599 83.0667 51.2929 83.3879 51.5298 83.6247C51.7666 83.8616 52.0878 83.9946 52.4227 83.9946H53.6856V81.4689H52.4227Z" fill="white"/>
<path d="M53.6856 81.4689C54.3555 81.4689 54.9979 81.735 55.4716 82.2087C55.9453 82.6823 56.2114 83.3248 56.2114 83.9946H53.6856V81.4689Z" fill="white"/>
<path d="M58.7371 83.9946C58.7371 83.3248 59.0032 82.6823 59.4769 82.2087C59.9506 81.735 60.593 81.4689 61.2629 81.4689V83.9946H58.7371Z" fill="white"/>
<path d="M61.2629 83.9946C61.9327 83.9946 62.5752 83.7285 63.0488 83.2548C63.5225 82.7812 63.7886 82.1387 63.7886 81.4689H61.2629V83.9946Z" fill="white"/>
<path d="M71.3659 81.4689H73.8916V83.9946H71.3659V81.4689Z" fill="white"/>
<path d="M73.8916 81.4689H76.4174V83.9946H73.8916V81.4689Z" fill="white"/>
<path d="M83.9946 81.4689H86.5204V83.9946H83.9946V81.4689Z" fill="white"/>
<path d="M87.7832 81.4689C88.1182 81.4689 88.4394 81.6019 88.6762 81.8388C88.9131 82.0756 89.0461 82.3968 89.0461 82.7318C89.0461 83.0667 88.9131 83.3879 88.6762 83.6247C88.4394 83.8616 88.1182 83.9946 87.7832 83.9946H86.5204V81.4689H87.7832Z" fill="white"/>
<path d="M91.5719 83.9946C91.5719 83.3248 91.838 82.6823 92.3116 82.2087C92.7853 81.735 93.4277 81.4689 94.0976 81.4689V83.9946H91.5719Z" fill="white"/>
<path d="M94.0976 81.4689C94.7675 81.4689 95.4099 81.735 95.8836 82.2087C96.3573 82.6823 96.6234 83.3248 96.6234 83.9946H94.0976V81.4689Z" fill="white"/>
<path d="M23.3766 83.9946H25.9024V86.5204H23.3766V83.9946Z" fill="white"/>
<path d="M28.4281 86.5204C28.4281 85.8505 28.6942 85.2081 29.1679 84.7344C29.6416 84.2607 30.284 83.9946 30.9539 83.9946V86.5204H28.4281Z" fill="white"/>
<path d="M30.9539 83.9946H33.4796V86.5204H30.9539V83.9946Z" fill="white"/>
<path d="M33.4796 83.9946C34.1495 83.9946 34.7919 84.2607 35.2656 84.7344C35.7393 85.2081 36.0054 85.8505 36.0054 86.5204H33.4796V83.9946Z" fill="white"/>
<path d="M38.5311 83.9946H41.0569V86.5204H38.5311V83.9946Z" fill="white"/>
<path d="M43.5826 86.5204C43.5826 85.8505 43.8487 85.2081 44.3224 84.7344C44.7961 84.2607 45.4385 83.9946 46.1084 83.9946V86.5204H43.5826Z" fill="white"/>
<path d="M46.1084 83.9946C46.7782 83.9946 47.4207 84.2607 47.8943 84.7344C48.368 85.2081 48.6341 85.8505 48.6341 86.5204H46.1084V83.9946Z" fill="white"/>
<path d="M53.6856 85.2575C53.6856 85.5924 53.8187 85.9136 54.0555 86.1505C54.2923 86.3873 54.6136 86.5204 54.9485 86.5204C55.2834 86.5204 55.6046 86.3873 55.8415 86.1505C56.0783 85.9136 56.2114 85.5924 56.2114 85.2575V83.9946H53.6856V85.2575Z" fill="white"/>
<path d="M58.7371 83.9946H61.2629V86.5204H58.7371V83.9946Z" fill="white"/>
<path d="M63.7886 86.5204C63.7886 85.8505 64.0547 85.2081 64.5284 84.7344C65.0021 84.2607 65.6445 83.9946 66.3144 83.9946V86.5204H63.7886Z" fill="white"/>
<path d="M66.3144 83.9946H68.8401V86.5204H66.3144V83.9946Z" fill="white"/>
<path d="M68.8401 83.9946H71.3659V86.5204H68.8401V83.9946Z" fill="white"/>
<path d="M71.3659 83.9946H73.8916V86.5204H71.3659V83.9946Z" fill="white"/>
<path d="M73.8916 83.9946H76.4174V86.5204H73.8916V83.9946Z" fill="white"/>
<path d="M76.4174 83.9946H78.9431V86.5204H76.4174V83.9946Z" fill="white"/>
<path d="M78.9431 83.9946H81.4689V86.5204H78.9431V83.9946Z" fill="white"/>
<path d="M81.4689 83.9946H83.9946V86.5204H81.4689V83.9946Z" fill="white"/>
<path d="M83.9946 86.5204C84.6645 86.5204 85.3069 86.2543 85.7806 85.7806C86.2543 85.3069 86.5204 84.6645 86.5204 83.9946H83.9946V86.5204Z" fill="white"/>
<path d="M91.5719 83.9946H94.0976V86.5204H91.5719V83.9946Z" fill="white"/>
<path d="M94.0976 86.5204C94.7675 86.5204 95.4099 86.2543 95.8836 85.7806C96.3573 85.3069 96.6234 84.6645 96.6234 83.9946H94.0976V86.5204Z" fill="white"/>
<path d="M23.3766 86.5204H25.9024V89.0461H23.3766V86.5204Z" fill="white"/>
<path d="M28.4281 86.5204H30.9539V89.0461H28.4281V86.5204Z" fill="white"/>
<path d="M30.9539 86.5204H33.4796V89.0461H30.9539V86.5204Z" fill="white"/>
<path d="M33.4796 86.5204H36.0054V89.0461H33.4796V86.5204Z" fill="white"/>
<path d="M38.5311 86.5204H41.0569V89.0461H38.5311V86.5204Z" fill="white"/>
<path d="M43.5826 86.5204C43.5826 87.1902 43.8487 87.8327 44.3224 88.3064C44.7961 88.78 45.4385 89.0461 46.1084 89.0461V86.5204H43.5826Z" fill="white"/>
<path d="M46.1084 89.0461C46.7782 89.0461 47.4207 88.78 47.8943 88.3064C48.368 87.8327 48.6341 87.1902 48.6341 86.5204H46.1084V89.0461Z" fill="white"/>
<path d="M51.1599 87.7833C51.1599 87.4483 51.2929 87.1271 51.5298 86.8903C51.7666 86.6534 52.0878 86.5204 52.4227 86.5204C52.7577 86.5204 53.0789 86.6534 53.3157 86.8903C53.5526 87.1271 53.6856 87.4483 53.6856 87.7833V89.0461H51.1599V87.7833Z" fill="white"/>
<path d="M58.7371 86.5204H61.2629V89.0461H58.7371V86.5204Z" fill="white"/>
<path d="M63.7886 87.7833C63.7886 88.1182 63.9217 88.4394 64.1585 88.6762C64.3953 88.9131 64.7166 89.0461 65.0515 89.0461C65.3864 89.0461 65.7076 88.9131 65.9445 88.6762C66.1813 88.4394 66.3144 88.1182 66.3144 87.7833V86.5204H63.7886V87.7833Z" fill="white"/>
<path d="M81.4689 86.5204H83.9946V89.0461H81.4689V86.5204Z" fill="white"/>
<path d="M90.309 86.5204C89.9741 86.5204 89.6528 86.6534 89.416 86.8903C89.1792 87.1271 89.0461 87.4483 89.0461 87.7833C89.0461 88.1182 89.1792 88.4394 89.416 88.6762C89.6528 88.9131 89.9741 89.0461 90.309 89.0461H91.5719V86.5204H90.309Z" fill="white"/>
<path d="M91.5719 86.5204H94.0976V89.0461H91.5719V86.5204Z" fill="white"/>
<path d="M23.3766 89.0461H25.9024V91.5719H23.3766V89.0461Z" fill="white"/>
<path d="M28.4281 89.0461C28.4281 89.716 28.6942 90.3584 29.1679 90.8321C29.6416 91.3058 30.284 91.5719 30.9539 91.5719V89.0461H28.4281Z" fill="white"/>
<path d="M30.9539 89.0461H33.4796V91.5719H30.9539V89.0461Z" fill="white"/>
<path d="M33.4796 91.5719C34.1495 91.5719 34.7919 91.3058 35.2656 90.8321C35.7393 90.3584 36.0054 89.716 36.0054 89.0461H33.4796V91.5719Z" fill="white"/>
<path d="M38.5311 89.0461H41.0569V91.5719H38.5311V89.0461Z" fill="white"/>
<path d="M49.897 89.0461C49.5621 89.0461 49.2408 89.1792 49.004 89.416C48.7672 89.6528 48.6341 89.9741 48.6341 90.309C48.6341 90.6439 48.7672 90.9652 49.004 91.202C49.2408 91.4388 49.5621 91.5719 49.897 91.5719H51.1599V89.0461H49.897Z" fill="white"/>
<path d="M51.1599 89.0461H53.6856V91.5719H51.1599V89.0461Z" fill="white"/>
<path d="M53.6856 89.0461C54.3555 89.0461 54.9979 89.3122 55.4716 89.7859C55.9453 90.2596 56.2114 90.902 56.2114 91.5719H53.6856V89.0461Z" fill="white"/>
<path d="M58.7371 89.0461H61.2629V91.5719H58.7371V89.0461Z" fill="white"/>
<path d="M61.2629 89.0461C61.9327 89.0461 62.5752 89.3122 63.0488 89.7859C63.5225 90.2596 63.7886 90.902 63.7886 91.5719H61.2629V89.0461Z" fill="white"/>
<path d="M67.5772 89.0461C67.2423 89.0461 66.9211 89.1792 66.6843 89.416C66.4474 89.6528 66.3144 89.9741 66.3144 90.309C66.3144 90.6439 66.4474 90.9652 66.6843 91.202C66.9211 91.4388 67.2423 91.5719 67.5772 91.5719H68.8401V89.0461H67.5772Z" fill="white"/>
<path d="M68.8401 89.0461C69.51 89.0461 70.1524 89.3122 70.6261 89.7859C71.0998 90.2596 71.3659 90.902 71.3659 91.5719H68.8401V89.0461Z" fill="white"/>
<path d="M75.1545 89.0461C74.8196 89.0461 74.4983 89.1792 74.2615 89.416C74.0247 89.6528 73.8916 89.9741 73.8916 90.309C73.8916 90.6439 74.0247 90.9652 74.2615 91.202C74.4983 91.4388 74.8196 91.5719 75.1545 91.5719H76.4174V89.0461H75.1545Z" fill="white"/>
<path d="M76.4174 89.0461C77.0872 89.0461 77.7297 89.3122 78.2033 89.7859C78.677 90.2596 78.9431 90.902 78.9431 91.5719H76.4174V89.0461Z" fill="white"/>
<path d="M81.4689 89.0461C81.4689 89.716 81.735 90.3584 82.2086 90.8321C82.6823 91.3058 83.3247 91.5719 83.9946 91.5719V89.0461H81.4689Z" fill="white"/>
<path d="M83.9946 89.0461H86.5204V91.5719H83.9946V89.0461Z" fill="white"/>
<path d="M86.5204 89.0461C87.1902 89.0461 87.8327 89.3122 88.3063 89.7859C88.78 90.2596 89.0461 90.902 89.0461 91.5719H86.5204V89.0461Z" fill="white"/>
<path d="M91.5719 89.0461C91.5719 89.716 91.838 90.3584 92.3116 90.8321C92.7853 91.3058 93.4277 91.5719 94.0976 91.5719V89.0461H91.5719Z" fill="white"/>
<path d="M94.0976 89.0461C94.7675 89.0461 95.4099 89.3122 95.8836 89.7859C96.3573 90.2596 96.6234 90.902 96.6234 91.5719H94.0976V89.0461Z" fill="white"/>
<path d="M23.3766 91.5719H25.9024V94.0976H23.3766V91.5719Z" fill="white"/>
<path d="M38.5311 91.5719H41.0569V94.0976H38.5311V91.5719Z" fill="white"/>
<path d="M47.3712 91.5719C47.7062 91.5719 48.0274 91.7049 48.2642 91.9418C48.5011 92.1786 48.6341 92.4998 48.6341 92.8347C48.6341 93.1697 48.5011 93.4909 48.2642 93.7277C48.0274 93.9646 47.7062 94.0976 47.3712 94.0976C47.0363 94.0976 46.7151 93.9646 46.4783 93.7277C46.2414 93.4909 46.1084 93.1697 46.1084 92.8347C46.1084 92.4998 46.2414 92.1786 46.4783 91.9418C46.7151 91.7049 47.0363 91.5719 47.3712 91.5719Z" fill="white"/>
<path d="M53.6856 91.5719H56.2114V94.0976H53.6856V91.5719Z" fill="white"/>
<path d="M56.2114 91.5719H58.7371V94.0976H56.2114V91.5719Z" fill="white"/>
<path d="M58.7371 91.5719H61.2629V94.0976H58.7371V91.5719Z" fill="white"/>
<path d="M61.2629 91.5719H63.7886V94.0976H61.2629V91.5719Z" fill="white"/>
<path d="M65.0515 91.5719C65.3864 91.5719 65.7076 91.7049 65.9445 91.9418C66.1813 92.1786 66.3144 92.4998 66.3144 92.8347C66.3144 93.1697 66.1813 93.4909 65.9445 93.7277C65.7076 93.9646 65.3864 94.0976 65.0515 94.0976H63.7886V91.5719H65.0515Z" fill="white"/>
<path d="M68.8401 92.8347C68.8401 93.1697 68.9732 93.4909 69.21 93.7277C69.4468 93.9646 69.7681 94.0976 70.103 94.0976C70.4379 94.0976 70.7591 93.9646 70.996 93.7277C71.2328 93.4909 71.3659 93.1697 71.3659 92.8347V91.5719H68.8401V92.8347Z" fill="white"/>
<path d="M76.4174 92.8347C76.4174 93.1697 76.5504 93.4909 76.7873 93.7277C77.0241 93.9646 77.3453 94.0976 77.6802 94.0976C78.0152 94.0976 78.3364 93.9646 78.5732 93.7277C78.8101 93.4909 78.9431 93.1697 78.9431 92.8347V91.5719H76.4174V92.8347Z" fill="white"/>
<path d="M83.9946 91.5719H86.5204V94.0976H83.9946V91.5719Z" fill="white"/>
<path d="M86.5204 91.5719H89.0461V94.0976H86.5204V91.5719Z" fill="white"/>
<path d="M90.309 91.5719C90.6439 91.5719 90.9651 91.7049 91.202 91.9418C91.4388 92.1786 91.5719 92.4998 91.5719 92.8347C91.5719 93.1697 91.4388 93.4909 91.202 93.7277C90.9651 93.9646 90.6439 94.0976 90.309 94.0976H89.0461V91.5719H90.309Z" fill="white"/>
<path d="M94.0976 92.8347C94.0976 93.1697 94.2307 93.4909 94.4675 93.7277C94.7043 93.9646 95.0256 94.0976 95.3605 94.0976C95.6954 94.0976 96.0166 93.9646 96.2535 93.7277C96.4903 93.4909 96.6234 93.1697 96.6234 92.8347V91.5719H94.0976V92.8347Z" fill="white"/>
<path d="M23.3766 94.0976C23.3766 94.7675 23.6427 95.4099 24.1164 95.8836C24.5901 96.3573 25.2325 96.6234 25.9024 96.6234V94.0976H23.3766Z" fill="white"/>
<path d="M25.9024 94.0976H28.4281V96.6234H25.9024V94.0976Z" fill="white"/>
<path d="M28.4281 94.0976H30.9539V96.6234H28.4281V94.0976Z" fill="white"/>
<path d="M30.9539 94.0976H33.4796V96.6234H30.9539V94.0976Z" fill="white"/>
<path d="M33.4796 94.0976H36.0054V96.6234H33.4796V94.0976Z" fill="white"/>
<path d="M36.0054 94.0976H38.5311V96.6234H36.0054V94.0976Z" fill="white"/>
<path d="M38.5311 96.6234C39.201 96.6234 39.8434 96.3573 40.3171 95.8836C40.7908 95.4099 41.0569 94.7675 41.0569 94.0976H38.5311V96.6234Z" fill="white"/>
<path d="M53.6856 94.0976C53.6856 94.7675 53.9517 95.4099 54.4254 95.8836C54.8991 96.3573 55.5415 96.6234 56.2114 96.6234V94.0976H53.6856Z" fill="white"/>
<path d="M56.2114 96.6234C56.8812 96.6234 57.5237 96.3573 57.9973 95.8836C58.471 95.4099 58.7371 94.7675 58.7371 94.0976H56.2114V96.6234Z" fill="white"/>
<path d="M61.2629 95.3605C61.2629 95.6954 61.3959 96.0166 61.6328 96.2535C61.8696 96.4903 62.1908 96.6234 62.5257 96.6234C62.8607 96.6234 63.1819 96.4903 63.4187 96.2535C63.6556 96.0166 63.7886 95.6954 63.7886 95.3605V94.0976H61.2629V95.3605Z" fill="white"/>
<path d="M72.6287 94.0976C72.2938 94.0976 71.9726 94.2307 71.7358 94.4675C71.4989 94.7043 71.3659 95.0256 71.3659 95.3605C71.3659 95.6954 71.4989 96.0166 71.7358 96.2535C71.9726 96.4903 72.2938 96.6234 72.6287 96.6234H73.8916V94.0976H72.6287Z" fill="white"/>
<path d="M75.1545 94.0976C75.4894 94.0976 75.8106 94.2307 76.0475 94.4675C76.2843 94.7043 76.4174 95.0256 76.4174 95.3605C76.4174 95.6954 76.2843 96.0166 76.0475 96.2535C75.8106 96.4903 75.4894 96.6234 75.1545 96.6234H73.8916V94.0976H75.1545Z" fill="white"/>
<path d="M80.206 94.0976C79.8711 94.0976 79.5498 94.2307 79.313 94.4675C79.0762 94.7043 78.9431 95.0256 78.9431 95.3605C78.9431 95.6954 79.0762 96.0166 79.313 96.2535C79.5498 96.4903 79.8711 96.6234 80.206 96.6234H81.4689V94.0976H80.206Z" fill="white"/>
<path d="M81.4689 94.0976H83.9946V96.6234H81.4689V94.0976Z" fill="white"/>
<path d="M83.9946 94.0976H86.5204V96.6234H83.9946V94.0976Z" fill="white"/>
<path d="M86.5204 96.6234C87.1902 96.6234 87.8327 96.3573 88.3063 95.8836C88.78 95.4099 89.0461 94.7675 89.0461 94.0976H86.5204V96.6234Z" fill="white"/>
<defs>
<linearGradient id="paint0_linear_20_20" x1="34.4404" y1="3.03249" x2="85.7762" y2="114.368" gradientUnits="userSpaceOnUse">
<stop stop-color="#4602D8"/>
<stop offset="1" stop-color="#37017C"/>
</linearGradient>
</defs>
</svg>
