<svg width="297" height="126" viewBox="0 0 297 126" fill="none" xmlns="http://www.w3.org/2000/svg">
<circle cx="63" cy="63" r="61.5" fill="url(#paint0_linear_20_20)" stroke="#F6FAFF" stroke-width="3"/>
<path d="M26.3766 28.5257C26.3766 27.8559 26.6427 27.2134 27.1164 26.7398C27.5901 26.2661 28.2325 26 28.9024 26V28.5257H26.3766Z" fill="white"/>
<path d="M28.9024 26H31.4281V28.5257H28.9024V26Z" fill="white"/>
<path d="M31.4281 26H33.9539V28.5257H31.4281V26Z" fill="white"/>
<path d="M33.9539 26H36.4796V28.5257H33.9539V26Z" fill="white"/>
<path d="M36.4796 26H39.0054V28.5257H36.4796V26Z" fill="white"/>
<path d="M39.0054 26H41.5311V28.5257H39.0054V26Z" fill="white"/>
<path d="M41.5311 26C42.201 26 42.8434 26.2661 43.3171 26.7398C43.7908 27.2134 44.0569 27.8559 44.0569 28.5257H41.5311V26Z" fill="white"/>
<path d="M50.3712 26C50.7062 26 51.0274 26.1331 51.2642 26.3699C51.5011 26.6067 51.6341 26.9279 51.6341 27.2629C51.6341 27.5978 51.5011 27.919 51.2642 28.1559C51.0274 28.3927 50.7062 28.5257 50.3712 28.5257C50.0363 28.5257 49.7151 28.3927 49.4783 28.1559C49.2414 27.919 49.1084 27.5978 49.1084 27.2629C49.1084 26.9279 49.2414 26.6067 49.4783 26.3699C49.7151 26.1331 50.0363 26 50.3712 26Z" fill="white"/>
<path d="M56.6856 28.5257C56.6856 27.8559 56.9517 27.2134 57.4254 26.7398C57.8991 26.2661 58.5415 26 59.2114 26V28.5257H56.6856Z" fill="white"/>
<path d="M59.2114 26H61.7371V28.5257H59.2114V26Z" fill="white"/>
<path d="M63 26C63.3349 26 63.6561 26.1331 63.893 26.3699C64.1298 26.6067 64.2629 26.9279 64.2629 27.2629C64.2629 27.5978 64.1298 27.919 63.893 28.1559C63.6561 28.3927 63.3349 28.5257 63 28.5257H61.7371V26H63Z" fill="white"/>
<path d="M74.3659 28.5257C74.3659 27.8559 74.632 27.2134 75.1056 26.7398C75.5793 26.2661 76.2217 26 76.8916 26V28.5257H74.3659Z" fill="white"/>
<path d="M78.1545 26C78.4894 26 78.8106 26.1331 79.0475 26.3699C79.2843 26.6067 79.4174 26.9279 79.4174 27.2629C79.4174 27.5978 79.2843 27.919 79.0475 28.1559C78.8106 28.3927 78.4894 28.5257 78.1545 28.5257H76.8916V26H78.1545Z" fill="white"/>
<path d="M81.9431 28.5257C81.9431 27.8559 82.2092 27.2134 82.6829 26.7398C83.1566 26.2661 83.799 26 84.4689 26V28.5257H81.9431Z" fill="white"/>
<path d="M84.4689 26H86.9946V28.5257H84.4689V26Z" fill="white"/>
<path d="M86.9946 26H89.5204V28.5257H86.9946V26Z" fill="white"/>
<path d="M89.5204 26H92.0461V28.5257H89.5204V26Z" fill="white"/>
<path d="M92.0461 26H94.5719V28.5257H92.0461V26Z" fill="white"/>
<path d="M94.5719 26H97.0976V28.5257H94.5719V26Z" fill="white"/>
<path d="M97.0976 26C97.7675 26 98.4099 26.2661 98.8836 26.7398C99.3573 27.2134 99.6234 27.8559 99.6234 28.5257H97.0976V26Z" fill="white"/>
<path d="M26.3766 28.5257H28.9024V31.0515H26.3766V28.5257Z" fill="white"/>
<path d="M41.5311 28.5257H44.0569V31.0515H41.5311V28.5257Z" fill="white"/>
<path d="M56.6856 28.5257H59.2114V31.0515H56.6856V28.5257Z" fill="white"/>
<path d="M64.2629 31.0515C64.2629 30.3816 64.529 29.7392 65.0026 29.2655C65.4763 28.7919 66.1187 28.5257 66.7886 28.5257V31.0515H64.2629Z" fill="white"/>
<path d="M66.7886 28.5257H69.3144V31.0515H66.7886V28.5257Z" fill="white"/>
<path d="M70.5772 28.5257C70.9122 28.5257 71.2334 28.6588 71.4702 28.8956C71.7071 29.1325 71.8401 29.4537 71.8401 29.7886C71.8401 30.1236 71.7071 30.4448 71.4702 30.6816C71.2334 30.9184 70.9122 31.0515 70.5772 31.0515H69.3144V28.5257H70.5772Z" fill="white"/>
<path d="M74.3659 28.5257H76.8916V31.0515H74.3659V28.5257Z" fill="white"/>
<path d="M81.9431 28.5257H84.4689V31.0515H81.9431V28.5257Z" fill="white"/>
<path d="M97.0976 28.5257H99.6234V31.0515H97.0976V28.5257Z" fill="white"/>
<path d="M26.3766 31.0515H28.9024V33.5772H26.3766V31.0515Z" fill="white"/>
<path d="M31.4281 33.5772C31.4281 32.9074 31.6942 32.2649 32.1679 31.7913C32.6416 31.3176 33.284 31.0515 33.9539 31.0515V33.5772H31.4281Z" fill="white"/>
<path d="M33.9539 31.0515H36.4796V33.5772H33.9539V31.0515Z" fill="white"/>
<path d="M36.4796 31.0515C37.1495 31.0515 37.7919 31.3176 38.2656 31.7913C38.7393 32.2649 39.0054 32.9074 39.0054 33.5772H36.4796V31.0515Z" fill="white"/>
<path d="M41.5311 31.0515H44.0569V33.5772H41.5311V31.0515Z" fill="white"/>
<path d="M46.5826 32.3144C46.5826 31.9794 46.7157 31.6582 46.9525 31.4214C47.1893 31.1846 47.5106 31.0515 47.8455 31.0515C48.1804 31.0515 48.5016 31.1846 48.7385 31.4214C48.9753 31.6582 49.1084 31.9794 49.1084 32.3144V33.5772H46.5826V32.3144Z" fill="white"/>
<path d="M56.6856 32.3144C56.6856 32.6493 56.8187 32.9705 57.0555 33.2074C57.2923 33.4442 57.6136 33.5772 57.9485 33.5772C58.2834 33.5772 58.6046 33.4442 58.8415 33.2074C59.0783 32.9705 59.2114 32.6493 59.2114 32.3144V31.0515H56.6856V32.3144Z" fill="white"/>
<path d="M61.7371 33.5772C61.7371 32.9074 62.0032 32.2649 62.4769 31.7913C62.9506 31.3176 63.593 31.0515 64.2629 31.0515V33.5772H61.7371Z" fill="white"/>
<path d="M64.2629 31.0515H66.7886V33.5772H64.2629V31.0515Z" fill="white"/>
<path d="M66.7886 33.5772C67.4585 33.5772 68.1009 33.3111 68.5746 32.8375C69.0483 32.3638 69.3144 31.7214 69.3144 31.0515H66.7886V33.5772Z" fill="white"/>
<path d="M73.103 31.0515C72.7681 31.0515 72.4468 31.1846 72.21 31.4214C71.9732 31.6582 71.8401 31.9794 71.8401 32.3144C71.8401 32.6493 71.9732 32.9705 72.21 33.2074C72.4468 33.4442 72.7681 33.5772 73.103 33.5772H74.3659V31.0515H73.103Z" fill="white"/>
<path d="M74.3659 33.5772C75.0357 33.5772 75.6782 33.3111 76.1518 32.8375C76.6255 32.3638 76.8916 31.7214 76.8916 31.0515H74.3659V33.5772Z" fill="white"/>
<path d="M81.9431 31.0515H84.4689V33.5772H81.9431V31.0515Z" fill="white"/>
<path d="M86.9946 33.5772C86.9946 32.9074 87.2607 32.2649 87.7344 31.7913C88.2081 31.3176 88.8505 31.0515 89.5204 31.0515V33.5772H86.9946Z" fill="white"/>
<path d="M89.5204 31.0515H92.0461V33.5772H89.5204V31.0515Z" fill="white"/>
<path d="M92.0461 31.0515C92.716 31.0515 93.3584 31.3176 93.8321 31.7913C94.3058 32.2649 94.5719 32.9074 94.5719 33.5772H92.0461V31.0515Z" fill="white"/>
<path d="M97.0976 31.0515H99.6234V33.5772H97.0976V31.0515Z" fill="white"/>
<path d="M26.3766 33.5772H28.9024V36.103H26.3766V33.5772Z" fill="white"/>
<path d="M31.4281 33.5772H33.9539V36.103H31.4281V33.5772Z" fill="white"/>
<path d="M33.9539 33.5772H36.4796V36.103H33.9539V33.5772Z" fill="white"/>
<path d="M36.4796 33.5772H39.0054V36.103H36.4796V33.5772Z" fill="white"/>
<path d="M41.5311 33.5772H44.0569V36.103H41.5311V33.5772Z" fill="white"/>
<path d="M46.5826 33.5772C46.5826 34.2471 46.8487 34.8896 47.3224 35.3632C47.7961 35.8369 48.4385 36.103 49.1084 36.103V33.5772H46.5826Z" fill="white"/>
<path d="M49.1084 33.5772H51.6341V36.103H49.1084V33.5772Z" fill="white"/>
<path d="M51.6341 33.5772H54.1599V36.103H51.6341V33.5772Z" fill="white"/>
<path d="M54.1599 33.5772C54.8297 33.5772 55.4722 33.8434 55.9458 34.317C56.4195 34.7907 56.6856 35.4331 56.6856 36.103H54.1599V33.5772Z" fill="white"/>
<path d="M61.7371 34.8401C61.7371 35.1751 61.8702 35.4963 62.107 35.7331C62.3438 35.9699 62.6651 36.103 63 36.103C63.3349 36.103 63.6561 35.9699 63.893 35.7331C64.1298 35.4963 64.2629 35.1751 64.2629 34.8401V33.5772H61.7371V34.8401Z" fill="white"/>
<path d="M70.5772 33.5772C70.9122 33.5772 71.2334 33.7103 71.4702 33.9471C71.7071 34.184 71.8401 34.5052 71.8401 34.8401C71.8401 35.1751 71.7071 35.4963 71.4702 35.7331C71.2334 35.9699 70.9122 36.103 70.5772 36.103C70.2423 36.103 69.9211 35.9699 69.6843 35.7331C69.4474 35.4963 69.3144 35.1751 69.3144 34.8401C69.3144 34.5052 69.4474 34.184 69.6843 33.9471C69.9211 33.7103 70.2423 33.5772 70.5772 33.5772Z" fill="white"/>
<path d="M78.1545 33.5772C78.4894 33.5772 78.8106 33.7103 79.0475 33.9471C79.2843 34.184 79.4174 34.5052 79.4174 34.8401C79.4174 35.1751 79.2843 35.4963 79.0475 35.7331C78.8106 35.9699 78.4894 36.103 78.1545 36.103C77.8196 36.103 77.4983 35.9699 77.2615 35.7331C77.0247 35.4963 76.8916 35.1751 76.8916 34.8401C76.8916 34.5052 77.0247 34.184 77.2615 33.9471C77.4983 33.7103 77.8196 33.5772 78.1545 33.5772Z" fill="white"/>
<path d="M81.9431 33.5772H84.4689V36.103H81.9431V33.5772Z" fill="white"/>
<path d="M86.9946 33.5772H89.5204V36.103H86.9946V33.5772Z" fill="white"/>
<path d="M89.5204 33.5772H92.0461V36.103H89.5204V33.5772Z" fill="white"/>
<path d="M92.0461 33.5772H94.5719V36.103H92.0461V33.5772Z" fill="white"/>
<path d="M97.0976 33.5772H99.6234V36.103H97.0976V33.5772Z" fill="white"/>
<path d="M26.3766 36.103H28.9024V38.6287H26.3766V36.103Z" fill="white"/>
<path d="M31.4281 36.103C31.4281 36.7729 31.6942 37.4153 32.1679 37.889C32.6416 38.3626 33.284 38.6287 33.9539 38.6287V36.103H31.4281Z" fill="white"/>
<path d="M33.9539 36.103H36.4796V38.6287H33.9539V36.103Z" fill="white"/>
<path d="M36.4796 38.6287C37.1495 38.6287 37.7919 38.3626 38.2656 37.889C38.7393 37.4153 39.0054 36.7729 39.0054 36.103H36.4796V38.6287Z" fill="white"/>
<path d="M41.5311 36.103H44.0569V38.6287H41.5311V36.103Z" fill="white"/>
<path d="M51.6341 36.103C51.6341 36.7729 51.9002 37.4153 52.3739 37.889C52.8476 38.3626 53.49 38.6287 54.1599 38.6287V36.103H51.6341Z" fill="white"/>
<path d="M54.1599 36.103H56.6856V38.6287H54.1599V36.103Z" fill="white"/>
<path d="M57.9485 36.103C58.2834 36.103 58.6046 36.2361 58.8415 36.4729C59.0783 36.7097 59.2114 37.0309 59.2114 37.3659C59.2114 37.7008 59.0783 38.022 58.8415 38.2589C58.6046 38.4957 58.2834 38.6287 57.9485 38.6287H56.6856V36.103H57.9485Z" fill="white"/>
<path d="M73.103 36.103C72.7681 36.103 72.4468 36.2361 72.21 36.4729C71.9732 36.7097 71.8401 37.0309 71.8401 37.3659C71.8401 37.7008 71.9732 38.022 72.21 38.2589C72.4468 38.4957 72.7681 38.6287 73.103 38.6287H74.3659V36.103H73.103Z" fill="white"/>
<path d="M75.6287 36.103C75.9637 36.103 76.2849 36.2361 76.5217 36.4729C76.7586 36.7097 76.8916 37.0309 76.8916 37.3659C76.8916 37.7008 76.7586 38.022 76.5217 38.2589C76.2849 38.4957 75.9637 38.6287 75.6287 38.6287H74.3659V36.103H75.6287Z" fill="white"/>
<path d="M81.9431 36.103H84.4689V38.6287H81.9431V36.103Z" fill="white"/>
<path d="M86.9946 36.103C86.9946 36.7729 87.2607 37.4153 87.7344 37.889C88.2081 38.3626 88.8505 38.6287 89.5204 38.6287V36.103H86.9946Z" fill="white"/>
<path d="M89.5204 36.103H92.0461V38.6287H89.5204V36.103Z" fill="white"/>
<path d="M92.0461 38.6287C92.716 38.6287 93.3584 38.3626 93.8321 37.889C94.3058 37.4153 94.5719 36.7729 94.5719 36.103H92.0461V38.6287Z" fill="white"/>
<path d="M97.0976 36.103H99.6234V38.6287H97.0976V36.103Z" fill="white"/>
<path d="M26.3766 38.6287H28.9024V41.1545H26.3766V38.6287Z" fill="white"/>
<path d="M41.5311 38.6287H44.0569V41.1545H41.5311V38.6287Z" fill="white"/>
<path d="M50.3712 38.6287C50.7062 38.6287 51.0274 38.7618 51.2642 38.9986C51.5011 39.2355 51.6341 39.5567 51.6341 39.8916C51.6341 40.2266 51.5011 40.5478 51.2642 40.7846C51.0274 41.0214 50.7062 41.1545 50.3712 41.1545C50.0363 41.1545 49.7151 41.0214 49.4783 40.7846C49.2414 40.5478 49.1084 40.2266 49.1084 39.8916C49.1084 39.5567 49.2414 39.2355 49.4783 38.9986C49.7151 38.7618 50.0363 38.6287 50.3712 38.6287Z" fill="white"/>
<path d="M54.1599 39.8916C54.1599 40.2266 54.2929 40.5478 54.5298 40.7846C54.7666 41.0214 55.0878 41.1545 55.4227 41.1545C55.7577 41.1545 56.0789 41.0214 56.3157 40.7846C56.5526 40.5478 56.6856 40.2266 56.6856 39.8916V38.6287H54.1599V39.8916Z" fill="white"/>
<path d="M60.4742 38.6287C60.8092 38.6287 61.1304 38.7618 61.3672 38.9986C61.6041 39.2355 61.7371 39.5567 61.7371 39.8916C61.7371 40.2266 61.6041 40.5478 61.3672 40.7846C61.1304 41.0214 60.8092 41.1545 60.4742 41.1545C60.1393 41.1545 59.8181 41.0214 59.5813 40.7846C59.3444 40.5478 59.2114 40.2266 59.2114 39.8916C59.2114 39.5567 59.3444 39.2355 59.5813 38.9986C59.8181 38.7618 60.1393 38.6287 60.4742 38.6287Z" fill="white"/>
<path d="M65.5257 38.6287C65.8607 38.6287 66.1819 38.7618 66.4187 38.9986C66.6556 39.2355 66.7886 39.5567 66.7886 39.8916C66.7886 40.2266 66.6556 40.5478 66.4187 40.7846C66.1819 41.0214 65.8607 41.1545 65.5257 41.1545C65.1908 41.1545 64.8696 41.0214 64.6328 40.7846C64.3959 40.5478 64.2629 40.2266 64.2629 39.8916C64.2629 39.5567 64.3959 39.2355 64.6328 38.9986C64.8696 38.7618 65.1908 38.6287 65.5257 38.6287Z" fill="white"/>
<path d="M76.8916 39.8916C76.8916 39.5567 77.0247 39.2355 77.2615 38.9986C77.4983 38.7618 77.8196 38.6287 78.1545 38.6287C78.4894 38.6287 78.8106 38.7618 79.0475 38.9986C79.2843 39.2355 79.4174 39.5567 79.4174 39.8916V41.1545H76.8916V39.8916Z" fill="white"/>
<path d="M81.9431 38.6287H84.4689V41.1545H81.9431V38.6287Z" fill="white"/>
<path d="M97.0976 38.6287H99.6234V41.1545H97.0976V38.6287Z" fill="white"/>
<path d="M26.3766 41.1545C26.3766 41.8244 26.6427 42.4668 27.1164 42.9405C27.5901 43.4141 28.2325 43.6803 28.9024 43.6803V41.1545H26.3766Z" fill="white"/>
<path d="M28.9024 41.1545H31.4281V43.6803H28.9024V41.1545Z" fill="white"/>
<path d="M31.4281 41.1545H33.9539V43.6803H31.4281V41.1545Z" fill="white"/>
<path d="M33.9539 41.1545H36.4796V43.6803H33.9539V41.1545Z" fill="white"/>
<path d="M36.4796 41.1545H39.0054V43.6803H36.4796V41.1545Z" fill="white"/>
<path d="M39.0054 41.1545H41.5311V43.6803H39.0054V41.1545Z" fill="white"/>
<path d="M41.5311 43.6803C42.201 43.6803 42.8434 43.4141 43.3171 42.9405C43.7908 42.4668 44.0569 41.8244 44.0569 41.1545H41.5311V43.6803Z" fill="white"/>
<path d="M47.8455 41.1545C48.1804 41.1545 48.5016 41.2876 48.7385 41.5244C48.9753 41.7612 49.1084 42.0824 49.1084 42.4174C49.1084 42.7523 48.9753 43.0735 48.7385 43.3104C48.5016 43.5472 48.1804 43.6803 47.8455 43.6803C47.5106 43.6803 47.1893 43.5472 46.9525 43.3104C46.7157 43.0735 46.5826 42.7523 46.5826 42.4174C46.5826 42.0824 46.7157 41.7612 46.9525 41.5244C47.1893 41.2876 47.5106 41.1545 47.8455 41.1545Z" fill="white"/>
<path d="M51.6341 42.4174C51.6341 42.0824 51.7672 41.7612 52.004 41.5244C52.2408 41.2876 52.5621 41.1545 52.897 41.1545C53.2319 41.1545 53.5531 41.2876 53.79 41.5244C54.0268 41.7612 54.1599 42.0824 54.1599 42.4174V43.6803H51.6341V42.4174Z" fill="white"/>
<path d="M56.6856 42.4174C56.6856 42.0824 56.8187 41.7612 57.0555 41.5244C57.2923 41.2876 57.6136 41.1545 57.9485 41.1545C58.2834 41.1545 58.6046 41.2876 58.8415 41.5244C59.0783 41.7612 59.2114 42.0824 59.2114 42.4174V43.6803H56.6856V42.4174Z" fill="white"/>
<path d="M61.7371 42.4174C61.7371 42.0824 61.8702 41.7612 62.107 41.5244C62.3438 41.2876 62.6651 41.1545 63 41.1545C63.3349 41.1545 63.6561 41.2876 63.893 41.5244C64.1298 41.7612 64.2629 42.0824 64.2629 42.4174V43.6803H61.7371V42.4174Z" fill="white"/>
<path d="M68.0515 41.1545C68.3864 41.1545 68.7076 41.2876 68.9445 41.5244C69.1813 41.7612 69.3144 42.0824 69.3144 42.4174C69.3144 42.7523 69.1813 43.0735 68.9445 43.3104C68.7076 43.5472 68.3864 43.6803 68.0515 43.6803C67.7166 43.6803 67.3953 43.5472 67.1585 43.3104C66.9217 43.0735 66.7886 42.7523 66.7886 42.4174C66.7886 42.0824 66.9217 41.7612 67.1585 41.5244C67.3953 41.2876 67.7166 41.1545 68.0515 41.1545Z" fill="white"/>
<path d="M71.8401 42.4174C71.8401 42.0824 71.9732 41.7612 72.21 41.5244C72.4468 41.2876 72.7681 41.1545 73.103 41.1545C73.4379 41.1545 73.7591 41.2876 73.996 41.5244C74.2328 41.7612 74.3659 42.0824 74.3659 42.4174V43.6803H71.8401V42.4174Z" fill="white"/>
<path d="M76.8916 41.1545H79.4174V43.6803H76.8916V41.1545Z" fill="white"/>
<path d="M81.9431 41.1545C81.9431 41.8244 82.2092 42.4668 82.6829 42.9405C83.1566 43.4141 83.799 43.6803 84.4689 43.6803V41.1545H81.9431Z" fill="white"/>
<path d="M84.4689 41.1545H86.9946V43.6803H84.4689V41.1545Z" fill="white"/>
<path d="M86.9946 41.1545H89.5204V43.6803H86.9946V41.1545Z" fill="white"/>
<path d="M89.5204 41.1545H92.0461V43.6803H89.5204V41.1545Z" fill="white"/>
<path d="M92.0461 41.1545H94.5719V43.6803H92.0461V41.1545Z" fill="white"/>
<path d="M94.5719 41.1545H97.0976V43.6803H94.5719V41.1545Z" fill="white"/>
<path d="M97.0976 43.6803C97.7675 43.6803 98.4099 43.4141 98.8836 42.9405C99.3573 42.4668 99.6234 41.8244 99.6234 41.1545H97.0976V43.6803Z" fill="white"/>
<path d="M49.1084 46.206C49.1084 45.5361 49.3745 44.8937 49.8481 44.42C50.3218 43.9464 50.9642 43.6803 51.6341 43.6803V46.206H49.1084Z" fill="white"/>
<path d="M51.6341 43.6803H54.1599V46.206H51.6341V43.6803Z" fill="white"/>
<path d="M56.6856 44.9431C56.6856 45.2781 56.8187 45.5993 57.0555 45.8361C57.2923 46.0729 57.6136 46.206 57.9485 46.206C58.2834 46.206 58.6046 46.0729 58.8415 45.8361C59.0783 45.5993 59.2114 45.2781 59.2114 44.9431V43.6803H56.6856V44.9431Z" fill="white"/>
<path d="M61.7371 44.9431C61.7371 45.2781 61.8702 45.5993 62.107 45.8361C62.3438 46.0729 62.6651 46.206 63 46.206C63.3349 46.206 63.6561 46.0729 63.893 45.8361C64.1298 45.5993 64.2629 45.2781 64.2629 44.9431V43.6803H61.7371V44.9431Z" fill="white"/>
<path d="M70.5772 43.6803C70.2423 43.6803 69.9211 43.8133 69.6843 44.0501C69.4474 44.287 69.3144 44.6082 69.3144 44.9431C69.3144 45.2781 69.4474 45.5993 69.6843 45.8361C69.9211 46.0729 70.2423 46.206 70.5772 46.206H71.8401V43.6803H70.5772Z" fill="white"/>
<path d="M71.8401 43.6803H74.3659V46.206H71.8401V43.6803Z" fill="white"/>
<path d="M74.3659 43.6803H76.8916V46.206H74.3659V43.6803Z" fill="white"/>
<path d="M76.8916 46.206C77.5615 46.206 78.2039 45.9399 78.6776 45.4662C79.1513 44.9926 79.4174 44.3501 79.4174 43.6803H76.8916V46.206Z" fill="white"/>
<path d="M33.9539 48.7317C33.9539 48.0619 34.22 47.4194 34.6936 46.9458C35.1673 46.4721 35.8097 46.206 36.4796 46.206V48.7317H33.9539Z" fill="white"/>
<path d="M37.7425 46.206C38.0774 46.206 38.3986 46.3391 38.6355 46.5759C38.8723 46.8127 39.0054 47.1339 39.0054 47.4689C39.0054 47.8038 38.8723 48.125 38.6355 48.3619C38.3986 48.5987 38.0774 48.7317 37.7425 48.7317H36.4796V46.206H37.7425Z" fill="white"/>
<path d="M42.794 46.206C42.4591 46.206 42.1378 46.3391 41.901 46.5759C41.6642 46.8127 41.5311 47.1339 41.5311 47.4689C41.5311 47.8038 41.6642 48.125 41.901 48.3619C42.1378 48.5987 42.4591 48.7317 42.794 48.7317H44.0569V46.206H42.794Z" fill="white"/>
<path d="M44.0569 46.206C44.7267 46.206 45.3692 46.4721 45.8428 46.9458C46.3165 47.4194 46.5826 48.0619 46.5826 48.7317H44.0569V46.206Z" fill="white"/>
<path d="M49.1084 46.206C49.1084 46.8759 49.3745 47.5183 49.8481 47.992C50.3218 48.4656 50.9642 48.7317 51.6341 48.7317V46.206H49.1084Z" fill="white"/>
<path d="M51.6341 46.206H54.1599V48.7317H51.6341V46.206Z" fill="white"/>
<path d="M55.4227 46.206C55.7577 46.206 56.0789 46.3391 56.3157 46.5759C56.5526 46.8127 56.6856 47.1339 56.6856 47.4689C56.6856 47.8038 56.5526 48.125 56.3157 48.3619C56.0789 48.5987 55.7577 48.7317 55.4227 48.7317H54.1599V46.206H55.4227Z" fill="white"/>
<path d="M59.2114 47.4689C59.2114 47.1339 59.3444 46.8127 59.5813 46.5759C59.8181 46.3391 60.1393 46.206 60.4742 46.206C60.8092 46.206 61.1304 46.3391 61.3672 46.5759C61.6041 46.8127 61.7371 47.1339 61.7371 47.4689V48.7317H59.2114V47.4689Z" fill="white"/>
<path d="M74.3659 47.4689C74.3659 47.8038 74.4989 48.125 74.7358 48.3619C74.9726 48.5987 75.2938 48.7317 75.6287 48.7317C75.9637 48.7317 76.2849 48.5987 76.5217 48.3619C76.7586 48.125 76.8916 47.8038 76.8916 47.4689V46.206H74.3659V47.4689Z" fill="white"/>
<path d="M90.7832 46.206C90.4483 46.206 90.1271 46.3391 89.8903 46.5759C89.6534 46.8127 89.5204 47.1339 89.5204 47.4689C89.5204 47.8038 89.6534 48.125 89.8903 48.3619C90.1271 48.5987 90.4483 48.7317 90.7832 48.7317H92.0461V46.206H90.7832Z" fill="white"/>
<path d="M92.0461 46.206C92.716 46.206 93.3584 46.4721 93.8321 46.9458C94.3058 47.4194 94.5719 48.0619 94.5719 48.7317H92.0461V46.206Z" fill="white"/>
<path d="M28.9024 51.2575C28.9024 50.5876 29.1685 49.9452 29.6421 49.4715C30.1158 48.9979 30.7582 48.7317 31.4281 48.7317V51.2575H28.9024Z" fill="white"/>
<path d="M31.4281 48.7317H33.9539V51.2575H31.4281V48.7317Z" fill="white"/>
<path d="M33.9539 51.2575C34.6237 51.2575 35.2662 50.9914 35.7398 50.5177C36.2135 50.0441 36.4796 49.4016 36.4796 48.7317H33.9539V51.2575Z" fill="white"/>
<path d="M39.0054 49.9946C39.0054 49.6597 39.1384 49.3385 39.3753 49.1016C39.6121 48.8648 39.9333 48.7317 40.2682 48.7317C40.6032 48.7317 40.9244 48.8648 41.1612 49.1016C41.3981 49.3385 41.5311 49.6597 41.5311 49.9946V51.2575H39.0054V49.9946Z" fill="white"/>
<path d="M44.0569 48.7317H46.5826V51.2575H44.0569V48.7317Z" fill="white"/>
<path d="M46.5826 48.7317C47.2525 48.7317 47.8949 48.9979 48.3686 49.4715C48.8423 49.9452 49.1084 50.5876 49.1084 51.2575H46.5826V48.7317Z" fill="white"/>
<path d="M57.9485 48.7317C57.6136 48.7317 57.2923 48.8648 57.0555 49.1016C56.8187 49.3385 56.6856 49.6597 56.6856 49.9946C56.6856 50.3296 56.8187 50.6508 57.0555 50.8876C57.2923 51.1244 57.6136 51.2575 57.9485 51.2575H59.2114V48.7317H57.9485Z" fill="white"/>
<path d="M59.2114 48.7317H61.7371V51.2575H59.2114V48.7317Z" fill="white"/>
<path d="M63 48.7317C63.3349 48.7317 63.6561 48.8648 63.893 49.1016C64.1298 49.3385 64.2629 49.6597 64.2629 49.9946C64.2629 50.3296 64.1298 50.6508 63.893 50.8876C63.6561 51.1244 63.3349 51.2575 63 51.2575H61.7371V48.7317H63Z" fill="white"/>
<path d="M68.0515 48.7317C67.7166 48.7317 67.3953 48.8648 67.1585 49.1016C66.9217 49.3385 66.7886 49.6597 66.7886 49.9946C66.7886 50.3296 66.9217 50.6508 67.1585 50.8876C67.3953 51.1244 67.7166 51.2575 68.0515 51.2575H69.3144V48.7317H68.0515Z" fill="white"/>
<path d="M69.3144 48.7317H71.8401V51.2575H69.3144V48.7317Z" fill="white"/>
<path d="M73.103 48.7317C73.4379 48.7317 73.7591 48.8648 73.996 49.1016C74.2328 49.3385 74.3659 49.6597 74.3659 49.9946C74.3659 50.3296 74.2328 50.6508 73.996 50.8876C73.7591 51.1244 73.4379 51.2575 73.103 51.2575H71.8401V48.7317H73.103Z" fill="white"/>
<path d="M84.4689 51.2575C84.4689 50.5876 84.735 49.9452 85.2086 49.4715C85.6823 48.9979 86.3247 48.7317 86.9946 48.7317V51.2575H84.4689Z" fill="white"/>
<path d="M88.2575 48.7317C88.5924 48.7317 88.9136 48.8648 89.1505 49.1016C89.3873 49.3385 89.5204 49.6597 89.5204 49.9946C89.5204 50.3296 89.3873 50.6508 89.1505 50.8876C88.9136 51.1244 88.5924 51.2575 88.2575 51.2575H86.9946V48.7317H88.2575Z" fill="white"/>
<path d="M92.0461 48.7317H94.5719V51.2575H92.0461V48.7317Z" fill="white"/>
<path d="M95.8347 48.7317C96.1697 48.7317 96.4909 48.8648 96.7277 49.1016C96.9646 49.3385 97.0976 49.6597 97.0976 49.9946C97.0976 50.3296 96.9646 50.6508 96.7277 50.8876C96.4909 51.1244 96.1697 51.2575 95.8347 51.2575H94.5719V48.7317H95.8347Z" fill="white"/>
<path d="M28.9024 52.5204C28.9024 52.8553 29.0354 53.1765 29.2723 53.4134C29.5091 53.6502 29.8303 53.7832 30.1652 53.7832C30.5002 53.7832 30.8214 53.6502 31.0582 53.4134C31.2951 53.1765 31.4281 52.8553 31.4281 52.5204V51.2575H28.9024V52.5204Z" fill="white"/>
<path d="M39.0054 51.2575H41.5311V53.7832H39.0054V51.2575Z" fill="white"/>
<path d="M41.5311 51.2575H44.0569V53.7832H41.5311V51.2575Z" fill="white"/>
<path d="M44.0569 51.2575H46.5826V53.7832H44.0569V51.2575Z" fill="white"/>
<path d="M46.5826 51.2575H49.1084V53.7832H46.5826V51.2575Z" fill="white"/>
<path d="M74.3659 53.7832C74.3659 53.1134 74.632 52.4709 75.1056 51.9973C75.5793 51.5236 76.2217 51.2575 76.8916 51.2575V53.7832H74.3659Z" fill="white"/>
<path d="M76.8916 51.2575H79.4174V53.7832H76.8916V51.2575Z" fill="white"/>
<path d="M79.4174 51.2575H81.9431V53.7832H79.4174V51.2575Z" fill="white"/>
<path d="M81.9431 51.2575H84.4689V53.7832H81.9431V51.2575Z" fill="white"/>
<path d="M84.4689 53.7832C85.1387 53.7832 85.7812 53.5171 86.2548 53.0435C86.7285 52.5698 86.9946 51.9274 86.9946 51.2575H84.4689V53.7832Z" fill="white"/>
<path d="M89.5204 53.7832C89.5204 53.1134 89.7865 52.4709 90.2601 51.9973C90.7338 51.5236 91.3762 51.2575 92.0461 51.2575V53.7832H89.5204Z" fill="white"/>
<path d="M92.0461 53.7832C92.716 53.7832 93.3584 53.5171 93.8321 53.0435C94.3058 52.5698 94.5719 51.9274 94.5719 51.2575H92.0461V53.7832Z" fill="white"/>
<path d="M31.4281 55.0461C31.4281 54.7112 31.5612 54.39 31.798 54.1531C32.0348 53.9163 32.3561 53.7832 32.691 53.7832C33.0259 53.7832 33.3471 53.9163 33.584 54.1531C33.8208 54.39 33.9539 54.7112 33.9539 55.0461V56.309H31.4281V55.0461Z" fill="white"/>
<path d="M37.7425 53.7832C37.4076 53.7832 37.0863 53.9163 36.8495 54.1531C36.6127 54.39 36.4796 54.7112 36.4796 55.0461C36.4796 55.3811 36.6127 55.7023 36.8495 55.9391C37.0863 56.1759 37.4076 56.309 37.7425 56.309H39.0054V53.7832H37.7425Z" fill="white"/>
<path d="M39.0054 56.309C39.6752 56.309 40.3177 56.0429 40.7913 55.5692C41.265 55.0956 41.5311 54.4531 41.5311 53.7832H39.0054V56.309Z" fill="white"/>
<path d="M46.5826 53.7832H49.1084V56.309H46.5826V53.7832Z" fill="white"/>
<path d="M74.3659 53.7832C74.3659 54.4531 74.632 55.0956 75.1056 55.5692C75.5793 56.0429 76.2217 56.309 76.8916 56.309V53.7832H74.3659Z" fill="white"/>
<path d="M76.8916 53.7832H79.4174V56.309H76.8916V53.7832Z" fill="white"/>
<path d="M89.5204 53.7832H92.0461V56.309H89.5204V53.7832Z" fill="white"/>
<path d="M98.3605 53.7832C98.6954 53.7832 99.0166 53.9163 99.2535 54.1531C99.4903 54.39 99.6234 54.7112 99.6234 55.0461C99.6234 55.3811 99.4903 55.7023 99.2535 55.9391C99.0166 56.1759 98.6954 56.309 98.3605 56.309C98.0256 56.309 97.7043 56.1759 97.4675 55.9391C97.2307 55.7023 97.0976 55.3811 97.0976 55.0461C97.0976 54.7112 97.2307 54.39 97.4675 54.1531C97.7043 53.9163 98.0256 53.7832 98.3605 53.7832Z" fill="white"/>
<path d="M28.9024 58.8347C28.9024 58.1649 29.1685 57.5224 29.6421 57.0488C30.1158 56.5751 30.7582 56.309 31.4281 56.309V58.8347H28.9024Z" fill="white"/>
<path d="M31.4281 56.309H33.9539V58.8347H31.4281V56.309Z" fill="white"/>
<path d="M42.794 56.309C43.1289 56.309 43.4501 56.4421 43.687 56.6789C43.9238 56.9157 44.0569 57.2369 44.0569 57.5719C44.0569 57.9068 43.9238 58.228 43.687 58.4649C43.4501 58.7017 43.1289 58.8347 42.794 58.8347C42.4591 58.8347 42.1378 58.7017 41.901 58.4649C41.6642 58.228 41.5311 57.9068 41.5311 57.5719C41.5311 57.2369 41.6642 56.9157 41.901 56.6789C42.1378 56.4421 42.4591 56.309 42.794 56.309Z" fill="white"/>
<path d="M46.5826 57.5719C46.5826 57.9068 46.7157 58.228 46.9525 58.4649C47.1893 58.7017 47.5106 58.8347 47.8455 58.8347C48.1804 58.8347 48.5016 58.7017 48.7385 58.4649C48.9753 58.228 49.1084 57.9068 49.1084 57.5719V56.309H46.5826V57.5719Z" fill="white"/>
<path d="M76.8916 56.309C76.8916 56.9789 77.1577 57.6213 77.6314 58.095C78.1051 58.5686 78.7475 58.8347 79.4174 58.8347V56.309H76.8916Z" fill="white"/>
<path d="M79.4174 56.309H81.9431V58.8347H79.4174V56.309Z" fill="white"/>
<path d="M81.9431 56.309C82.613 56.309 83.2554 56.5751 83.7291 57.0488C84.2028 57.5224 84.4689 58.1649 84.4689 58.8347H81.9431V56.309Z" fill="white"/>
<path d="M89.5204 57.5719C89.5204 57.9068 89.6534 58.228 89.8903 58.4649C90.1271 58.7017 90.4483 58.8347 90.7832 58.8347C91.1182 58.8347 91.4394 58.7017 91.6762 58.4649C91.9131 58.228 92.0461 57.9068 92.0461 57.5719V56.309H89.5204V57.5719Z" fill="white"/>
<path d="M95.8347 56.309C96.1697 56.309 96.4909 56.4421 96.7277 56.6789C96.9646 56.9157 97.0976 57.2369 97.0976 57.5719C97.0976 57.9068 96.9646 58.228 96.7277 58.4649C96.4909 58.7017 96.1697 58.8347 95.8347 58.8347C95.4998 58.8347 95.1786 58.7017 94.9418 58.4649C94.7049 58.228 94.5719 57.9068 94.5719 57.5719C94.5719 57.2369 94.7049 56.9157 94.9418 56.6789C95.1786 56.4421 95.4998 56.309 95.8347 56.309Z" fill="white"/>
<path d="M28.9024 58.8347C28.9024 59.5046 29.1685 60.1471 29.6421 60.6207C30.1158 61.0944 30.7582 61.3605 31.4281 61.3605V58.8347H28.9024Z" fill="white"/>
<path d="M31.4281 58.8347H33.9539V61.3605H31.4281V58.8347Z" fill="white"/>
<path d="M37.7425 58.8347C38.0774 58.8347 38.3986 58.9678 38.6355 59.2046C38.8723 59.4415 39.0054 59.7627 39.0054 60.0976C39.0054 60.4326 38.8723 60.7538 38.6355 60.9906C38.3986 61.2274 38.0774 61.3605 37.7425 61.3605C37.4076 61.3605 37.0863 61.2274 36.8495 60.9906C36.6127 60.7538 36.4796 60.4326 36.4796 60.0976C36.4796 59.7627 36.6127 59.4415 36.8495 59.2046C37.0863 58.9678 37.4076 58.8347 37.7425 58.8347Z" fill="white"/>
<path d="M45.3197 58.8347C45.6547 58.8347 45.9759 58.9678 46.2127 59.2046C46.4496 59.4415 46.5826 59.7627 46.5826 60.0976C46.5826 60.4326 46.4496 60.7538 46.2127 60.9906C45.9759 61.2274 45.6547 61.3605 45.3197 61.3605C44.9848 61.3605 44.6636 61.2274 44.4268 60.9906C44.1899 60.7538 44.0569 60.4326 44.0569 60.0976C44.0569 59.7627 44.1899 59.4415 44.4268 59.2046C44.6636 58.9678 44.9848 58.8347 45.3197 58.8347Z" fill="white"/>
<path d="M50.3712 58.8347C50.7062 58.8347 51.0274 58.9678 51.2642 59.2046C51.5011 59.4415 51.6341 59.7627 51.6341 60.0976C51.6341 60.4326 51.5011 60.7538 51.2642 60.9906C51.0274 61.2274 50.7062 61.3605 50.3712 61.3605C50.0363 61.3605 49.7151 61.2274 49.4783 60.9906C49.2414 60.7538 49.1084 60.4326 49.1084 60.0976C49.1084 59.7627 49.2414 59.4415 49.4783 59.2046C49.7151 58.9678 50.0363 58.8347 50.3712 58.8347Z" fill="white"/>
<path d="M81.9431 58.8347H84.4689V61.3605H81.9431V58.8347Z" fill="white"/>
<path d="M88.2575 58.8347C88.5924 58.8347 88.9136 58.9678 89.1505 59.2046C89.3873 59.4415 89.5204 59.7627 89.5204 60.0976C89.5204 60.4326 89.3873 60.7538 89.1505 60.9906C88.9136 61.2274 88.5924 61.3605 88.2575 61.3605C87.9226 61.3605 87.6013 61.2274 87.3645 60.9906C87.1277 60.7538 86.9946 60.4326 86.9946 60.0976C86.9946 59.7627 87.1277 59.4415 87.3645 59.2046C87.6013 58.9678 87.9226 58.8347 88.2575 58.8347Z" fill="white"/>
<path d="M93.309 58.8347C93.6439 58.8347 93.9651 58.9678 94.202 59.2046C94.4388 59.4415 94.5719 59.7627 94.5719 60.0976C94.5719 60.4326 94.4388 60.7538 94.202 60.9906C93.9651 61.2274 93.6439 61.3605 93.309 61.3605C92.9741 61.3605 92.6528 61.2274 92.416 60.9906C92.1792 60.7538 92.0461 60.4326 92.0461 60.0976C92.0461 59.7627 92.1792 59.4415 92.416 59.2046C92.6528 58.9678 92.9741 58.8347 93.309 58.8347Z" fill="white"/>
<path d="M97.0976 60.0976C97.0976 59.7627 97.2307 59.4415 97.4675 59.2046C97.7043 58.9678 98.0256 58.8347 98.3605 58.8347C98.6954 58.8347 99.0166 58.9678 99.2535 59.2046C99.4903 59.4415 99.6234 59.7627 99.6234 60.0976V61.3605H97.0976V60.0976Z" fill="white"/>
<path d="M31.4281 61.3605C31.4281 62.0304 31.6942 62.6728 32.1679 63.1465C32.6416 63.6201 33.284 63.8862 33.9539 63.8862V61.3605H31.4281Z" fill="white"/>
<path d="M33.9539 61.3605C34.6237 61.3605 35.2662 61.6266 35.7398 62.1003C36.2135 62.5739 36.4796 63.2164 36.4796 63.8862H33.9539V61.3605Z" fill="white"/>
<path d="M42.794 61.3605C43.1289 61.3605 43.4501 61.4936 43.687 61.7304C43.9238 61.9672 44.0569 62.2884 44.0569 62.6234C44.0569 62.9583 43.9238 63.2795 43.687 63.5164C43.4501 63.7532 43.1289 63.8862 42.794 63.8862C42.4591 63.8862 42.1378 63.7532 41.901 63.5164C41.6642 63.2795 41.5311 62.9583 41.5311 62.6234C41.5311 62.2884 41.6642 61.9672 41.901 61.7304C42.1378 61.4936 42.4591 61.3605 42.794 61.3605Z" fill="white"/>
<path d="M47.8455 61.3605C48.1804 61.3605 48.5016 61.4936 48.7385 61.7304C48.9753 61.9672 49.1084 62.2884 49.1084 62.6234C49.1084 62.9583 48.9753 63.2795 48.7385 63.5164C48.5016 63.7532 48.1804 63.8862 47.8455 63.8862C47.5106 63.8862 47.1893 63.7532 46.9525 63.5164C46.7157 63.2795 46.5826 62.9583 46.5826 62.6234C46.5826 62.2884 46.7157 61.9672 46.9525 61.7304C47.1893 61.4936 47.5106 61.3605 47.8455 61.3605Z" fill="white"/>
<path d="M75.6287 61.3605C75.9637 61.3605 76.2849 61.4936 76.5217 61.7304C76.7586 61.9672 76.8916 62.2884 76.8916 62.6234C76.8916 62.9583 76.7586 63.2795 76.5217 63.5164C76.2849 63.7532 75.9637 63.8862 75.6287 63.8862C75.2938 63.8862 74.9726 63.7532 74.7358 63.5164C74.4989 63.2795 74.3659 62.9583 74.3659 62.6234C74.3659 62.2884 74.4989 61.9672 74.7358 61.7304C74.9726 61.4936 75.2938 61.3605 75.6287 61.3605Z" fill="white"/>
<path d="M79.4174 63.8862C79.4174 63.2164 79.6835 62.5739 80.1571 62.1003C80.6308 61.6266 81.2732 61.3605 81.9431 61.3605V63.8862H79.4174Z" fill="white"/>
<path d="M81.9431 61.3605H84.4689V63.8862H81.9431V61.3605Z" fill="white"/>
<path d="M85.7317 61.3605C86.0667 61.3605 86.3879 61.4936 86.6247 61.7304C86.8616 61.9672 86.9946 62.2884 86.9946 62.6234C86.9946 62.9583 86.8616 63.2795 86.6247 63.5164C86.3879 63.7532 86.0667 63.8862 85.7317 63.8862H84.4689V61.3605H85.7317Z" fill="white"/>
<path d="M89.5204 62.6234C89.5204 62.2884 89.6534 61.9672 89.8903 61.7304C90.1271 61.4936 90.4483 61.3605 90.7832 61.3605C91.1182 61.3605 91.4394 61.4936 91.6762 61.7304C91.9131 61.9672 92.0461 62.2884 92.0461 62.6234V63.8862H89.5204V62.6234Z" fill="white"/>
<path d="M97.0976 62.6234C97.0976 62.9583 97.2307 63.2795 97.4675 63.5164C97.7043 63.7532 98.0256 63.8862 98.3605 63.8862C98.6954 63.8862 99.0166 63.7532 99.2535 63.5164C99.4903 63.2795 99.6234 62.9583 99.6234 62.6234V61.3605H97.0976V62.6234Z" fill="white"/>
<path d="M26.3766 66.412C26.3766 65.7421 26.6427 65.0997 27.1164 64.626C27.5901 64.1524 28.2325 63.8862 28.9024 63.8862V66.412H26.3766Z" fill="white"/>
<path d="M28.9024 63.8862C29.5722 63.8862 30.2147 64.1524 30.6883 64.626C31.162 65.0997 31.4281 65.7421 31.4281 66.412H28.9024V63.8862Z" fill="white"/>
<path d="M33.9539 63.8862H36.4796V66.412H33.9539V63.8862Z" fill="white"/>
<path d="M37.7425 63.8862C38.0774 63.8862 38.3986 64.0193 38.6355 64.2561C38.8723 64.493 39.0054 64.8142 39.0054 65.1491C39.0054 65.4841 38.8723 65.8053 38.6355 66.0421C38.3986 66.2789 38.0774 66.412 37.7425 66.412H36.4796V63.8862H37.7425Z" fill="white"/>
<path d="M45.3197 63.8862C45.6547 63.8862 45.9759 64.0193 46.2127 64.2561C46.4496 64.493 46.5826 64.8142 46.5826 65.1491C46.5826 65.4841 46.4496 65.8053 46.2127 66.0421C45.9759 66.2789 45.6547 66.412 45.3197 66.412C44.9848 66.412 44.6636 66.2789 44.4268 66.0421C44.1899 65.8053 44.0569 65.4841 44.0569 65.1491C44.0569 64.8142 44.1899 64.493 44.4268 64.2561C44.6636 64.0193 44.9848 63.8862 45.3197 63.8862Z" fill="white"/>
<path d="M79.4174 65.1491C79.4174 65.4841 79.5504 65.8053 79.7873 66.0421C80.0241 66.2789 80.3453 66.412 80.6802 66.412C81.0152 66.412 81.3364 66.2789 81.5732 66.0421C81.8101 65.8053 81.9431 65.4841 81.9431 65.1491V63.8862H79.4174V65.1491Z" fill="white"/>
<path d="M88.2575 63.8862C87.9226 63.8862 87.6013 64.0193 87.3645 64.2561C87.1277 64.493 86.9946 64.8142 86.9946 65.1491C86.9946 65.4841 87.1277 65.8053 87.3645 66.0421C87.6013 66.2789 87.9226 66.412 88.2575 66.412H89.5204V63.8862H88.2575Z" fill="white"/>
<path d="M89.5204 63.8862H92.0461V66.412H89.5204V63.8862Z" fill="white"/>
<path d="M92.0461 63.8862H94.5719V66.412H92.0461V63.8862Z" fill="white"/>
<path d="M94.5719 63.8862C95.2417 63.8862 95.8842 64.1524 96.3578 64.626C96.8315 65.0997 97.0976 65.7421 97.0976 66.412H94.5719V63.8862Z" fill="white"/>
<path d="M26.3766 66.412H28.9024V68.9377H26.3766V66.412Z" fill="white"/>
<path d="M28.9024 66.412H31.4281V68.9377H28.9024V66.412Z" fill="white"/>
<path d="M31.4281 66.412H33.9539V68.9377H31.4281V66.412Z" fill="white"/>
<path d="M33.9539 68.9377C34.6237 68.9377 35.2662 68.6716 35.7398 68.198C36.2135 67.7243 36.4796 67.0819 36.4796 66.412H33.9539V68.9377Z" fill="white"/>
<path d="M42.794 66.412C43.1289 66.412 43.4501 66.545 43.687 66.7819C43.9238 67.0187 44.0569 67.3399 44.0569 67.6749C44.0569 68.0098 43.9238 68.331 43.687 68.5679C43.4501 68.8047 43.1289 68.9377 42.794 68.9377C42.4591 68.9377 42.1378 68.8047 41.901 68.5679C41.6642 68.331 41.5311 68.0098 41.5311 67.6749C41.5311 67.3399 41.6642 67.0187 41.901 66.7819C42.1378 66.545 42.4591 66.412 42.794 66.412Z" fill="white"/>
<path d="M47.8455 66.412C48.1804 66.412 48.5016 66.545 48.7385 66.7819C48.9753 67.0187 49.1084 67.3399 49.1084 67.6749C49.1084 68.0098 48.9753 68.331 48.7385 68.5679C48.5016 68.8047 48.1804 68.9377 47.8455 68.9377C47.5106 68.9377 47.1893 68.8047 46.9525 68.5679C46.7157 68.331 46.5826 68.0098 46.5826 67.6749C46.5826 67.3399 46.7157 67.0187 46.9525 66.7819C47.1893 66.545 47.5106 66.412 47.8455 66.412Z" fill="white"/>
<path d="M78.1545 66.412C78.4894 66.412 78.8106 66.545 79.0475 66.7819C79.2843 67.0187 79.4174 67.3399 79.4174 67.6749C79.4174 68.0098 79.2843 68.331 79.0475 68.5679C78.8106 68.8047 78.4894 68.9377 78.1545 68.9377C77.8196 68.9377 77.4983 68.8047 77.2615 68.5679C77.0247 68.331 76.8916 68.0098 76.8916 67.6749C76.8916 67.3399 77.0247 67.0187 77.2615 66.7819C77.4983 66.545 77.8196 66.412 78.1545 66.412Z" fill="white"/>
<path d="M84.4689 67.6749C84.4689 67.3399 84.6019 67.0187 84.8388 66.7819C85.0756 66.545 85.3968 66.412 85.7317 66.412C86.0667 66.412 86.3879 66.545 86.6247 66.7819C86.8616 67.0187 86.9946 67.3399 86.9946 67.6749V68.9377H84.4689V67.6749Z" fill="white"/>
<path d="M89.5204 66.412H92.0461V68.9377H89.5204V66.412Z" fill="white"/>
<path d="M94.5719 67.6749C94.5719 68.0098 94.7049 68.331 94.9418 68.5679C95.1786 68.8047 95.4998 68.9377 95.8347 68.9377C96.1697 68.9377 96.4909 68.8047 96.7277 68.5679C96.9646 68.331 97.0976 68.0098 97.0976 67.6749V66.412H94.5719V67.6749Z" fill="white"/>
<path d="M26.3766 68.9377H28.9024V71.4635H26.3766V68.9377Z" fill="white"/>
<path d="M28.9024 68.9377H31.4281V71.4635H28.9024V68.9377Z" fill="white"/>
<path d="M31.4281 71.4635C32.098 71.4635 32.7404 71.1974 33.2141 70.7237C33.6878 70.2501 33.9539 69.6076 33.9539 68.9377H31.4281V71.4635Z" fill="white"/>
<path d="M39.0054 70.2006C39.0054 69.8657 39.1384 69.5445 39.3753 69.3076C39.6121 69.0708 39.9333 68.9377 40.2682 68.9377C40.6032 68.9377 40.9244 69.0708 41.1612 69.3076C41.3981 69.5445 41.5311 69.8657 41.5311 70.2006V71.4635H39.0054V70.2006Z" fill="white"/>
<path d="M45.3197 68.9377C45.6547 68.9377 45.9759 69.0708 46.2127 69.3076C46.4496 69.5445 46.5826 69.8657 46.5826 70.2006C46.5826 70.5356 46.4496 70.8568 46.2127 71.0936C45.9759 71.3304 45.6547 71.4635 45.3197 71.4635C44.9848 71.4635 44.6636 71.3304 44.4268 71.0936C44.1899 70.8568 44.0569 70.5356 44.0569 70.2006C44.0569 69.8657 44.1899 69.5445 44.4268 69.3076C44.6636 69.0708 44.9848 68.9377 45.3197 68.9377Z" fill="white"/>
<path d="M50.3712 68.9377C50.7062 68.9377 51.0274 69.0708 51.2642 69.3076C51.5011 69.5445 51.6341 69.8657 51.6341 70.2006C51.6341 70.5356 51.5011 70.8568 51.2642 71.0936C51.0274 71.3304 50.7062 71.4635 50.3712 71.4635C50.0363 71.4635 49.7151 71.3304 49.4783 71.0936C49.2414 70.8568 49.1084 70.5356 49.1084 70.2006C49.1084 69.8657 49.2414 69.5445 49.4783 69.3076C49.7151 69.0708 50.0363 68.9377 50.3712 68.9377Z" fill="white"/>
<path d="M84.4689 68.9377C84.4689 69.6076 84.735 70.2501 85.2086 70.7237C85.6823 71.1974 86.3247 71.4635 86.9946 71.4635V68.9377H84.4689Z" fill="white"/>
<path d="M86.9946 68.9377H89.5204V71.4635H86.9946V68.9377Z" fill="white"/>
<path d="M89.5204 68.9377H92.0461V71.4635H89.5204V68.9377Z" fill="white"/>
<path d="M93.309 68.9377C93.6439 68.9377 93.9651 69.0708 94.202 69.3076C94.4388 69.5445 94.5719 69.8657 94.5719 70.2006C94.5719 70.5356 94.4388 70.8568 94.202 71.0936C93.9651 71.3304 93.6439 71.4635 93.309 71.4635H92.0461V68.9377H93.309Z" fill="white"/>
<path d="M26.3766 71.4635H28.9024V73.9893H26.3766V71.4635Z" fill="white"/>
<path d="M28.9024 71.4635H31.4281V73.9893H28.9024V71.4635Z" fill="white"/>
<path d="M35.2167 71.4635C34.8818 71.4635 34.5606 71.5966 34.3238 71.8334C34.0869 72.0702 33.9539 72.3914 33.9539 72.7264C33.9539 73.0613 34.0869 73.3825 34.3238 73.6194C34.5606 73.8562 34.8818 73.9893 35.2167 73.9893H36.4796V71.4635H35.2167Z" fill="white"/>
<path d="M36.4796 71.4635H39.0054V73.9893H36.4796V71.4635Z" fill="white"/>
<path d="M39.0054 71.4635H41.5311V73.9893H39.0054V71.4635Z" fill="white"/>
<path d="M42.794 71.4635C43.1289 71.4635 43.4501 71.5966 43.687 71.8334C43.9238 72.0702 44.0569 72.3914 44.0569 72.7264C44.0569 73.0613 43.9238 73.3825 43.687 73.6194C43.4501 73.8562 43.1289 73.9893 42.794 73.9893H41.5311V71.4635H42.794Z" fill="white"/>
<path d="M74.3659 72.7264C74.3659 72.3914 74.4989 72.0702 74.7358 71.8334C74.9726 71.5966 75.2938 71.4635 75.6287 71.4635C75.9637 71.4635 76.2849 71.5966 76.5217 71.8334C76.7586 72.0702 76.8916 72.3914 76.8916 72.7264V73.9893H74.3659V72.7264Z" fill="white"/>
<path d="M86.9946 71.4635C86.9946 72.1334 87.2607 72.7758 87.7344 73.2495C88.2081 73.7231 88.8505 73.9893 89.5204 73.9893V71.4635H86.9946Z" fill="white"/>
<path d="M89.5204 73.9893C90.1902 73.9893 90.8327 73.7231 91.3063 73.2495C91.78 72.7758 92.0461 72.1334 92.0461 71.4635H89.5204V73.9893Z" fill="white"/>
<path d="M98.3605 71.4635C98.6954 71.4635 99.0166 71.5966 99.2535 71.8334C99.4903 72.0702 99.6234 72.3914 99.6234 72.7264C99.6234 73.0613 99.4903 73.3825 99.2535 73.6194C99.0166 73.8562 98.6954 73.9893 98.3605 73.9893C98.0256 73.9893 97.7043 73.8562 97.4675 73.6194C97.2307 73.3825 97.0976 73.0613 97.0976 72.7264C97.0976 72.3914 97.2307 72.0702 97.4675 71.8334C97.7043 71.5966 98.0256 71.4635 98.3605 71.4635Z" fill="white"/>
<path d="M26.3766 73.9893H28.9024V76.515H26.3766V73.9893Z" fill="white"/>
<path d="M28.9024 73.9893H31.4281V76.515H28.9024V73.9893Z" fill="white"/>
<path d="M36.4796 73.9893H39.0054V76.515H36.4796V73.9893Z" fill="white"/>
<path d="M44.0569 75.2521C44.0569 74.9172 44.1899 74.596 44.4268 74.3591C44.6636 74.1223 44.9848 73.9893 45.3197 73.9893C45.6547 73.9893 45.9759 74.1223 46.2127 74.3591C46.4496 74.596 46.5826 74.9172 46.5826 75.2521V76.515H44.0569V75.2521Z" fill="white"/>
<path d="M50.3712 73.9893C50.0363 73.9893 49.7151 74.1223 49.4783 74.3591C49.2414 74.596 49.1084 74.9172 49.1084 75.2521C49.1084 75.5871 49.2414 75.9083 49.4783 76.1451C49.7151 76.3819 50.0363 76.515 50.3712 76.515H51.6341V73.9893H50.3712Z" fill="white"/>
<path d="M52.897 73.9893C53.2319 73.9893 53.5531 74.1223 53.79 74.3591C54.0268 74.596 54.1599 74.9172 54.1599 75.2521C54.1599 75.5871 54.0268 75.9083 53.79 76.1451C53.5531 76.3819 53.2319 76.515 52.897 76.515H51.6341V73.9893H52.897Z" fill="white"/>
<path d="M57.9485 73.9893C57.6136 73.9893 57.2923 74.1223 57.0555 74.3591C56.8187 74.596 56.6856 74.9172 56.6856 75.2521C56.6856 75.5871 56.8187 75.9083 57.0555 76.1451C57.2923 76.3819 57.6136 76.515 57.9485 76.515H59.2114V73.9893H57.9485Z" fill="white"/>
<path d="M59.2114 73.9893H61.7371V76.515H59.2114V73.9893Z" fill="white"/>
<path d="M61.7371 73.9893H64.2629V76.515H61.7371V73.9893Z" fill="white"/>
<path d="M64.2629 73.9893H66.7886V76.515H64.2629V73.9893Z" fill="white"/>
<path d="M66.7886 73.9893H69.3144V76.515H66.7886V73.9893Z" fill="white"/>
<path d="M69.3144 73.9893H71.8401V76.515H69.3144V73.9893Z" fill="white"/>
<path d="M71.8401 73.9893H74.3659V76.515H71.8401V73.9893Z" fill="white"/>
<path d="M74.3659 76.515C75.0357 76.515 75.6782 76.2489 76.1518 75.7752C76.6255 75.3016 76.8916 74.6591 76.8916 73.9893H74.3659V76.515Z" fill="white"/>
<path d="M79.4174 76.515C79.4174 75.8451 79.6835 75.2027 80.1571 74.729C80.6308 74.2554 81.2732 73.9893 81.9431 73.9893V76.515H79.4174Z" fill="white"/>
<path d="M81.9431 73.9893C82.613 73.9893 83.2554 74.2554 83.7291 74.729C84.2028 75.2027 84.4689 75.8451 84.4689 76.515H81.9431V73.9893Z" fill="white"/>
<path d="M92.0461 76.515C92.0461 75.8451 92.3122 75.2027 92.7859 74.729C93.2596 74.2554 93.902 73.9893 94.5719 73.9893V76.515H92.0461Z" fill="white"/>
<path d="M95.8347 73.9893C96.1697 73.9893 96.4909 74.1223 96.7277 74.3591C96.9646 74.596 97.0976 74.9172 97.0976 75.2521C97.0976 75.5871 96.9646 75.9083 96.7277 76.1451C96.4909 76.3819 96.1697 76.515 95.8347 76.515H94.5719V73.9893H95.8347Z" fill="white"/>
<path d="M26.3766 76.515C26.3766 77.1849 26.6427 77.8273 27.1164 78.301C27.5901 78.7746 28.2325 79.0408 28.9024 79.0408V76.515H26.3766Z" fill="white"/>
<path d="M28.9024 76.515H31.4281V79.0408H28.9024V76.515Z" fill="white"/>
<path d="M31.4281 76.515H33.9539V79.0408H31.4281V76.515Z" fill="white"/>
<path d="M33.9539 76.515H36.4796V79.0408H33.9539V76.515Z" fill="white"/>
<path d="M36.4796 79.0408C37.1495 79.0408 37.7919 78.7746 38.2656 78.301C38.7393 77.8273 39.0054 77.1849 39.0054 76.515H36.4796V79.0408Z" fill="white"/>
<path d="M42.794 76.515C42.4591 76.515 42.1378 76.648 41.901 76.8849C41.6642 77.1217 41.5311 77.4429 41.5311 77.7779C41.5311 78.1128 41.6642 78.434 41.901 78.6709C42.1378 78.9077 42.4591 79.0408 42.794 79.0408H44.0569V76.515H42.794Z" fill="white"/>
<path d="M44.0569 76.515H46.5826V79.0408H44.0569V76.515Z" fill="white"/>
<path d="M46.5826 76.515C47.2525 76.515 47.8949 76.7811 48.3686 77.2548C48.8423 77.7284 49.1084 78.3709 49.1084 79.0408H46.5826V76.515Z" fill="white"/>
<path d="M55.4227 76.515C55.7577 76.515 56.0789 76.648 56.3157 76.8849C56.5526 77.1217 56.6856 77.4429 56.6856 77.7779C56.6856 78.1128 56.5526 78.434 56.3157 78.6709C56.0789 78.9077 55.7577 79.0408 55.4227 79.0408C55.0878 79.0408 54.7666 78.9077 54.5298 78.6709C54.2929 78.434 54.1599 78.1128 54.1599 77.7779C54.1599 77.4429 54.2929 77.1217 54.5298 76.8849C54.7666 76.648 55.0878 76.515 55.4227 76.515Z" fill="white"/>
<path d="M61.7371 77.7779C61.7371 78.1128 61.8702 78.434 62.107 78.6709C62.3438 78.9077 62.6651 79.0408 63 79.0408C63.3349 79.0408 63.6561 78.9077 63.893 78.6709C64.1298 78.434 64.2629 78.1128 64.2629 77.7779V76.515H61.7371V77.7779Z" fill="white"/>
<path d="M66.7886 76.515C66.7886 77.1849 67.0547 77.8273 67.5284 78.301C68.0021 78.7746 68.6445 79.0408 69.3144 79.0408V76.515H66.7886Z" fill="white"/>
<path d="M69.3144 76.515H71.8401V79.0408H69.3144V76.515Z" fill="white"/>
<path d="M71.8401 76.515H74.3659V79.0408H71.8401V76.515Z" fill="white"/>
<path d="M76.8916 79.0408C76.8916 78.3709 77.1577 77.7284 77.6314 77.2548C78.1051 76.7811 78.7475 76.515 79.4174 76.515V79.0408H76.8916Z" fill="white"/>
<path d="M79.4174 76.515H81.9431V79.0408H79.4174V76.515Z" fill="white"/>
<path d="M81.9431 76.515H84.4689V79.0408H81.9431V76.515Z" fill="white"/>
<path d="M84.4689 76.515H86.9946V79.0408H84.4689V76.515Z" fill="white"/>
<path d="M86.9946 76.515H89.5204V79.0408H86.9946V76.515Z" fill="white"/>
<path d="M89.5204 76.515H92.0461V79.0408H89.5204V76.515Z" fill="white"/>
<path d="M92.0461 76.515H94.5719V79.0408H92.0461V76.515Z" fill="white"/>
<path d="M98.3605 76.515C98.6954 76.515 99.0166 76.648 99.2535 76.8849C99.4903 77.1217 99.6234 77.4429 99.6234 77.7779C99.6234 78.1128 99.4903 78.434 99.2535 78.6709C99.0166 78.9077 98.6954 79.0408 98.3605 79.0408C98.0256 79.0408 97.7043 78.9077 97.4675 78.6709C97.2307 78.434 97.0976 78.1128 97.0976 77.7779C97.0976 77.4429 97.2307 77.1217 97.4675 76.8849C97.7043 76.648 98.0256 76.515 98.3605 76.515Z" fill="white"/>
<path d="M46.5826 79.0408H49.1084V81.5665H46.5826V79.0408Z" fill="white"/>
<path d="M49.1084 79.0408H51.6341V81.5665H49.1084V79.0408Z" fill="white"/>
<path d="M51.6341 79.0408C52.304 79.0408 52.9464 79.3069 53.4201 79.7805C53.8938 80.2542 54.1599 80.8966 54.1599 81.5665H51.6341V79.0408Z" fill="white"/>
<path d="M64.2629 80.3036C64.2629 79.9687 64.3959 79.6475 64.6328 79.4106C64.8696 79.1738 65.1908 79.0408 65.5257 79.0408C65.8607 79.0408 66.1819 79.1738 66.4187 79.4106C66.6556 79.6475 66.7886 79.9687 66.7886 80.3036V81.5665H64.2629V80.3036Z" fill="white"/>
<path d="M69.3144 79.0408H71.8401V81.5665H69.3144V79.0408Z" fill="white"/>
<path d="M71.8401 79.0408H74.3659V81.5665H71.8401V79.0408Z" fill="white"/>
<path d="M76.8916 79.0408H79.4174V81.5665H76.8916V79.0408Z" fill="white"/>
<path d="M86.9946 79.0408H89.5204V81.5665H86.9946V79.0408Z" fill="white"/>
<path d="M89.5204 79.0408H92.0461V81.5665H89.5204V79.0408Z" fill="white"/>
<path d="M92.0461 79.0408H94.5719V81.5665H92.0461V79.0408Z" fill="white"/>
<path d="M95.8347 79.0408C96.1697 79.0408 96.4909 79.1738 96.7277 79.4106C96.9646 79.6475 97.0976 79.9687 97.0976 80.3036C97.0976 80.6386 96.9646 80.9598 96.7277 81.1966C96.4909 81.4334 96.1697 81.5665 95.8347 81.5665H94.5719V79.0408H95.8347Z" fill="white"/>
<path d="M26.3766 84.0922C26.3766 83.4224 26.6427 82.7799 27.1164 82.3063C27.5901 81.8326 28.2325 81.5665 28.9024 81.5665V84.0922H26.3766Z" fill="white"/>
<path d="M28.9024 81.5665H31.4281V84.0922H28.9024V81.5665Z" fill="white"/>
<path d="M31.4281 81.5665H33.9539V84.0922H31.4281V81.5665Z" fill="white"/>
<path d="M33.9539 81.5665H36.4796V84.0922H33.9539V81.5665Z" fill="white"/>
<path d="M36.4796 81.5665H39.0054V84.0922H36.4796V81.5665Z" fill="white"/>
<path d="M39.0054 81.5665H41.5311V84.0922H39.0054V81.5665Z" fill="white"/>
<path d="M41.5311 81.5665C42.201 81.5665 42.8434 81.8326 43.3171 82.3063C43.7908 82.7799 44.0569 83.4224 44.0569 84.0922H41.5311V81.5665Z" fill="white"/>
<path d="M46.5826 81.5665C46.5826 82.2364 46.8487 82.8788 47.3224 83.3525C47.7961 83.8261 48.4385 84.0922 49.1084 84.0922V81.5665H46.5826Z" fill="white"/>
<path d="M49.1084 81.5665H51.6341V84.0922H49.1084V81.5665Z" fill="white"/>
<path d="M51.6341 84.0922C52.304 84.0922 52.9464 83.8261 53.4201 83.3525C53.8938 82.8788 54.1599 82.2364 54.1599 81.5665H51.6341V84.0922Z" fill="white"/>
<path d="M64.2629 81.5665H66.7886V84.0922H64.2629V81.5665Z" fill="white"/>
<path d="M69.3144 81.5665C69.3144 82.2364 69.5805 82.8788 70.0541 83.3525C70.5278 83.8261 71.1702 84.0922 71.8401 84.0922V81.5665H69.3144Z" fill="white"/>
<path d="M71.8401 81.5665H74.3659V84.0922H71.8401V81.5665Z" fill="white"/>
<path d="M74.3659 81.5665H76.8916V84.0922H74.3659V81.5665Z" fill="white"/>
<path d="M76.8916 81.5665H79.4174V84.0922H76.8916V81.5665Z" fill="white"/>
<path d="M83.206 81.5665C83.5409 81.5665 83.8621 81.6996 84.099 81.9364C84.3358 82.1732 84.4689 82.4944 84.4689 82.8294C84.4689 83.1643 84.3358 83.4855 84.099 83.7224C83.8621 83.9592 83.5409 84.0922 83.206 84.0922C82.8711 84.0922 82.5498 83.9592 82.313 83.7224C82.0762 83.4855 81.9431 83.1643 81.9431 82.8294C81.9431 82.4944 82.0762 82.1732 82.313 81.9364C82.5498 81.6996 82.8711 81.5665 83.206 81.5665Z" fill="white"/>
<path d="M86.9946 81.5665H89.5204V84.0922H86.9946V81.5665Z" fill="white"/>
<path d="M92.0461 82.8294C92.0461 83.1643 92.1792 83.4855 92.416 83.7224C92.6528 83.9592 92.9741 84.0922 93.309 84.0922C93.6439 84.0922 93.9651 83.9592 94.202 83.7224C94.4388 83.4855 94.5719 83.1643 94.5719 82.8294V81.5665H92.0461V82.8294Z" fill="white"/>
<path d="M26.3766 84.0922H28.9024V86.618H26.3766V84.0922Z" fill="white"/>
<path d="M41.5311 84.0922H44.0569V86.618H41.5311V84.0922Z" fill="white"/>
<path d="M55.4227 84.0922C55.0878 84.0922 54.7666 84.2253 54.5298 84.4621C54.2929 84.699 54.1599 85.0202 54.1599 85.3551C54.1599 85.6901 54.2929 86.0113 54.5298 86.2481C54.7666 86.4849 55.0878 86.618 55.4227 86.618H56.6856V84.0922H55.4227Z" fill="white"/>
<path d="M56.6856 84.0922C57.3555 84.0922 57.9979 84.3584 58.4716 84.832C58.9453 85.3057 59.2114 85.9481 59.2114 86.618H56.6856V84.0922Z" fill="white"/>
<path d="M61.7371 86.618C61.7371 85.9481 62.0032 85.3057 62.4769 84.832C62.9506 84.3584 63.593 84.0922 64.2629 84.0922V86.618H61.7371Z" fill="white"/>
<path d="M64.2629 86.618C64.9327 86.618 65.5752 86.3519 66.0488 85.8782C66.5225 85.4045 66.7886 84.7621 66.7886 84.0922H64.2629V86.618Z" fill="white"/>
<path d="M74.3659 84.0922H76.8916V86.618H74.3659V84.0922Z" fill="white"/>
<path d="M76.8916 84.0922H79.4174V86.618H76.8916V84.0922Z" fill="white"/>
<path d="M86.9946 84.0922H89.5204V86.618H86.9946V84.0922Z" fill="white"/>
<path d="M90.7832 84.0922C91.1182 84.0922 91.4394 84.2253 91.6762 84.4621C91.9131 84.699 92.0461 85.0202 92.0461 85.3551C92.0461 85.6901 91.9131 86.0113 91.6762 86.2481C91.4394 86.4849 91.1182 86.618 90.7832 86.618H89.5204V84.0922H90.7832Z" fill="white"/>
<path d="M94.5719 86.618C94.5719 85.9481 94.838 85.3057 95.3116 84.832C95.7853 84.3584 96.4277 84.0922 97.0976 84.0922V86.618H94.5719Z" fill="white"/>
<path d="M97.0976 84.0922C97.7675 84.0922 98.4099 84.3584 98.8836 84.832C99.3573 85.3057 99.6234 85.9481 99.6234 86.618H97.0976V84.0922Z" fill="white"/>
<path d="M26.3766 86.618H28.9024V89.1437H26.3766V86.618Z" fill="white"/>
<path d="M31.4281 89.1437C31.4281 88.4739 31.6942 87.8314 32.1679 87.3578C32.6416 86.8841 33.284 86.618 33.9539 86.618V89.1437H31.4281Z" fill="white"/>
<path d="M33.9539 86.618H36.4796V89.1437H33.9539V86.618Z" fill="white"/>
<path d="M36.4796 86.618C37.1495 86.618 37.7919 86.8841 38.2656 87.3578C38.7393 87.8314 39.0054 88.4739 39.0054 89.1437H36.4796V86.618Z" fill="white"/>
<path d="M41.5311 86.618H44.0569V89.1437H41.5311V86.618Z" fill="white"/>
<path d="M46.5826 89.1437C46.5826 88.4739 46.8487 87.8314 47.3224 87.3578C47.7961 86.8841 48.4385 86.618 49.1084 86.618V89.1437H46.5826Z" fill="white"/>
<path d="M49.1084 86.618C49.7782 86.618 50.4207 86.8841 50.8943 87.3578C51.368 87.8314 51.6341 88.4739 51.6341 89.1437H49.1084V86.618Z" fill="white"/>
<path d="M56.6856 87.8809C56.6856 88.2158 56.8187 88.537 57.0555 88.7739C57.2923 89.0107 57.6136 89.1437 57.9485 89.1437C58.2834 89.1437 58.6046 89.0107 58.8415 88.7739C59.0783 88.537 59.2114 88.2158 59.2114 87.8809V86.618H56.6856V87.8809Z" fill="white"/>
<path d="M61.7371 86.618H64.2629V89.1437H61.7371V86.618Z" fill="white"/>
<path d="M66.7886 89.1437C66.7886 88.4739 67.0547 87.8314 67.5284 87.3578C68.0021 86.8841 68.6445 86.618 69.3144 86.618V89.1437H66.7886Z" fill="white"/>
<path d="M69.3144 86.618H71.8401V89.1437H69.3144V86.618Z" fill="white"/>
<path d="M71.8401 86.618H74.3659V89.1437H71.8401V86.618Z" fill="white"/>
<path d="M74.3659 86.618H76.8916V89.1437H74.3659V86.618Z" fill="white"/>
<path d="M76.8916 86.618H79.4174V89.1437H76.8916V86.618Z" fill="white"/>
<path d="M79.4174 86.618H81.9431V89.1437H79.4174V86.618Z" fill="white"/>
<path d="M81.9431 86.618H84.4689V89.1437H81.9431V86.618Z" fill="white"/>
<path d="M84.4689 86.618H86.9946V89.1437H84.4689V86.618Z" fill="white"/>
<path d="M86.9946 89.1437C87.6645 89.1437 88.3069 88.8776 88.7806 88.404C89.2543 87.9303 89.5204 87.2879 89.5204 86.618H86.9946V89.1437Z" fill="white"/>
<path d="M94.5719 86.618H97.0976V89.1437H94.5719V86.618Z" fill="white"/>
<path d="M97.0976 89.1437C97.7675 89.1437 98.4099 88.8776 98.8836 88.404C99.3573 87.9303 99.6234 87.2879 99.6234 86.618H97.0976V89.1437Z" fill="white"/>
<path d="M26.3766 89.1437H28.9024V91.6695H26.3766V89.1437Z" fill="white"/>
<path d="M31.4281 89.1437H33.9539V91.6695H31.4281V89.1437Z" fill="white"/>
<path d="M33.9539 89.1437H36.4796V91.6695H33.9539V89.1437Z" fill="white"/>
<path d="M36.4796 89.1437H39.0054V91.6695H36.4796V89.1437Z" fill="white"/>
<path d="M41.5311 89.1437H44.0569V91.6695H41.5311V89.1437Z" fill="white"/>
<path d="M46.5826 89.1437C46.5826 89.8136 46.8487 90.4561 47.3224 90.9297C47.7961 91.4034 48.4385 91.6695 49.1084 91.6695V89.1437H46.5826Z" fill="white"/>
<path d="M49.1084 91.6695C49.7782 91.6695 50.4207 91.4034 50.8943 90.9297C51.368 90.4561 51.6341 89.8136 51.6341 89.1437H49.1084V91.6695Z" fill="white"/>
<path d="M54.1599 90.4066C54.1599 90.0717 54.2929 89.7505 54.5298 89.5136C54.7666 89.2768 55.0878 89.1437 55.4227 89.1437C55.7577 89.1437 56.0789 89.2768 56.3157 89.5136C56.5526 89.7505 56.6856 90.0717 56.6856 90.4066V91.6695H54.1599V90.4066Z" fill="white"/>
<path d="M61.7371 89.1437H64.2629V91.6695H61.7371V89.1437Z" fill="white"/>
<path d="M66.7886 90.4066C66.7886 90.7416 66.9217 91.0628 67.1585 91.2996C67.3953 91.5364 67.7166 91.6695 68.0515 91.6695C68.3864 91.6695 68.7076 91.5364 68.9445 91.2996C69.1813 91.0628 69.3144 90.7416 69.3144 90.4066V89.1437H66.7886V90.4066Z" fill="white"/>
<path d="M84.4689 89.1437H86.9946V91.6695H84.4689V89.1437Z" fill="white"/>
<path d="M93.309 89.1437C92.9741 89.1437 92.6528 89.2768 92.416 89.5136C92.1792 89.7505 92.0461 90.0717 92.0461 90.4066C92.0461 90.7416 92.1792 91.0628 92.416 91.2996C92.6528 91.5364 92.9741 91.6695 93.309 91.6695H94.5719V89.1437H93.309Z" fill="white"/>
<path d="M94.5719 89.1437H97.0976V91.6695H94.5719V89.1437Z" fill="white"/>
<path d="M26.3766 91.6695H28.9024V94.1952H26.3766V91.6695Z" fill="white"/>
<path d="M31.4281 91.6695C31.4281 92.3394 31.6942 92.9818 32.1679 93.4555C32.6416 93.9291 33.284 94.1952 33.9539 94.1952V91.6695H31.4281Z" fill="white"/>
<path d="M33.9539 91.6695H36.4796V94.1952H33.9539V91.6695Z" fill="white"/>
<path d="M36.4796 94.1952C37.1495 94.1952 37.7919 93.9291 38.2656 93.4555C38.7393 92.9818 39.0054 92.3394 39.0054 91.6695H36.4796V94.1952Z" fill="white"/>
<path d="M41.5311 91.6695H44.0569V94.1952H41.5311V91.6695Z" fill="white"/>
<path d="M52.897 91.6695C52.5621 91.6695 52.2408 91.8026 52.004 92.0394C51.7672 92.2762 51.6341 92.5974 51.6341 92.9324C51.6341 93.2673 51.7672 93.5885 52.004 93.8254C52.2408 94.0622 52.5621 94.1952 52.897 94.1952H54.1599V91.6695H52.897Z" fill="white"/>
<path d="M54.1599 91.6695H56.6856V94.1952H54.1599V91.6695Z" fill="white"/>
<path d="M56.6856 91.6695C57.3555 91.6695 57.9979 91.9356 58.4716 92.4093C58.9453 92.8829 59.2114 93.5254 59.2114 94.1952H56.6856V91.6695Z" fill="white"/>
<path d="M61.7371 91.6695H64.2629V94.1952H61.7371V91.6695Z" fill="white"/>
<path d="M64.2629 91.6695C64.9327 91.6695 65.5752 91.9356 66.0488 92.4093C66.5225 92.8829 66.7886 93.5254 66.7886 94.1952H64.2629V91.6695Z" fill="white"/>
<path d="M70.5772 91.6695C70.2423 91.6695 69.9211 91.8026 69.6843 92.0394C69.4474 92.2762 69.3144 92.5974 69.3144 92.9324C69.3144 93.2673 69.4474 93.5885 69.6843 93.8254C69.9211 94.0622 70.2423 94.1952 70.5772 94.1952H71.8401V91.6695H70.5772Z" fill="white"/>
<path d="M71.8401 91.6695C72.51 91.6695 73.1524 91.9356 73.6261 92.4093C74.0998 92.8829 74.3659 93.5254 74.3659 94.1952H71.8401V91.6695Z" fill="white"/>
<path d="M78.1545 91.6695C77.8196 91.6695 77.4983 91.8026 77.2615 92.0394C77.0247 92.2762 76.8916 92.5974 76.8916 92.9324C76.8916 93.2673 77.0247 93.5885 77.2615 93.8254C77.4983 94.0622 77.8196 94.1952 78.1545 94.1952H79.4174V91.6695H78.1545Z" fill="white"/>
<path d="M79.4174 91.6695C80.0872 91.6695 80.7297 91.9356 81.2033 92.4093C81.677 92.8829 81.9431 93.5254 81.9431 94.1952H79.4174V91.6695Z" fill="white"/>
<path d="M84.4689 91.6695C84.4689 92.3394 84.735 92.9818 85.2086 93.4555C85.6823 93.9291 86.3247 94.1952 86.9946 94.1952V91.6695H84.4689Z" fill="white"/>
<path d="M86.9946 91.6695H89.5204V94.1952H86.9946V91.6695Z" fill="white"/>
<path d="M89.5204 91.6695C90.1902 91.6695 90.8327 91.9356 91.3063 92.4093C91.78 92.8829 92.0461 93.5254 92.0461 94.1952H89.5204V91.6695Z" fill="white"/>
<path d="M94.5719 91.6695C94.5719 92.3394 94.838 92.9818 95.3116 93.4555C95.7853 93.9291 96.4277 94.1952 97.0976 94.1952V91.6695H94.5719Z" fill="white"/>
<path d="M97.0976 91.6695C97.7675 91.6695 98.4099 91.9356 98.8836 92.4093C99.3573 92.8829 99.6234 93.5254 99.6234 94.1952H97.0976V91.6695Z" fill="white"/>
<path d="M26.3766 94.1952H28.9024V96.721H26.3766V94.1952Z" fill="white"/>
<path d="M41.5311 94.1952H44.0569V96.721H41.5311V94.1952Z" fill="white"/>
<path d="M50.3712 94.1952C50.7062 94.1952 51.0274 94.3283 51.2642 94.5651C51.5011 94.802 51.6341 95.1232 51.6341 95.4581C51.6341 95.7931 51.5011 96.1143 51.2642 96.3511C51.0274 96.5879 50.7062 96.721 50.3712 96.721C50.0363 96.721 49.7151 96.5879 49.4783 96.3511C49.2414 96.1143 49.1084 95.7931 49.1084 95.4581C49.1084 95.1232 49.2414 94.802 49.4783 94.5651C49.7151 94.3283 50.0363 94.1952 50.3712 94.1952Z" fill="white"/>
<path d="M56.6856 94.1952H59.2114V96.721H56.6856V94.1952Z" fill="white"/>
<path d="M59.2114 94.1952H61.7371V96.721H59.2114V94.1952Z" fill="white"/>
<path d="M61.7371 94.1952H64.2629V96.721H61.7371V94.1952Z" fill="white"/>
<path d="M64.2629 94.1952H66.7886V96.721H64.2629V94.1952Z" fill="white"/>
<path d="M68.0515 94.1952C68.3864 94.1952 68.7076 94.3283 68.9445 94.5651C69.1813 94.802 69.3144 95.1232 69.3144 95.4581C69.3144 95.7931 69.1813 96.1143 68.9445 96.3511C68.7076 96.5879 68.3864 96.721 68.0515 96.721H66.7886V94.1952H68.0515Z" fill="white"/>
<path d="M71.8401 95.4581C71.8401 95.7931 71.9732 96.1143 72.21 96.3511C72.4468 96.5879 72.7681 96.721 73.103 96.721C73.4379 96.721 73.7591 96.5879 73.996 96.3511C74.2328 96.1143 74.3659 95.7931 74.3659 95.4581V94.1952H71.8401V95.4581Z" fill="white"/>
<path d="M79.4174 95.4581C79.4174 95.7931 79.5504 96.1143 79.7873 96.3511C80.0241 96.5879 80.3453 96.721 80.6802 96.721C81.0152 96.721 81.3364 96.5879 81.5732 96.3511C81.8101 96.1143 81.9431 95.7931 81.9431 95.4581V94.1952H79.4174V95.4581Z" fill="white"/>
<path d="M86.9946 94.1952H89.5204V96.721H86.9946V94.1952Z" fill="white"/>
<path d="M89.5204 94.1952H92.0461V96.721H89.5204V94.1952Z" fill="white"/>
<path d="M93.309 94.1952C93.6439 94.1952 93.9651 94.3283 94.202 94.5651C94.4388 94.802 94.5719 95.1232 94.5719 95.4581C94.5719 95.7931 94.4388 96.1143 94.202 96.3511C93.9651 96.5879 93.6439 96.721 93.309 96.721H92.0461V94.1952H93.309Z" fill="white"/>
<path d="M97.0976 95.4581C97.0976 95.7931 97.2307 96.1143 97.4675 96.3511C97.7043 96.5879 98.0256 96.721 98.3605 96.721C98.6954 96.721 99.0166 96.5879 99.2535 96.3511C99.4903 96.1143 99.6234 95.7931 99.6234 95.4581V94.1952H97.0976V95.4581Z" fill="white"/>
<path d="M26.3766 96.721C26.3766 97.3909 26.6427 98.0333 27.1164 98.507C27.5901 98.9806 28.2325 99.2468 28.9024 99.2468V96.721H26.3766Z" fill="white"/>
<path d="M28.9024 96.721H31.4281V99.2468H28.9024V96.721Z" fill="white"/>
<path d="M31.4281 96.721H33.9539V99.2468H31.4281V96.721Z" fill="white"/>
<path d="M33.9539 96.721H36.4796V99.2468H33.9539V96.721Z" fill="white"/>
<path d="M36.4796 96.721H39.0054V99.2468H36.4796V96.721Z" fill="white"/>
<path d="M39.0054 96.721H41.5311V99.2468H39.0054V96.721Z" fill="white"/>
<path d="M41.5311 99.2468C42.201 99.2468 42.8434 98.9806 43.3171 98.507C43.7908 98.0333 44.0569 97.3909 44.0569 96.721H41.5311V99.2468Z" fill="white"/>
<path d="M56.6856 96.721C56.6856 97.3909 56.9517 98.0333 57.4254 98.507C57.8991 98.9806 58.5415 99.2468 59.2114 99.2468V96.721H56.6856Z" fill="white"/>
<path d="M59.2114 99.2468C59.8812 99.2468 60.5237 98.9806 60.9973 98.507C61.471 98.0333 61.7371 97.3909 61.7371 96.721H59.2114V99.2468Z" fill="white"/>
<path d="M64.2629 97.9839C64.2629 98.3188 64.3959 98.64 64.6328 98.8769C64.8696 99.1137 65.1908 99.2468 65.5257 99.2468C65.8607 99.2468 66.1819 99.1137 66.4187 98.8769C66.6556 98.64 66.7886 98.3188 66.7886 97.9839V96.721H64.2629V97.9839Z" fill="white"/>
<path d="M75.6287 96.721C75.2938 96.721 74.9726 96.8541 74.7358 97.0909C74.4989 97.3277 74.3659 97.6489 74.3659 97.9839C74.3659 98.3188 74.4989 98.64 74.7358 98.8769C74.9726 99.1137 75.2938 99.2468 75.6287 99.2468H76.8916V96.721H75.6287Z" fill="white"/>
<path d="M78.1545 96.721C78.4894 96.721 78.8106 96.8541 79.0475 97.0909C79.2843 97.3277 79.4174 97.6489 79.4174 97.9839C79.4174 98.3188 79.2843 98.64 79.0475 98.8769C78.8106 99.1137 78.4894 99.2468 78.1545 99.2468H76.8916V96.721H78.1545Z" fill="white"/>
<path d="M83.206 96.721C82.8711 96.721 82.5498 96.8541 82.313 97.0909C82.0762 97.3277 81.9431 97.6489 81.9431 97.9839C81.9431 98.3188 82.0762 98.64 82.313 98.8769C82.5498 99.1137 82.8711 99.2468 83.206 99.2468H84.4689V96.721H83.206Z" fill="white"/>
<path d="M84.4689 96.721H86.9946V99.2468H84.4689V96.721Z" fill="white"/>
<path d="M86.9946 96.721H89.5204V99.2468H86.9946V96.721Z" fill="white"/>
<path d="M89.5204 99.2468C90.1902 99.2468 90.8327 98.9806 91.3063 98.507C91.78 98.0333 92.0461 97.3909 92.0461 96.721H89.5204V99.2468Z" fill="white"/>
<path d="M57 55H63.624C65.448 55 66.888 55.144 67.944 55.432C69 55.704 69.776 56.184 70.272 56.872C70.768 57.56 71.016 58.512 71.016 59.728V66.064C71.016 67.248 70.784 68.168 70.32 68.824C69.856 69.464 69.096 69.92 68.04 70.192C66.984 70.448 65.52 70.576 63.648 70.576H57V55ZM63.48 67.912C64.504 67.912 65.272 67.872 65.784 67.792C66.312 67.696 66.688 67.52 66.912 67.264C67.152 67.008 67.272 66.608 67.272 66.064V59.656C67.272 58.92 66.976 58.408 66.384 58.12C65.808 57.816 64.88 57.664 63.6 57.664H60.744V67.912H63.48Z" fill="white"/>
<path d="M142 51.5165H150.127C152.365 51.5165 154.132 51.6949 155.428 52.0518C156.724 52.3888 157.676 52.9835 158.284 53.8359C158.893 54.6883 159.197 55.8678 159.197 57.3744V65.2247C159.197 66.6916 158.913 67.8315 158.343 68.6443C157.774 69.4372 156.842 70.0022 155.546 70.3392C154.25 70.6564 152.454 70.815 150.157 70.815H142V51.5165ZM149.951 67.5143C151.207 67.5143 152.15 67.4648 152.778 67.3656C153.426 67.2467 153.887 67.0286 154.162 66.7115C154.456 66.3943 154.604 65.8987 154.604 65.2247V57.2852C154.604 56.3733 154.24 55.739 153.514 55.3822C152.807 55.0055 151.669 54.8172 150.098 54.8172H146.594V67.5143H149.951Z" fill="#4B3DA7"/>
<path d="M166.764 71.1123C165.429 71.1123 164.428 70.9934 163.761 70.7555C163.113 70.4978 162.651 70.0518 162.376 69.4174C162.121 68.7632 161.994 67.7919 161.994 66.5033C161.994 65.3535 162.131 64.4515 162.406 63.7974C162.7 63.1432 163.162 62.6773 163.79 62.3998C164.438 62.1024 165.321 61.9537 166.44 61.9537H171.27V60.9725C171.27 60.3579 171.181 59.902 171.005 59.6046C170.848 59.3073 170.543 59.0991 170.092 58.9802C169.66 58.8612 169.002 58.8018 168.119 58.8018C166.902 58.8018 165.233 58.9207 163.113 59.1586V56.4229C164.664 56.2247 166.479 56.1256 168.56 56.1256C170.386 56.1256 171.79 56.2643 172.771 56.5419C173.773 56.8194 174.489 57.2952 174.921 57.9692C175.353 58.6432 175.569 59.6244 175.569 60.913V70.815H171.358V69.5066C171.024 70.0815 170.573 70.4879 170.003 70.7258C169.434 70.9835 168.354 71.1123 166.764 71.1123ZM168.443 68.4064C169.306 68.4064 169.925 68.3767 170.298 68.3172C170.573 68.2775 170.759 68.2181 170.857 68.1388C170.975 68.0595 171.073 67.9306 171.152 67.7522C171.23 67.6134 171.27 67.4053 171.27 67.1278V64.3326H168.325C167.657 64.3326 167.186 64.3822 166.911 64.4813C166.637 64.5606 166.45 64.739 166.352 65.0165C166.254 65.2742 166.205 65.7401 166.205 66.4141C166.205 67.0683 166.254 67.5242 166.352 67.7819C166.45 68.0396 166.637 68.2082 166.911 68.2874C167.206 68.3667 167.716 68.4064 168.443 68.4064Z" fill="#4B3DA7"/>
<path d="M179.352 56.4229H183.592V58.1773C183.926 56.8095 185.447 56.1256 188.156 56.1256C189.982 56.1256 191.258 56.4626 191.984 57.1366C192.73 57.7907 193.103 58.8315 193.103 60.2588V70.815H188.804V60.8238C188.804 60.2687 188.745 59.8524 188.627 59.5749C188.529 59.2974 188.313 59.0991 187.98 58.9802C187.666 58.8612 187.175 58.8018 186.507 58.8018C185.663 58.8018 185.045 58.8612 184.652 58.9802C184.259 59.0793 183.994 59.2676 183.857 59.5452C183.72 59.8227 183.651 60.2489 183.651 60.8238V70.815H179.352V56.4229Z" fill="#4B3DA7"/>
<path d="M200.899 71.1123C199.564 71.1123 198.563 70.9934 197.895 70.7555C197.248 70.4978 196.786 70.0518 196.511 69.4174C196.256 68.7632 196.129 67.7919 196.129 66.5033C196.129 65.3535 196.266 64.4515 196.541 63.7974C196.835 63.1432 197.297 62.6773 197.925 62.3998C198.573 62.1024 199.456 61.9537 200.575 61.9537H205.404V60.9725C205.404 60.3579 205.316 59.902 205.139 59.6046C204.982 59.3073 204.678 59.0991 204.227 58.9802C203.795 58.8612 203.137 58.8018 202.254 58.8018C201.036 58.8018 199.368 58.9207 197.248 59.1586V56.4229C198.798 56.2247 200.614 56.1256 202.695 56.1256C204.521 56.1256 205.925 56.2643 206.906 56.5419C207.907 56.8194 208.624 57.2952 209.056 57.9692C209.488 58.6432 209.704 59.6244 209.704 60.913V70.815H205.493V69.5066C205.159 70.0815 204.708 70.4879 204.138 70.7258C203.569 70.9835 202.489 71.1123 200.899 71.1123ZM202.578 68.4064C203.441 68.4064 204.06 68.3767 204.433 68.3172C204.708 68.2775 204.894 68.2181 204.992 68.1388C205.11 68.0595 205.208 67.9306 205.287 67.7522C205.365 67.6134 205.404 67.4053 205.404 67.1278V64.3326H202.46C201.792 64.3326 201.321 64.3822 201.046 64.4813C200.771 64.5606 200.585 64.739 200.487 65.0165C200.389 65.2742 200.34 65.7401 200.34 66.4141C200.34 67.0683 200.389 67.5242 200.487 67.7819C200.585 68.0396 200.771 68.2082 201.046 68.2874C201.341 68.3667 201.851 68.4064 202.578 68.4064Z" fill="#4B3DA7"/>
<path d="M219.847 71.1123C218.021 71.1123 215.764 70.9339 213.074 70.5771V67.0385C216.412 67.554 218.689 67.8117 219.906 67.8117C222.458 67.8117 223.734 67.1476 223.734 65.8194V64.5705C223.734 63.9361 223.548 63.4504 223.175 63.1134C222.821 62.7764 222.173 62.6079 221.231 62.6079H218.993C214.792 62.6079 212.691 60.9229 212.691 57.5529V56.1256C212.691 54.4405 213.388 53.2015 214.782 52.4086C216.176 51.6156 218.384 51.2192 221.408 51.2192C222.978 51.2192 224.971 51.348 227.386 51.6057V55.0551C224.421 54.6982 222.38 54.5198 221.261 54.5198C219.71 54.5198 218.669 54.6487 218.139 54.9064C217.57 55.1839 217.285 55.62 217.285 56.2148V57.5826C217.285 58.5936 218.129 59.0991 219.818 59.0991H222.114C224.294 59.0991 225.874 59.5055 226.856 60.3183C227.837 61.1311 228.328 62.37 228.328 64.0352V65.3139C228.328 67.6134 227.513 69.1696 225.884 69.9824C225.099 70.3987 224.225 70.6861 223.263 70.8447C222.321 71.0231 221.182 71.1123 219.847 71.1123Z" fill="#4B3DA7"/>
<path d="M235.379 71.1123C234.044 71.1123 233.043 70.9934 232.375 70.7555C231.727 70.4978 231.266 70.0518 230.991 69.4174C230.736 68.7632 230.608 67.7919 230.608 66.5033C230.608 65.3535 230.746 64.4515 231.021 63.7974C231.315 63.1432 231.777 62.6773 232.405 62.3998C233.053 62.1024 233.936 61.9537 235.055 61.9537H239.884V60.9725C239.884 60.3579 239.796 59.902 239.619 59.6046C239.462 59.3073 239.158 59.0991 238.707 58.9802C238.275 58.8612 237.617 58.8018 236.734 58.8018C235.516 58.8018 233.848 58.9207 231.727 59.1586V56.4229C233.278 56.2247 235.094 56.1256 237.175 56.1256C239.001 56.1256 240.405 56.2643 241.386 56.5419C242.387 56.8194 243.104 57.2952 243.536 57.9692C243.968 58.6432 244.184 59.6244 244.184 60.913V70.815H239.973V69.5066C239.639 70.0815 239.187 70.4879 238.618 70.7258C238.049 70.9835 236.969 71.1123 235.379 71.1123ZM237.057 68.4064C237.921 68.4064 238.54 68.3767 238.913 68.3172C239.187 68.2775 239.374 68.2181 239.472 68.1388C239.59 68.0595 239.688 67.9306 239.767 67.7522C239.845 67.6134 239.884 67.4053 239.884 67.1278V64.3326H236.94C236.272 64.3326 235.801 64.3822 235.526 64.4813C235.251 64.5606 235.065 64.739 234.967 65.0165C234.869 65.2742 234.819 65.7401 234.819 66.4141C234.819 67.0683 234.869 67.5242 234.967 67.7819C235.065 68.0396 235.251 68.2082 235.526 68.2874C235.821 68.3667 236.331 68.4064 237.057 68.4064Z" fill="#4B3DA7"/>
<path d="M247.966 56.4229H252.207V58.1773C252.541 56.8095 254.062 56.1256 256.771 56.1256C258.597 56.1256 259.873 56.4626 260.599 57.1366C261.345 57.7907 261.718 58.8315 261.718 60.2588V70.815H257.419V60.8238C257.419 60.2687 257.36 59.8524 257.242 59.5749C257.144 59.2974 256.928 59.0991 256.594 58.9802C256.28 58.8612 255.79 58.8018 255.122 58.8018C254.278 58.8018 253.66 58.8612 253.267 58.9802C252.874 59.0793 252.609 59.2676 252.472 59.5452C252.334 59.8227 252.266 60.2489 252.266 60.8238V70.815H247.966V56.4229Z" fill="#4B3DA7"/>
<path d="M270.957 71.1123C269.268 71.1123 268.022 70.9934 267.217 70.7555C266.412 70.4978 265.853 70.022 265.538 69.3282C265.224 68.6344 265.067 67.554 265.067 66.087V60.467C265.067 58.8811 265.509 57.761 266.392 57.1068C267.295 56.4526 268.748 56.1256 270.751 56.1256C271.693 56.1256 272.429 56.185 272.959 56.304C273.509 56.4031 273.951 56.5914 274.284 56.8689C274.618 57.1267 274.962 57.5132 275.315 58.0286V50H279.614V70.815H275.462V69.1795C275.109 69.7544 274.785 70.1608 274.49 70.3987C274.216 70.6167 273.823 70.7852 273.313 70.9042C272.782 71.043 271.997 71.1123 270.957 71.1123ZM272.046 68.4064C273.008 68.4064 273.715 68.3568 274.167 68.2577C274.618 68.1586 274.922 67.9802 275.079 67.7225C275.236 67.4449 275.315 67.0385 275.315 66.5033V60.7048C275.315 60.2093 275.227 59.8326 275.05 59.5749C274.893 59.2974 274.598 59.0991 274.167 58.9802C273.754 58.8612 273.126 58.8018 272.282 58.8018C271.379 58.8018 270.731 58.8612 270.338 58.9802C269.946 59.0793 269.681 59.2676 269.543 59.5452C269.425 59.8029 269.367 60.239 269.367 60.8535V66.3546C269.367 66.9097 269.425 67.3359 269.543 67.6333C269.681 67.9108 269.936 68.109 270.309 68.228C270.682 68.3469 271.261 68.4064 272.046 68.4064Z" fill="#4B3DA7"/>
<path d="M287.43 70.696L281.746 56.4229H286.428L289.638 66.5925L292.553 56.4229H297L289.196 77H284.838L287.43 70.696Z" fill="#4B3DA7"/>
<defs>
<linearGradient id="paint0_linear_20_20" x1="37.4404" y1="6.03249" x2="88.7762" y2="117.368" gradientUnits="userSpaceOnUse">
<stop stop-color="#4602D8"/>
<stop offset="1" stop-color="#37017C"/>
</linearGradient>
</defs>
</svg>
