<svg width="60" height="64" viewBox="0 0 60 64" fill="none" xmlns="http://www.w3.org/2000/svg">
<g clip-path="url(#clip0_11_7)">
<rect width="60" height="64" rx="8" fill="#4F00B4"/>
<path d="M6 6.65517C6 6.21619 6.17438 5.79519 6.48479 5.48479C6.79519 5.17438 7.21619 5 7.65517 5V6.65517H6Z" fill="white"/>
<path d="M7.65517 5H9.31034V6.65517H7.65517V5Z" fill="white"/>
<path d="M9.31034 5H10.9655V6.65517H9.31034V5Z" fill="white"/>
<path d="M10.9655 5H12.6207V6.65517H10.9655V5Z" fill="white"/>
<path d="M12.6207 5H14.2759V6.65517H12.6207V5Z" fill="white"/>
<path d="M14.2759 5H15.931V6.65517H14.2759V5Z" fill="white"/>
<path d="M15.931 5C16.37 5 16.791 5.17438 17.1014 5.48479C17.4118 5.79519 17.5862 6.21619 17.5862 6.65517H15.931V5Z" fill="white"/>
<path d="M21.7241 5C21.9436 5 22.1541 5.08719 22.3093 5.24239C22.4645 5.3976 22.5517 5.6081 22.5517 5.82759C22.5517 6.04708 22.4645 6.25758 22.3093 6.41278C22.1541 6.56798 21.9436 6.65517 21.7241 6.65517C21.5046 6.65517 21.2941 6.56798 21.1389 6.41278C20.9837 6.25758 20.8966 6.04708 20.8966 5.82759C20.8966 5.6081 20.9837 5.3976 21.1389 5.24239C21.2941 5.08719 21.5046 5 21.7241 5Z" fill="white"/>
<path d="M25.8621 6.65517C25.8621 6.21619 26.0365 5.79519 26.3469 5.48479C26.6573 5.17438 27.0783 5 27.5172 5V6.65517H25.8621Z" fill="white"/>
<path d="M27.5172 5H29.1724V6.65517H27.5172V5Z" fill="white"/>
<path d="M30 5C30.2195 5 30.43 5.08719 30.5852 5.24239C30.7404 5.3976 30.8276 5.6081 30.8276 5.82759C30.8276 6.04708 30.7404 6.25758 30.5852 6.41278C30.43 6.56798 30.2195 6.65517 30 6.65517H29.1724V5H30Z" fill="white"/>
<path d="M37.4483 6.65517C37.4483 6.21619 37.6227 5.79519 37.9331 5.48479C38.2435 5.17438 38.6645 5 39.1034 5V6.65517H37.4483Z" fill="white"/>
<path d="M39.931 5C40.1505 5 40.361 5.08719 40.5162 5.24239C40.6714 5.3976 40.7586 5.6081 40.7586 5.82759C40.7586 6.04708 40.6714 6.25758 40.5162 6.41278C40.361 6.56798 40.1505 6.65517 39.931 6.65517H39.1034V5H39.931Z" fill="white"/>
<path d="M42.4138 6.65517C42.4138 6.21619 42.5882 5.79519 42.8986 5.48479C43.209 5.17438 43.63 5 44.069 5V6.65517H42.4138Z" fill="white"/>
<path d="M44.069 5H45.7241V6.65517H44.069V5Z" fill="white"/>
<path d="M45.7241 5H47.3793V6.65517H45.7241V5Z" fill="white"/>
<path d="M47.3793 5H49.0345V6.65517H47.3793V5Z" fill="white"/>
<path d="M49.0345 5H50.6897V6.65517H49.0345V5Z" fill="white"/>
<path d="M50.6897 5H52.3448V6.65517H50.6897V5Z" fill="white"/>
<path d="M52.3448 5C52.7838 5 53.2048 5.17438 53.5152 5.48479C53.8256 5.79519 54 6.21619 54 6.65517H52.3448V5Z" fill="white"/>
<path d="M6 6.65517H7.65517V8.31034H6V6.65517Z" fill="white"/>
<path d="M15.931 6.65517H17.5862V8.31034H15.931V6.65517Z" fill="white"/>
<path d="M25.8621 6.65517H27.5172V8.31034H25.8621V6.65517Z" fill="white"/>
<path d="M30.8276 8.31034C30.8276 7.87137 31.002 7.45037 31.3124 7.13996C31.6228 6.82956 32.0438 6.65517 32.4828 6.65517V8.31034H30.8276Z" fill="white"/>
<path d="M32.4828 6.65517H34.1379V8.31034H32.4828V6.65517Z" fill="white"/>
<path d="M34.9655 6.65517C35.185 6.65517 35.3955 6.74236 35.5507 6.89757C35.7059 7.05277 35.7931 7.26327 35.7931 7.48276C35.7931 7.70225 35.7059 7.91275 35.5507 8.06795C35.3955 8.22315 35.185 8.31034 34.9655 8.31034H34.1379V6.65517H34.9655Z" fill="white"/>
<path d="M37.4483 6.65517H39.1034V8.31034H37.4483V6.65517Z" fill="white"/>
<path d="M42.4138 6.65517H44.069V8.31034H42.4138V6.65517Z" fill="white"/>
<path d="M52.3448 6.65517H54V8.31034H52.3448V6.65517Z" fill="white"/>
<path d="M6 8.31034H7.65517V9.96552H6V8.31034Z" fill="white"/>
<path d="M9.31034 9.96552C9.31034 9.52654 9.48473 9.10554 9.79513 8.79513C10.1055 8.48473 10.5265 8.31034 10.9655 8.31034V9.96552H9.31034Z" fill="white"/>
<path d="M10.9655 8.31034H12.6207V9.96552H10.9655V8.31034Z" fill="white"/>
<path d="M12.6207 8.31034C13.0597 8.31034 13.4807 8.48473 13.7911 8.79513C14.1015 9.10554 14.2759 9.52654 14.2759 9.96552H12.6207V8.31034Z" fill="white"/>
<path d="M15.931 8.31034H17.5862V9.96552H15.931V8.31034Z" fill="white"/>
<path d="M19.2414 9.13793C19.2414 8.91844 19.3286 8.70794 19.4838 8.55274C19.639 8.39754 19.8495 8.31034 20.069 8.31034C20.2885 8.31034 20.499 8.39754 20.6542 8.55274C20.8094 8.70794 20.8966 8.91844 20.8966 9.13793V9.96552H19.2414V9.13793Z" fill="white"/>
<path d="M25.8621 9.13793C25.8621 9.35742 25.9493 9.56792 26.1045 9.72312C26.2597 9.87833 26.4702 9.96552 26.6897 9.96552C26.9091 9.96552 27.1196 9.87833 27.2748 9.72312C27.4301 9.56792 27.5172 9.35742 27.5172 9.13793V8.31034H25.8621V9.13793Z" fill="white"/>
<path d="M29.1724 9.96552C29.1724 9.52654 29.3468 9.10554 29.6572 8.79513C29.9676 8.48473 30.3886 8.31034 30.8276 8.31034V9.96552H29.1724Z" fill="white"/>
<path d="M30.8276 8.31034H32.4828V9.96552H30.8276V8.31034Z" fill="white"/>
<path d="M32.4828 9.96552C32.9217 9.96552 33.3427 9.79113 33.6531 9.48073C33.9635 9.17032 34.1379 8.74932 34.1379 8.31034H32.4828V9.96552Z" fill="white"/>
<path d="M36.6207 8.31034C36.4012 8.31034 36.1907 8.39754 36.0355 8.55274C35.8803 8.70794 35.7931 8.91844 35.7931 9.13793C35.7931 9.35742 35.8803 9.56792 36.0355 9.72312C36.1907 9.87833 36.4012 9.96552 36.6207 9.96552H37.4483V8.31034H36.6207Z" fill="white"/>
<path d="M37.4483 9.96552C37.8873 9.96552 38.3083 9.79113 38.6187 9.48073C38.9291 9.17032 39.1034 8.74932 39.1034 8.31034H37.4483V9.96552Z" fill="white"/>
<path d="M42.4138 8.31034H44.069V9.96552H42.4138V8.31034Z" fill="white"/>
<path d="M45.7241 9.96552C45.7241 9.52654 45.8985 9.10554 46.2089 8.79513C46.5193 8.48473 46.9403 8.31034 47.3793 8.31034V9.96552H45.7241Z" fill="white"/>
<path d="M47.3793 8.31034H49.0345V9.96552H47.3793V8.31034Z" fill="white"/>
<path d="M49.0345 8.31034C49.4735 8.31034 49.8945 8.48473 50.2049 8.79513C50.5153 9.10554 50.6897 9.52654 50.6897 9.96552H49.0345V8.31034Z" fill="white"/>
<path d="M52.3448 8.31034H54V9.96552H52.3448V8.31034Z" fill="white"/>
<path d="M6 9.96552H7.65517V11.6207H6V9.96552Z" fill="white"/>
<path d="M9.31034 9.96552H10.9655V11.6207H9.31034V9.96552Z" fill="white"/>
<path d="M10.9655 9.96552H12.6207V11.6207H10.9655V9.96552Z" fill="white"/>
<path d="M12.6207 9.96552H14.2759V11.6207H12.6207V9.96552Z" fill="white"/>
<path d="M15.931 9.96552H17.5862V11.6207H15.931V9.96552Z" fill="white"/>
<path d="M19.2414 9.96552C19.2414 10.4045 19.4158 10.8255 19.7262 11.1359C20.0366 11.4463 20.4576 11.6207 20.8966 11.6207V9.96552H19.2414Z" fill="white"/>
<path d="M20.8966 9.96552H22.5517V11.6207H20.8966V9.96552Z" fill="white"/>
<path d="M22.5517 9.96552H24.2069V11.6207H22.5517V9.96552Z" fill="white"/>
<path d="M24.2069 9.96552C24.6459 9.96552 25.0669 10.1399 25.3773 10.4503C25.6877 10.7607 25.8621 11.1817 25.8621 11.6207H24.2069V9.96552Z" fill="white"/>
<path d="M29.1724 10.7931C29.1724 11.0126 29.2596 11.2231 29.4148 11.3783C29.57 11.5335 29.7805 11.6207 30 11.6207C30.2195 11.6207 30.43 11.5335 30.5852 11.3783C30.7404 11.2231 30.8276 11.0126 30.8276 10.7931V9.96552H29.1724V10.7931Z" fill="white"/>
<path d="M34.9655 9.96552C35.185 9.96552 35.3955 10.0527 35.5507 10.2079C35.7059 10.3631 35.7931 10.5736 35.7931 10.7931C35.7931 11.0126 35.7059 11.2231 35.5507 11.3783C35.3955 11.5335 35.185 11.6207 34.9655 11.6207C34.746 11.6207 34.5355 11.5335 34.3803 11.3783C34.2251 11.2231 34.1379 11.0126 34.1379 10.7931C34.1379 10.5736 34.2251 10.3631 34.3803 10.2079C34.5355 10.0527 34.746 9.96552 34.9655 9.96552Z" fill="white"/>
<path d="M39.931 9.96552C40.1505 9.96552 40.361 10.0527 40.5162 10.2079C40.6714 10.3631 40.7586 10.5736 40.7586 10.7931C40.7586 11.0126 40.6714 11.2231 40.5162 11.3783C40.361 11.5335 40.1505 11.6207 39.931 11.6207C39.7115 11.6207 39.501 11.5335 39.3458 11.3783C39.1906 11.2231 39.1034 11.0126 39.1034 10.7931C39.1034 10.5736 39.1906 10.3631 39.3458 10.2079C39.501 10.0527 39.7115 9.96552 39.931 9.96552Z" fill="white"/>
<path d="M42.4138 9.96552H44.069V11.6207H42.4138V9.96552Z" fill="white"/>
<path d="M45.7241 9.96552H47.3793V11.6207H45.7241V9.96552Z" fill="white"/>
<path d="M47.3793 9.96552H49.0345V11.6207H47.3793V9.96552Z" fill="white"/>
<path d="M49.0345 9.96552H50.6897V11.6207H49.0345V9.96552Z" fill="white"/>
<path d="M52.3448 9.96552H54V11.6207H52.3448V9.96552Z" fill="white"/>
<path d="M6 11.6207H7.65517V13.2759H6V11.6207Z" fill="white"/>
<path d="M9.31034 11.6207C9.31034 12.0597 9.48473 12.4807 9.79513 12.7911C10.1055 13.1015 10.5265 13.2759 10.9655 13.2759V11.6207H9.31034Z" fill="white"/>
<path d="M10.9655 11.6207H12.6207V13.2759H10.9655V11.6207Z" fill="white"/>
<path d="M12.6207 13.2759C13.0597 13.2759 13.4807 13.1015 13.7911 12.7911C14.1015 12.4807 14.2759 12.0597 14.2759 11.6207H12.6207V13.2759Z" fill="white"/>
<path d="M15.931 11.6207H17.5862V13.2759H15.931V11.6207Z" fill="white"/>
<path d="M22.5517 11.6207C22.5517 12.0597 22.7261 12.4807 23.0365 12.7911C23.3469 13.1015 23.7679 13.2759 24.2069 13.2759V11.6207H22.5517Z" fill="white"/>
<path d="M24.2069 11.6207H25.8621V13.2759H24.2069V11.6207Z" fill="white"/>
<path d="M26.6897 11.6207C26.9091 11.6207 27.1196 11.7079 27.2748 11.8631C27.4301 12.0183 27.5172 12.2288 27.5172 12.4483C27.5172 12.6678 27.4301 12.8783 27.2748 13.0335C27.1196 13.1887 26.9091 13.2759 26.6897 13.2759H25.8621V11.6207H26.6897Z" fill="white"/>
<path d="M36.6207 11.6207C36.4012 11.6207 36.1907 11.7079 36.0355 11.8631C35.8803 12.0183 35.7931 12.2288 35.7931 12.4483C35.7931 12.6678 35.8803 12.8783 36.0355 13.0335C36.1907 13.1887 36.4012 13.2759 36.6207 13.2759H37.4483V11.6207H36.6207Z" fill="white"/>
<path d="M38.2759 11.6207C38.4954 11.6207 38.7059 11.7079 38.8611 11.8631C39.0163 12.0183 39.1034 12.2288 39.1034 12.4483C39.1034 12.6678 39.0163 12.8783 38.8611 13.0335C38.7059 13.1887 38.4954 13.2759 38.2759 13.2759H37.4483V11.6207H38.2759Z" fill="white"/>
<path d="M42.4138 11.6207H44.069V13.2759H42.4138V11.6207Z" fill="white"/>
<path d="M45.7241 11.6207C45.7241 12.0597 45.8985 12.4807 46.2089 12.7911C46.5193 13.1015 46.9403 13.2759 47.3793 13.2759V11.6207H45.7241Z" fill="white"/>
<path d="M47.3793 11.6207H49.0345V13.2759H47.3793V11.6207Z" fill="white"/>
<path d="M49.0345 13.2759C49.4735 13.2759 49.8945 13.1015 50.2049 12.7911C50.5153 12.4807 50.6897 12.0597 50.6897 11.6207H49.0345V13.2759Z" fill="white"/>
<path d="M52.3448 11.6207H54V13.2759H52.3448V11.6207Z" fill="white"/>
<path d="M6 13.2759H7.65517V14.931H6V13.2759Z" fill="white"/>
<path d="M15.931 13.2759H17.5862V14.931H15.931V13.2759Z" fill="white"/>
<path d="M21.7241 13.2759C21.9436 13.2759 22.1541 13.3631 22.3093 13.5183C22.4645 13.6735 22.5517 13.884 22.5517 14.1034C22.5517 14.3229 22.4645 14.5334 22.3093 14.6886C22.1541 14.8438 21.9436 14.931 21.7241 14.931C21.5046 14.931 21.2941 14.8438 21.1389 14.6886C20.9837 14.5334 20.8966 14.3229 20.8966 14.1034C20.8966 13.884 20.9837 13.6735 21.1389 13.5183C21.2941 13.3631 21.5046 13.2759 21.7241 13.2759Z" fill="white"/>
<path d="M24.2069 14.1034C24.2069 14.3229 24.2941 14.5334 24.4493 14.6886C24.6045 14.8438 24.815 14.931 25.0345 14.931C25.254 14.931 25.4645 14.8438 25.6197 14.6886C25.7749 14.5334 25.8621 14.3229 25.8621 14.1034V13.2759H24.2069V14.1034Z" fill="white"/>
<path d="M28.3448 13.2759C28.5643 13.2759 28.7748 13.3631 28.93 13.5183C29.0852 13.6735 29.1724 13.884 29.1724 14.1034C29.1724 14.3229 29.0852 14.5334 28.93 14.6886C28.7748 14.8438 28.5643 14.931 28.3448 14.931C28.1253 14.931 27.9148 14.8438 27.7596 14.6886C27.6044 14.5334 27.5172 14.3229 27.5172 14.1034C27.5172 13.884 27.6044 13.6735 27.7596 13.5183C27.9148 13.3631 28.1253 13.2759 28.3448 13.2759Z" fill="white"/>
<path d="M31.6552 13.2759C31.8747 13.2759 32.0852 13.3631 32.2404 13.5183C32.3956 13.6735 32.4828 13.884 32.4828 14.1034C32.4828 14.3229 32.3956 14.5334 32.2404 14.6886C32.0852 14.8438 31.8747 14.931 31.6552 14.931C31.4357 14.931 31.2252 14.8438 31.07 14.6886C30.9148 14.5334 30.8276 14.3229 30.8276 14.1034C30.8276 13.884 30.9148 13.6735 31.07 13.5183C31.2252 13.3631 31.4357 13.2759 31.6552 13.2759Z" fill="white"/>
<path d="M39.1034 14.1034C39.1034 13.884 39.1906 13.6735 39.3458 13.5183C39.501 13.3631 39.7115 13.2759 39.931 13.2759C40.1505 13.2759 40.361 13.3631 40.5162 13.5183C40.6714 13.6735 40.7586 13.884 40.7586 14.1034V14.931H39.1034V14.1034Z" fill="white"/>
<path d="M42.4138 13.2759H44.069V14.931H42.4138V13.2759Z" fill="white"/>
<path d="M52.3448 13.2759H54V14.931H52.3448V13.2759Z" fill="white"/>
<path d="M6 14.931C6 15.37 6.17438 15.791 6.48479 16.1014C6.79519 16.4118 7.21619 16.5862 7.65517 16.5862V14.931H6Z" fill="white"/>
<path d="M7.65517 14.931H9.31034V16.5862H7.65517V14.931Z" fill="white"/>
<path d="M9.31034 14.931H10.9655V16.5862H9.31034V14.931Z" fill="white"/>
<path d="M10.9655 14.931H12.6207V16.5862H10.9655V14.931Z" fill="white"/>
<path d="M12.6207 14.931H14.2759V16.5862H12.6207V14.931Z" fill="white"/>
<path d="M14.2759 14.931H15.931V16.5862H14.2759V14.931Z" fill="white"/>
<path d="M15.931 16.5862C16.37 16.5862 16.791 16.4118 17.1014 16.1014C17.4118 15.791 17.5862 15.37 17.5862 14.931H15.931V16.5862Z" fill="white"/>
<path d="M20.069 14.931C20.2885 14.931 20.499 15.0182 20.6542 15.1734C20.8094 15.3286 20.8966 15.5391 20.8966 15.7586C20.8966 15.9781 20.8094 16.1886 20.6542 16.3438C20.499 16.499 20.2885 16.5862 20.069 16.5862C19.8495 16.5862 19.639 16.499 19.4838 16.3438C19.3286 16.1886 19.2414 15.9781 19.2414 15.7586C19.2414 15.5391 19.3286 15.3286 19.4838 15.1734C19.639 15.0182 19.8495 14.931 20.069 14.931Z" fill="white"/>
<path d="M22.5517 15.7586C22.5517 15.5391 22.6389 15.3286 22.7941 15.1734C22.9493 15.0182 23.1598 14.931 23.3793 14.931C23.5988 14.931 23.8093 15.0182 23.9645 15.1734C24.1197 15.3286 24.2069 15.5391 24.2069 15.7586V16.5862H22.5517V15.7586Z" fill="white"/>
<path d="M25.8621 15.7586C25.8621 15.5391 25.9493 15.3286 26.1045 15.1734C26.2597 15.0182 26.4702 14.931 26.6897 14.931C26.9091 14.931 27.1196 15.0182 27.2748 15.1734C27.4301 15.3286 27.5172 15.5391 27.5172 15.7586V16.5862H25.8621V15.7586Z" fill="white"/>
<path d="M29.1724 15.7586C29.1724 15.5391 29.2596 15.3286 29.4148 15.1734C29.57 15.0182 29.7805 14.931 30 14.931C30.2195 14.931 30.43 15.0182 30.5852 15.1734C30.7404 15.3286 30.8276 15.5391 30.8276 15.7586V16.5862H29.1724V15.7586Z" fill="white"/>
<path d="M33.3103 14.931C33.5298 14.931 33.7403 15.0182 33.8955 15.1734C34.0507 15.3286 34.1379 15.5391 34.1379 15.7586C34.1379 15.9781 34.0507 16.1886 33.8955 16.3438C33.7403 16.499 33.5298 16.5862 33.3103 16.5862C33.0909 16.5862 32.8804 16.499 32.7252 16.3438C32.5699 16.1886 32.4828 15.9781 32.4828 15.7586C32.4828 15.5391 32.5699 15.3286 32.7252 15.1734C32.8804 15.0182 33.0909 14.931 33.3103 14.931Z" fill="white"/>
<path d="M35.7931 15.7586C35.7931 15.5391 35.8803 15.3286 36.0355 15.1734C36.1907 15.0182 36.4012 14.931 36.6207 14.931C36.8402 14.931 37.0507 15.0182 37.2059 15.1734C37.3611 15.3286 37.4483 15.5391 37.4483 15.7586V16.5862H35.7931V15.7586Z" fill="white"/>
<path d="M39.1034 14.931H40.7586V16.5862H39.1034V14.931Z" fill="white"/>
<path d="M42.4138 14.931C42.4138 15.37 42.5882 15.791 42.8986 16.1014C43.209 16.4118 43.63 16.5862 44.069 16.5862V14.931H42.4138Z" fill="white"/>
<path d="M44.069 14.931H45.7241V16.5862H44.069V14.931Z" fill="white"/>
<path d="M45.7241 14.931H47.3793V16.5862H45.7241V14.931Z" fill="white"/>
<path d="M47.3793 14.931H49.0345V16.5862H47.3793V14.931Z" fill="white"/>
<path d="M49.0345 14.931H50.6897V16.5862H49.0345V14.931Z" fill="white"/>
<path d="M50.6897 14.931H52.3448V16.5862H50.6897V14.931Z" fill="white"/>
<path d="M52.3448 16.5862C52.7838 16.5862 53.2048 16.4118 53.5152 16.1014C53.8256 15.791 54 15.37 54 14.931H52.3448V16.5862Z" fill="white"/>
<path d="M20.8966 18.2414C20.8966 17.8024 21.0709 17.3814 21.3813 17.071C21.6917 16.7606 22.1127 16.5862 22.5517 16.5862V18.2414H20.8966Z" fill="white"/>
<path d="M22.5517 16.5862H24.2069V18.2414H22.5517V16.5862Z" fill="white"/>
<path d="M25.8621 17.4138C25.8621 17.6333 25.9493 17.8438 26.1045 17.999C26.2597 18.1542 26.4702 18.2414 26.6897 18.2414C26.9091 18.2414 27.1196 18.1542 27.2748 17.999C27.4301 17.8438 27.5172 17.6333 27.5172 17.4138V16.5862H25.8621V17.4138Z" fill="white"/>
<path d="M29.1724 17.4138C29.1724 17.6333 29.2596 17.8438 29.4148 17.999C29.57 18.1542 29.7805 18.2414 30 18.2414C30.2195 18.2414 30.43 18.1542 30.5852 17.999C30.7404 17.8438 30.8276 17.6333 30.8276 17.4138V16.5862H29.1724V17.4138Z" fill="white"/>
<path d="M34.9655 16.5862C34.746 16.5862 34.5355 16.6734 34.3803 16.8286C34.2251 16.9838 34.1379 17.1943 34.1379 17.4138C34.1379 17.6333 34.2251 17.8438 34.3803 17.999C34.5355 18.1542 34.746 18.2414 34.9655 18.2414H35.7931V16.5862H34.9655Z" fill="white"/>
<path d="M35.7931 16.5862H37.4483V18.2414H35.7931V16.5862Z" fill="white"/>
<path d="M37.4483 16.5862H39.1034V18.2414H37.4483V16.5862Z" fill="white"/>
<path d="M39.1034 18.2414C39.5424 18.2414 39.9634 18.067 40.2738 17.7566C40.5842 17.4462 40.7586 17.0252 40.7586 16.5862H39.1034V18.2414Z" fill="white"/>
<path d="M10.9655 19.8966C10.9655 19.4576 11.1399 19.0366 11.4503 18.7262C11.7607 18.4158 12.1817 18.2414 12.6207 18.2414V19.8966H10.9655Z" fill="white"/>
<path d="M13.4483 18.2414C13.6678 18.2414 13.8783 18.3286 14.0335 18.4838C14.1887 18.639 14.2759 18.8495 14.2759 19.069C14.2759 19.2885 14.1887 19.499 14.0335 19.6542C13.8783 19.8094 13.6678 19.8966 13.4483 19.8966H12.6207V18.2414H13.4483Z" fill="white"/>
<path d="M16.7586 18.2414C16.5391 18.2414 16.3286 18.3286 16.1734 18.4838C16.0182 18.639 15.931 18.8495 15.931 19.069C15.931 19.2885 16.0182 19.499 16.1734 19.6542C16.3286 19.8094 16.5391 19.8966 16.7586 19.8966H17.5862V18.2414H16.7586Z" fill="white"/>
<path d="M17.5862 18.2414C18.0252 18.2414 18.4462 18.4158 18.7566 18.7262C19.067 19.0366 19.2414 19.4576 19.2414 19.8966H17.5862V18.2414Z" fill="white"/>
<path d="M20.8966 18.2414C20.8966 18.6804 21.0709 19.1014 21.3813 19.4118C21.6917 19.7222 22.1127 19.8966 22.5517 19.8966V18.2414H20.8966Z" fill="white"/>
<path d="M22.5517 18.2414H24.2069V19.8966H22.5517V18.2414Z" fill="white"/>
<path d="M25.0345 18.2414C25.254 18.2414 25.4645 18.3286 25.6197 18.4838C25.7749 18.639 25.8621 18.8495 25.8621 19.069C25.8621 19.2885 25.7749 19.499 25.6197 19.6542C25.4645 19.8094 25.254 19.8966 25.0345 19.8966H24.2069V18.2414H25.0345Z" fill="white"/>
<path d="M27.5172 19.069C27.5172 18.8495 27.6044 18.639 27.7596 18.4838C27.9148 18.3286 28.1253 18.2414 28.3448 18.2414C28.5643 18.2414 28.7748 18.3286 28.93 18.4838C29.0852 18.639 29.1724 18.8495 29.1724 19.069V19.8966H27.5172V19.069Z" fill="white"/>
<path d="M37.4483 19.069C37.4483 19.2885 37.5355 19.499 37.6907 19.6542C37.8459 19.8094 38.0564 19.8966 38.2759 19.8966C38.4954 19.8966 38.7059 19.8094 38.8611 19.6542C39.0163 19.499 39.1034 19.2885 39.1034 19.069V18.2414H37.4483V19.069Z" fill="white"/>
<path d="M48.2069 18.2414C47.9874 18.2414 47.7769 18.3286 47.6217 18.4838C47.4665 18.639 47.3793 18.8495 47.3793 19.069C47.3793 19.2885 47.4665 19.499 47.6217 19.6542C47.7769 19.8094 47.9874 19.8966 48.2069 19.8966H49.0345V18.2414H48.2069Z" fill="white"/>
<path d="M49.0345 18.2414C49.4735 18.2414 49.8945 18.4158 50.2049 18.7262C50.5153 19.0366 50.6897 19.4576 50.6897 19.8966H49.0345V18.2414Z" fill="white"/>
<path d="M7.65517 21.5517C7.65517 21.1127 7.82956 20.6917 8.13996 20.3813C8.45037 20.0709 8.87137 19.8966 9.31034 19.8966V21.5517H7.65517Z" fill="white"/>
<path d="M9.31034 19.8966H10.9655V21.5517H9.31034V19.8966Z" fill="white"/>
<path d="M10.9655 21.5517C11.4045 21.5517 11.8255 21.3773 12.1359 21.0669C12.4463 20.7565 12.6207 20.3355 12.6207 19.8966H10.9655V21.5517Z" fill="white"/>
<path d="M14.2759 20.7241C14.2759 20.5046 14.3631 20.2941 14.5183 20.1389C14.6735 19.9837 14.884 19.8966 15.1034 19.8966C15.3229 19.8966 15.5334 19.9837 15.6886 20.1389C15.8438 20.2941 15.931 20.5046 15.931 20.7241V21.5517H14.2759V20.7241Z" fill="white"/>
<path d="M17.5862 19.8966H19.2414V21.5517H17.5862V19.8966Z" fill="white"/>
<path d="M19.2414 19.8966C19.6804 19.8966 20.1014 20.0709 20.4118 20.3813C20.7222 20.6917 20.8966 21.1127 20.8966 21.5517H19.2414V19.8966Z" fill="white"/>
<path d="M26.6897 19.8966C26.4702 19.8966 26.2597 19.9837 26.1045 20.1389C25.9493 20.2941 25.8621 20.5046 25.8621 20.7241C25.8621 20.9436 25.9493 21.1541 26.1045 21.3093C26.2597 21.4645 26.4702 21.5517 26.6897 21.5517H27.5172V19.8966H26.6897Z" fill="white"/>
<path d="M27.5172 19.8966H29.1724V21.5517H27.5172V19.8966Z" fill="white"/>
<path d="M30 19.8966C30.2195 19.8966 30.43 19.9837 30.5852 20.1389C30.7404 20.2941 30.8276 20.5046 30.8276 20.7241C30.8276 20.9436 30.7404 21.1541 30.5852 21.3093C30.43 21.4645 30.2195 21.5517 30 21.5517H29.1724V19.8966H30Z" fill="white"/>
<path d="M33.3103 19.8966C33.0909 19.8966 32.8804 19.9837 32.7252 20.1389C32.5699 20.2941 32.4828 20.5046 32.4828 20.7241C32.4828 20.9436 32.5699 21.1541 32.7252 21.3093C32.8804 21.4645 33.0909 21.5517 33.3103 21.5517H34.1379V19.8966H33.3103Z" fill="white"/>
<path d="M34.1379 19.8966H35.7931V21.5517H34.1379V19.8966Z" fill="white"/>
<path d="M36.6207 19.8966C36.8402 19.8966 37.0507 19.9837 37.2059 20.1389C37.3611 20.2941 37.4483 20.5046 37.4483 20.7241C37.4483 20.9436 37.3611 21.1541 37.2059 21.3093C37.0507 21.4645 36.8402 21.5517 36.6207 21.5517H35.7931V19.8966H36.6207Z" fill="white"/>
<path d="M44.069 21.5517C44.069 21.1127 44.2434 20.6917 44.5538 20.3813C44.8642 20.0709 45.2852 19.8966 45.7241 19.8966V21.5517H44.069Z" fill="white"/>
<path d="M46.5517 19.8966C46.7712 19.8966 46.9817 19.9837 47.1369 20.1389C47.2921 20.2941 47.3793 20.5046 47.3793 20.7241C47.3793 20.9436 47.2921 21.1541 47.1369 21.3093C46.9817 21.4645 46.7712 21.5517 46.5517 21.5517H45.7241V19.8966H46.5517Z" fill="white"/>
<path d="M49.0345 19.8966H50.6897V21.5517H49.0345V19.8966Z" fill="white"/>
<path d="M51.5172 19.8966C51.7367 19.8966 51.9472 19.9837 52.1024 20.1389C52.2576 20.2941 52.3448 20.5046 52.3448 20.7241C52.3448 20.9436 52.2576 21.1541 52.1024 21.3093C51.9472 21.4645 51.7367 21.5517 51.5172 21.5517H50.6897V19.8966H51.5172Z" fill="white"/>
<path d="M7.65517 22.3793C7.65517 22.5988 7.74236 22.8093 7.89757 22.9645C8.05277 23.1197 8.26327 23.2069 8.48276 23.2069C8.70225 23.2069 8.91275 23.1197 9.06795 22.9645C9.22315 22.8093 9.31034 22.5988 9.31034 22.3793V21.5517H7.65517V22.3793Z" fill="white"/>
<path d="M14.2759 21.5517H15.931V23.2069H14.2759V21.5517Z" fill="white"/>
<path d="M15.931 21.5517H17.5862V23.2069H15.931V21.5517Z" fill="white"/>
<path d="M17.5862 21.5517H19.2414V23.2069H17.5862V21.5517Z" fill="white"/>
<path d="M19.2414 21.5517H20.8966V23.2069H19.2414V21.5517Z" fill="white"/>
<path d="M37.4483 23.2069C37.4483 22.7679 37.6227 22.3469 37.9331 22.0365C38.2435 21.7261 38.6645 21.5517 39.1034 21.5517V23.2069H37.4483Z" fill="white"/>
<path d="M39.1034 21.5517H40.7586V23.2069H39.1034V21.5517Z" fill="white"/>
<path d="M40.7586 21.5517H42.4138V23.2069H40.7586V21.5517Z" fill="white"/>
<path d="M42.4138 21.5517H44.069V23.2069H42.4138V21.5517Z" fill="white"/>
<path d="M44.069 23.2069C44.5079 23.2069 44.9289 23.0325 45.2393 22.7221C45.5498 22.4117 45.7241 21.9907 45.7241 21.5517H44.069V23.2069Z" fill="white"/>
<path d="M47.3793 23.2069C47.3793 22.7679 47.5537 22.3469 47.8641 22.0365C48.1745 21.7261 48.5955 21.5517 49.0345 21.5517V23.2069H47.3793Z" fill="white"/>
<path d="M49.0345 23.2069C49.4735 23.2069 49.8945 23.0325 50.2049 22.7221C50.5153 22.4117 50.6897 21.9907 50.6897 21.5517H49.0345V23.2069Z" fill="white"/>
<path d="M9.31034 24.0345C9.31034 23.815 9.39754 23.6045 9.55274 23.4493C9.70794 23.2941 9.91844 23.2069 10.1379 23.2069C10.3574 23.2069 10.5679 23.2941 10.7231 23.4493C10.8783 23.6045 10.9655 23.815 10.9655 24.0345V24.8621H9.31034V24.0345Z" fill="white"/>
<path d="M13.4483 23.2069C13.2288 23.2069 13.0183 23.2941 12.8631 23.4493C12.7079 23.6045 12.6207 23.815 12.6207 24.0345C12.6207 24.254 12.7079 24.4645 12.8631 24.6197C13.0183 24.7749 13.2288 24.8621 13.4483 24.8621H14.2759V23.2069H13.4483Z" fill="white"/>
<path d="M14.2759 24.8621C14.7148 24.8621 15.1358 24.6877 15.4462 24.3773C15.7567 24.0669 15.931 23.6459 15.931 23.2069H14.2759V24.8621Z" fill="white"/>
<path d="M19.2414 23.2069H20.8966V24.8621H19.2414V23.2069Z" fill="white"/>
<path d="M37.4483 23.2069C37.4483 23.6459 37.6227 24.0669 37.9331 24.3773C38.2435 24.6877 38.6645 24.8621 39.1034 24.8621V23.2069H37.4483Z" fill="white"/>
<path d="M39.1034 23.2069H40.7586V24.8621H39.1034V23.2069Z" fill="white"/>
<path d="M47.3793 23.2069H49.0345V24.8621H47.3793V23.2069Z" fill="white"/>
<path d="M53.1724 23.2069C53.3919 23.2069 53.6024 23.2941 53.7576 23.4493C53.9128 23.6045 54 23.815 54 24.0345C54 24.254 53.9128 24.4645 53.7576 24.6197C53.6024 24.7749 53.3919 24.8621 53.1724 24.8621C52.9529 24.8621 52.7424 24.7749 52.5872 24.6197C52.432 24.4645 52.3448 24.254 52.3448 24.0345C52.3448 23.815 52.432 23.6045 52.5872 23.4493C52.7424 23.2941 52.9529 23.2069 53.1724 23.2069Z" fill="white"/>
<path d="M7.65517 26.5172C7.65517 26.0783 7.82956 25.6573 8.13996 25.3469C8.45037 25.0365 8.87137 24.8621 9.31034 24.8621V26.5172H7.65517Z" fill="white"/>
<path d="M9.31034 24.8621H10.9655V26.5172H9.31034V24.8621Z" fill="white"/>
<path d="M16.7586 24.8621C16.9781 24.8621 17.1886 24.9493 17.3438 25.1045C17.499 25.2597 17.5862 25.4702 17.5862 25.6897C17.5862 25.9091 17.499 26.1196 17.3438 26.2748C17.1886 26.4301 16.9781 26.5172 16.7586 26.5172C16.5391 26.5172 16.3286 26.4301 16.1734 26.2748C16.0182 26.1196 15.931 25.9091 15.931 25.6897C15.931 25.4702 16.0182 25.2597 16.1734 25.1045C16.3286 24.9493 16.5391 24.8621 16.7586 24.8621Z" fill="white"/>
<path d="M19.2414 25.6897C19.2414 25.9091 19.3286 26.1196 19.4838 26.2748C19.639 26.4301 19.8495 26.5172 20.069 26.5172C20.2885 26.5172 20.499 26.4301 20.6542 26.2748C20.8094 26.1196 20.8966 25.9091 20.8966 25.6897V24.8621H19.2414V25.6897Z" fill="white"/>
<path d="M39.1034 24.8621C39.1034 25.301 39.2778 25.722 39.5882 26.0325C39.8986 26.3429 40.3196 26.5172 40.7586 26.5172V24.8621H39.1034Z" fill="white"/>
<path d="M40.7586 24.8621H42.4138V26.5172H40.7586V24.8621Z" fill="white"/>
<path d="M42.4138 24.8621C42.8528 24.8621 43.2738 25.0365 43.5842 25.3469C43.8946 25.6573 44.069 26.0783 44.069 26.5172H42.4138V24.8621Z" fill="white"/>
<path d="M47.3793 25.6897C47.3793 25.9091 47.4665 26.1196 47.6217 26.2748C47.7769 26.4301 47.9874 26.5172 48.2069 26.5172C48.4264 26.5172 48.6369 26.4301 48.7921 26.2748C48.9473 26.1196 49.0345 25.9091 49.0345 25.6897V24.8621H47.3793V25.6897Z" fill="white"/>
<path d="M51.5172 24.8621C51.7367 24.8621 51.9472 24.9493 52.1024 25.1045C52.2576 25.2597 52.3448 25.4702 52.3448 25.6897C52.3448 25.9091 52.2576 26.1196 52.1024 26.2748C51.9472 26.4301 51.7367 26.5172 51.5172 26.5172C51.2978 26.5172 51.0873 26.4301 50.9321 26.2748C50.7768 26.1196 50.6897 25.9091 50.6897 25.6897C50.6897 25.4702 50.7768 25.2597 50.9321 25.1045C51.0873 24.9493 51.2978 24.8621 51.5172 24.8621Z" fill="white"/>
<path d="M7.65517 26.5172C7.65517 26.9562 7.82956 27.3772 8.13996 27.6876C8.45037 27.998 8.87137 28.1724 9.31034 28.1724V26.5172H7.65517Z" fill="white"/>
<path d="M9.31034 26.5172H10.9655V28.1724H9.31034V26.5172Z" fill="white"/>
<path d="M13.4483 26.5172C13.6678 26.5172 13.8783 26.6044 14.0335 26.7596C14.1887 26.9148 14.2759 27.1253 14.2759 27.3448C14.2759 27.5643 14.1887 27.7748 14.0335 27.93C13.8783 28.0852 13.6678 28.1724 13.4483 28.1724C13.2288 28.1724 13.0183 28.0852 12.8631 27.93C12.7079 27.7748 12.6207 27.5643 12.6207 27.3448C12.6207 27.1253 12.7079 26.9148 12.8631 26.7596C13.0183 26.6044 13.2288 26.5172 13.4483 26.5172Z" fill="white"/>
<path d="M18.4138 26.5172C18.6333 26.5172 18.8438 26.6044 18.999 26.7596C19.1542 26.9148 19.2414 27.1253 19.2414 27.3448C19.2414 27.5643 19.1542 27.7748 18.999 27.93C18.8438 28.0852 18.6333 28.1724 18.4138 28.1724C18.1943 28.1724 17.9838 28.0852 17.8286 27.93C17.6734 27.7748 17.5862 27.5643 17.5862 27.3448C17.5862 27.1253 17.6734 26.9148 17.8286 26.7596C17.9838 26.6044 18.1943 26.5172 18.4138 26.5172Z" fill="white"/>
<path d="M21.7241 26.5172C21.9436 26.5172 22.1541 26.6044 22.3093 26.7596C22.4645 26.9148 22.5517 27.1253 22.5517 27.3448C22.5517 27.5643 22.4645 27.7748 22.3093 27.93C22.1541 28.0852 21.9436 28.1724 21.7241 28.1724C21.5046 28.1724 21.2941 28.0852 21.1389 27.93C20.9837 27.7748 20.8966 27.5643 20.8966 27.3448C20.8966 27.1253 20.9837 26.9148 21.1389 26.7596C21.2941 26.6044 21.5046 26.5172 21.7241 26.5172Z" fill="white"/>
<path d="M42.4138 26.5172H44.069V28.1724H42.4138V26.5172Z" fill="white"/>
<path d="M46.5517 26.5172C46.7712 26.5172 46.9817 26.6044 47.1369 26.7596C47.2921 26.9148 47.3793 27.1253 47.3793 27.3448C47.3793 27.5643 47.2921 27.7748 47.1369 27.93C46.9817 28.0852 46.7712 28.1724 46.5517 28.1724C46.3322 28.1724 46.1217 28.0852 45.9665 27.93C45.8113 27.7748 45.7241 27.5643 45.7241 27.3448C45.7241 27.1253 45.8113 26.9148 45.9665 26.7596C46.1217 26.6044 46.3322 26.5172 46.5517 26.5172Z" fill="white"/>
<path d="M49.8621 26.5172C50.0816 26.5172 50.2921 26.6044 50.4473 26.7596C50.6025 26.9148 50.6897 27.1253 50.6897 27.3448C50.6897 27.5643 50.6025 27.7748 50.4473 27.93C50.2921 28.0852 50.0816 28.1724 49.8621 28.1724C49.6426 28.1724 49.4321 28.0852 49.2769 27.93C49.1217 27.7748 49.0345 27.5643 49.0345 27.3448C49.0345 27.1253 49.1217 26.9148 49.2769 26.7596C49.4321 26.6044 49.6426 26.5172 49.8621 26.5172Z" fill="white"/>
<path d="M52.3448 27.3448C52.3448 27.1253 52.432 26.9148 52.5872 26.7596C52.7424 26.6044 52.9529 26.5172 53.1724 26.5172C53.3919 26.5172 53.6024 26.6044 53.7576 26.7596C53.9128 26.9148 54 27.1253 54 27.3448V28.1724H52.3448V27.3448Z" fill="white"/>
<path d="M9.31034 28.1724C9.31034 28.6114 9.48473 29.0324 9.79513 29.3428C10.1055 29.6532 10.5265 29.8276 10.9655 29.8276V28.1724H9.31034Z" fill="white"/>
<path d="M10.9655 28.1724C11.4045 28.1724 11.8255 28.3468 12.1359 28.6572C12.4463 28.9676 12.6207 29.3886 12.6207 29.8276H10.9655V28.1724Z" fill="white"/>
<path d="M16.7586 28.1724C16.9781 28.1724 17.1886 28.2596 17.3438 28.4148C17.499 28.57 17.5862 28.7805 17.5862 29C17.5862 29.2195 17.499 29.43 17.3438 29.5852C17.1886 29.7404 16.9781 29.8276 16.7586 29.8276C16.5391 29.8276 16.3286 29.7404 16.1734 29.5852C16.0182 29.43 15.931 29.2195 15.931 29C15.931 28.7805 16.0182 28.57 16.1734 28.4148C16.3286 28.2596 16.5391 28.1724 16.7586 28.1724Z" fill="white"/>
<path d="M20.069 28.1724C20.2885 28.1724 20.499 28.2596 20.6542 28.4148C20.8094 28.57 20.8966 28.7805 20.8966 29C20.8966 29.2195 20.8094 29.43 20.6542 29.5852C20.499 29.7404 20.2885 29.8276 20.069 29.8276C19.8495 29.8276 19.639 29.7404 19.4838 29.5852C19.3286 29.43 19.2414 29.2195 19.2414 29C19.2414 28.7805 19.3286 28.57 19.4838 28.4148C19.639 28.2596 19.8495 28.1724 20.069 28.1724Z" fill="white"/>
<path d="M38.2759 28.1724C38.4954 28.1724 38.7059 28.2596 38.8611 28.4148C39.0163 28.57 39.1034 28.7805 39.1034 29C39.1034 29.2195 39.0163 29.43 38.8611 29.5852C38.7059 29.7404 38.4954 29.8276 38.2759 29.8276C38.0564 29.8276 37.8459 29.7404 37.6907 29.5852C37.5355 29.43 37.4483 29.2195 37.4483 29C37.4483 28.7805 37.5355 28.57 37.6907 28.4148C37.8459 28.2596 38.0564 28.1724 38.2759 28.1724Z" fill="white"/>
<path d="M40.7586 29.8276C40.7586 29.3886 40.933 28.9676 41.2434 28.6572C41.5538 28.3468 41.9748 28.1724 42.4138 28.1724V29.8276H40.7586Z" fill="white"/>
<path d="M42.4138 28.1724H44.069V29.8276H42.4138V28.1724Z" fill="white"/>
<path d="M44.8966 28.1724C45.116 28.1724 45.3265 28.2596 45.4817 28.4148C45.6369 28.57 45.7241 28.7805 45.7241 29C45.7241 29.2195 45.6369 29.43 45.4817 29.5852C45.3265 29.7404 45.116 29.8276 44.8966 29.8276H44.069V28.1724H44.8966Z" fill="white"/>
<path d="M47.3793 29C47.3793 28.7805 47.4665 28.57 47.6217 28.4148C47.7769 28.2596 47.9874 28.1724 48.2069 28.1724C48.4264 28.1724 48.6369 28.2596 48.7921 28.4148C48.9473 28.57 49.0345 28.7805 49.0345 29V29.8276H47.3793V29Z" fill="white"/>
<path d="M52.3448 29C52.3448 29.2195 52.432 29.43 52.5872 29.5852C52.7424 29.7404 52.9529 29.8276 53.1724 29.8276C53.3919 29.8276 53.6024 29.7404 53.7576 29.5852C53.9128 29.43 54 29.2195 54 29V28.1724H52.3448V29Z" fill="white"/>
<path d="M6 31.4828C6 31.0438 6.17438 30.6228 6.48479 30.3124C6.79519 30.002 7.21619 29.8276 7.65517 29.8276V31.4828H6Z" fill="white"/>
<path d="M7.65517 29.8276C8.09415 29.8276 8.51515 30.002 8.82556 30.3124C9.13596 30.6228 9.31034 31.0438 9.31034 31.4828H7.65517V29.8276Z" fill="white"/>
<path d="M10.9655 29.8276H12.6207V31.4828H10.9655V29.8276Z" fill="white"/>
<path d="M13.4483 29.8276C13.6678 29.8276 13.8783 29.9148 14.0335 30.07C14.1887 30.2252 14.2759 30.4357 14.2759 30.6552C14.2759 30.8747 14.1887 31.0852 14.0335 31.2404C13.8783 31.3956 13.6678 31.4828 13.4483 31.4828H12.6207V29.8276H13.4483Z" fill="white"/>
<path d="M18.4138 29.8276C18.6333 29.8276 18.8438 29.9148 18.999 30.07C19.1542 30.2252 19.2414 30.4357 19.2414 30.6552C19.2414 30.8747 19.1542 31.0852 18.999 31.2404C18.8438 31.3956 18.6333 31.4828 18.4138 31.4828C18.1943 31.4828 17.9838 31.3956 17.8286 31.2404C17.6734 31.0852 17.5862 30.8747 17.5862 30.6552C17.5862 30.4357 17.6734 30.2252 17.8286 30.07C17.9838 29.9148 18.1943 29.8276 18.4138 29.8276Z" fill="white"/>
<path d="M40.7586 30.6552C40.7586 30.8747 40.8458 31.0852 41.001 31.2404C41.1562 31.3956 41.3667 31.4828 41.5862 31.4828C41.8057 31.4828 42.0162 31.3956 42.1714 31.2404C42.3266 31.0852 42.4138 30.8747 42.4138 30.6552V29.8276H40.7586V30.6552Z" fill="white"/>
<path d="M46.5517 29.8276C46.3322 29.8276 46.1217 29.9148 45.9665 30.07C45.8113 30.2252 45.7241 30.4357 45.7241 30.6552C45.7241 30.8747 45.8113 31.0852 45.9665 31.2404C46.1217 31.3956 46.3322 31.4828 46.5517 31.4828H47.3793V29.8276H46.5517Z" fill="white"/>
<path d="M47.3793 29.8276H49.0345V31.4828H47.3793V29.8276Z" fill="white"/>
<path d="M49.0345 29.8276H50.6897V31.4828H49.0345V29.8276Z" fill="white"/>
<path d="M50.6897 29.8276C51.1286 29.8276 51.5496 30.002 51.86 30.3124C52.1704 30.6228 52.3448 31.0438 52.3448 31.4828H50.6897V29.8276Z" fill="white"/>
<path d="M6 31.4828H7.65517V33.1379H6V31.4828Z" fill="white"/>
<path d="M7.65517 31.4828H9.31034V33.1379H7.65517V31.4828Z" fill="white"/>
<path d="M9.31034 31.4828H10.9655V33.1379H9.31034V31.4828Z" fill="white"/>
<path d="M10.9655 33.1379C11.4045 33.1379 11.8255 32.9635 12.1359 32.6531C12.4463 32.3427 12.6207 31.9217 12.6207 31.4828H10.9655V33.1379Z" fill="white"/>
<path d="M16.7586 31.4828C16.9781 31.4828 17.1886 31.5699 17.3438 31.7252C17.499 31.8804 17.5862 32.0909 17.5862 32.3103C17.5862 32.5298 17.499 32.7403 17.3438 32.8955C17.1886 33.0507 16.9781 33.1379 16.7586 33.1379C16.5391 33.1379 16.3286 33.0507 16.1734 32.8955C16.0182 32.7403 15.931 32.5298 15.931 32.3103C15.931 32.0909 16.0182 31.8804 16.1734 31.7252C16.3286 31.5699 16.5391 31.4828 16.7586 31.4828Z" fill="white"/>
<path d="M20.069 31.4828C20.2885 31.4828 20.499 31.5699 20.6542 31.7252C20.8094 31.8804 20.8966 32.0909 20.8966 32.3103C20.8966 32.5298 20.8094 32.7403 20.6542 32.8955C20.499 33.0507 20.2885 33.1379 20.069 33.1379C19.8495 33.1379 19.639 33.0507 19.4838 32.8955C19.3286 32.7403 19.2414 32.5298 19.2414 32.3103C19.2414 32.0909 19.3286 31.8804 19.4838 31.7252C19.639 31.5699 19.8495 31.4828 20.069 31.4828Z" fill="white"/>
<path d="M39.931 31.4828C40.1505 31.4828 40.361 31.5699 40.5162 31.7252C40.6714 31.8804 40.7586 32.0909 40.7586 32.3103C40.7586 32.5298 40.6714 32.7403 40.5162 32.8955C40.361 33.0507 40.1505 33.1379 39.931 33.1379C39.7115 33.1379 39.501 33.0507 39.3458 32.8955C39.1906 32.7403 39.1034 32.5298 39.1034 32.3103C39.1034 32.0909 39.1906 31.8804 39.3458 31.7252C39.501 31.5699 39.7115 31.4828 39.931 31.4828Z" fill="white"/>
<path d="M44.069 32.3103C44.069 32.0909 44.1562 31.8804 44.3114 31.7252C44.4666 31.5699 44.6771 31.4828 44.8966 31.4828C45.116 31.4828 45.3265 31.5699 45.4817 31.7252C45.6369 31.8804 45.7241 32.0909 45.7241 32.3103V33.1379H44.069V32.3103Z" fill="white"/>
<path d="M47.3793 31.4828H49.0345V33.1379H47.3793V31.4828Z" fill="white"/>
<path d="M50.6897 32.3103C50.6897 32.5298 50.7768 32.7403 50.9321 32.8955C51.0873 33.0507 51.2978 33.1379 51.5172 33.1379C51.7367 33.1379 51.9472 33.0507 52.1024 32.8955C52.2576 32.7403 52.3448 32.5298 52.3448 32.3103V31.4828H50.6897V32.3103Z" fill="white"/>
<path d="M6 33.1379H7.65517V34.7931H6V33.1379Z" fill="white"/>
<path d="M7.65517 33.1379H9.31034V34.7931H7.65517V33.1379Z" fill="white"/>
<path d="M9.31034 34.7931C9.74932 34.7931 10.1703 34.6187 10.4807 34.3083C10.7911 33.9979 10.9655 33.5769 10.9655 33.1379H9.31034V34.7931Z" fill="white"/>
<path d="M14.2759 33.9655C14.2759 33.746 14.3631 33.5355 14.5183 33.3803C14.6735 33.2251 14.884 33.1379 15.1034 33.1379C15.3229 33.1379 15.5334 33.2251 15.6886 33.3803C15.8438 33.5355 15.931 33.746 15.931 33.9655V34.7931H14.2759V33.9655Z" fill="white"/>
<path d="M18.4138 33.1379C18.6333 33.1379 18.8438 33.2251 18.999 33.3803C19.1542 33.5355 19.2414 33.746 19.2414 33.9655C19.2414 34.185 19.1542 34.3955 18.999 34.5507C18.8438 34.7059 18.6333 34.7931 18.4138 34.7931C18.1943 34.7931 17.9838 34.7059 17.8286 34.5507C17.6734 34.3955 17.5862 34.185 17.5862 33.9655C17.5862 33.746 17.6734 33.5355 17.8286 33.3803C17.9838 33.2251 18.1943 33.1379 18.4138 33.1379Z" fill="white"/>
<path d="M21.7241 33.1379C21.9436 33.1379 22.1541 33.2251 22.3093 33.3803C22.4645 33.5355 22.5517 33.746 22.5517 33.9655C22.5517 34.185 22.4645 34.3955 22.3093 34.5507C22.1541 34.7059 21.9436 34.7931 21.7241 34.7931C21.5046 34.7931 21.2941 34.7059 21.1389 34.5507C20.9837 34.3955 20.8966 34.185 20.8966 33.9655C20.8966 33.746 20.9837 33.5355 21.1389 33.3803C21.2941 33.2251 21.5046 33.1379 21.7241 33.1379Z" fill="white"/>
<path d="M44.069 33.1379C44.069 33.5769 44.2434 33.9979 44.5538 34.3083C44.8642 34.6187 45.2852 34.7931 45.7241 34.7931V33.1379H44.069Z" fill="white"/>
<path d="M45.7241 33.1379H47.3793V34.7931H45.7241V33.1379Z" fill="white"/>
<path d="M47.3793 33.1379H49.0345V34.7931H47.3793V33.1379Z" fill="white"/>
<path d="M49.8621 33.1379C50.0816 33.1379 50.2921 33.2251 50.4473 33.3803C50.6025 33.5355 50.6897 33.746 50.6897 33.9655C50.6897 34.185 50.6025 34.3955 50.4473 34.5507C50.2921 34.7059 50.0816 34.7931 49.8621 34.7931H49.0345V33.1379H49.8621Z" fill="white"/>
<path d="M6 34.7931H7.65517V36.4483H6V34.7931Z" fill="white"/>
<path d="M7.65517 34.7931H9.31034V36.4483H7.65517V34.7931Z" fill="white"/>
<path d="M11.7931 34.7931C11.5736 34.7931 11.3631 34.8803 11.2079 35.0355C11.0527 35.1907 10.9655 35.4012 10.9655 35.6207C10.9655 35.8402 11.0527 36.0507 11.2079 36.2059C11.3631 36.3611 11.5736 36.4483 11.7931 36.4483H12.6207V34.7931H11.7931Z" fill="white"/>
<path d="M12.6207 34.7931H14.2759V36.4483H12.6207V34.7931Z" fill="white"/>
<path d="M14.2759 34.7931H15.931V36.4483H14.2759V34.7931Z" fill="white"/>
<path d="M16.7586 34.7931C16.9781 34.7931 17.1886 34.8803 17.3438 35.0355C17.499 35.1907 17.5862 35.4012 17.5862 35.6207C17.5862 35.8402 17.499 36.0507 17.3438 36.2059C17.1886 36.3611 16.9781 36.4483 16.7586 36.4483H15.931V34.7931H16.7586Z" fill="white"/>
<path d="M37.4483 35.6207C37.4483 35.4012 37.5355 35.1907 37.6907 35.0355C37.8459 34.8803 38.0564 34.7931 38.2759 34.7931C38.4954 34.7931 38.7059 34.8803 38.8611 35.0355C39.0163 35.1907 39.1034 35.4012 39.1034 35.6207V36.4483H37.4483V35.6207Z" fill="white"/>
<path d="M45.7241 34.7931C45.7241 35.2321 45.8985 35.6531 46.2089 35.9635C46.5193 36.2739 46.9403 36.4483 47.3793 36.4483V34.7931H45.7241Z" fill="white"/>
<path d="M47.3793 36.4483C47.8183 36.4483 48.2393 36.2739 48.5497 35.9635C48.8601 35.6531 49.0345 35.2321 49.0345 34.7931H47.3793V36.4483Z" fill="white"/>
<path d="M53.1724 34.7931C53.3919 34.7931 53.6024 34.8803 53.7576 35.0355C53.9128 35.1907 54 35.4012 54 35.6207C54 35.8402 53.9128 36.0507 53.7576 36.2059C53.6024 36.3611 53.3919 36.4483 53.1724 36.4483C52.9529 36.4483 52.7424 36.3611 52.5872 36.2059C52.432 36.0507 52.3448 35.8402 52.3448 35.6207C52.3448 35.4012 52.432 35.1907 52.5872 35.0355C52.7424 34.8803 52.9529 34.7931 53.1724 34.7931Z" fill="white"/>
<path d="M6 36.4483H7.65517V38.1034H6V36.4483Z" fill="white"/>
<path d="M7.65517 36.4483H9.31034V38.1034H7.65517V36.4483Z" fill="white"/>
<path d="M12.6207 36.4483H14.2759V38.1034H12.6207V36.4483Z" fill="white"/>
<path d="M17.5862 37.2759C17.5862 37.0564 17.6734 36.8459 17.8286 36.6907C17.9838 36.5355 18.1943 36.4483 18.4138 36.4483C18.6333 36.4483 18.8438 36.5355 18.999 36.6907C19.1542 36.8459 19.2414 37.0564 19.2414 37.2759V38.1034H17.5862V37.2759Z" fill="white"/>
<path d="M21.7241 36.4483C21.5046 36.4483 21.2941 36.5355 21.1389 36.6907C20.9837 36.8459 20.8966 37.0564 20.8966 37.2759C20.8966 37.4954 20.9837 37.7059 21.1389 37.8611C21.2941 38.0163 21.5046 38.1034 21.7241 38.1034H22.5517V36.4483H21.7241Z" fill="white"/>
<path d="M23.3793 36.4483C23.5988 36.4483 23.8093 36.5355 23.9645 36.6907C24.1197 36.8459 24.2069 37.0564 24.2069 37.2759C24.2069 37.4954 24.1197 37.7059 23.9645 37.8611C23.8093 38.0163 23.5988 38.1034 23.3793 38.1034H22.5517V36.4483H23.3793Z" fill="white"/>
<path d="M26.6897 36.4483C26.4702 36.4483 26.2597 36.5355 26.1045 36.6907C25.9493 36.8459 25.8621 37.0564 25.8621 37.2759C25.8621 37.4954 25.9493 37.7059 26.1045 37.8611C26.2597 38.0163 26.4702 38.1034 26.6897 38.1034H27.5172V36.4483H26.6897Z" fill="white"/>
<path d="M27.5172 36.4483H29.1724V38.1034H27.5172V36.4483Z" fill="white"/>
<path d="M29.1724 36.4483H30.8276V38.1034H29.1724V36.4483Z" fill="white"/>
<path d="M30.8276 36.4483H32.4828V38.1034H30.8276V36.4483Z" fill="white"/>
<path d="M32.4828 36.4483H34.1379V38.1034H32.4828V36.4483Z" fill="white"/>
<path d="M34.1379 36.4483H35.7931V38.1034H34.1379V36.4483Z" fill="white"/>
<path d="M35.7931 36.4483H37.4483V38.1034H35.7931V36.4483Z" fill="white"/>
<path d="M37.4483 38.1034C37.8873 38.1034 38.3083 37.9291 38.6187 37.6187C38.9291 37.3083 39.1034 36.8873 39.1034 36.4483H37.4483V38.1034Z" fill="white"/>
<path d="M40.7586 38.1034C40.7586 37.6645 40.933 37.2435 41.2434 36.9331C41.5538 36.6227 41.9748 36.4483 42.4138 36.4483V38.1034H40.7586Z" fill="white"/>
<path d="M42.4138 36.4483C42.8528 36.4483 43.2738 36.6227 43.5842 36.9331C43.8946 37.2435 44.069 37.6645 44.069 38.1034H42.4138V36.4483Z" fill="white"/>
<path d="M49.0345 38.1034C49.0345 37.6645 49.2089 37.2435 49.5193 36.9331C49.8297 36.6227 50.2507 36.4483 50.6897 36.4483V38.1034H49.0345Z" fill="white"/>
<path d="M51.5172 36.4483C51.7367 36.4483 51.9472 36.5355 52.1024 36.6907C52.2576 36.8459 52.3448 37.0564 52.3448 37.2759C52.3448 37.4954 52.2576 37.7059 52.1024 37.8611C51.9472 38.0163 51.7367 38.1034 51.5172 38.1034H50.6897V36.4483H51.5172Z" fill="white"/>
<path d="M6 38.1034C6 38.5424 6.17438 38.9634 6.48479 39.2738C6.79519 39.5842 7.21619 39.7586 7.65517 39.7586V38.1034H6Z" fill="white"/>
<path d="M7.65517 38.1034H9.31034V39.7586H7.65517V38.1034Z" fill="white"/>
<path d="M9.31034 38.1034H10.9655V39.7586H9.31034V38.1034Z" fill="white"/>
<path d="M10.9655 38.1034H12.6207V39.7586H10.9655V38.1034Z" fill="white"/>
<path d="M12.6207 39.7586C13.0597 39.7586 13.4807 39.5842 13.7911 39.2738C14.1015 38.9634 14.2759 38.5424 14.2759 38.1034H12.6207V39.7586Z" fill="white"/>
<path d="M16.7586 38.1034C16.5391 38.1034 16.3286 38.1906 16.1734 38.3458C16.0182 38.501 15.931 38.7115 15.931 38.931C15.931 39.1505 16.0182 39.361 16.1734 39.5162C16.3286 39.6714 16.5391 39.7586 16.7586 39.7586H17.5862V38.1034H16.7586Z" fill="white"/>
<path d="M17.5862 38.1034H19.2414V39.7586H17.5862V38.1034Z" fill="white"/>
<path d="M19.2414 38.1034C19.6804 38.1034 20.1014 38.2778 20.4118 38.5882C20.7222 38.8986 20.8966 39.3196 20.8966 39.7586H19.2414V38.1034Z" fill="white"/>
<path d="M25.0345 38.1034C25.254 38.1034 25.4645 38.1906 25.6197 38.3458C25.7749 38.501 25.8621 38.7115 25.8621 38.931C25.8621 39.1505 25.7749 39.361 25.6197 39.5162C25.4645 39.6714 25.254 39.7586 25.0345 39.7586C24.815 39.7586 24.6045 39.6714 24.4493 39.5162C24.2941 39.361 24.2069 39.1505 24.2069 38.931C24.2069 38.7115 24.2941 38.501 24.4493 38.3458C24.6045 38.1906 24.815 38.1034 25.0345 38.1034Z" fill="white"/>
<path d="M29.1724 38.931C29.1724 39.1505 29.2596 39.361 29.4148 39.5162C29.57 39.6714 29.7805 39.7586 30 39.7586C30.2195 39.7586 30.43 39.6714 30.5852 39.5162C30.7404 39.361 30.8276 39.1505 30.8276 38.931V38.1034H29.1724V38.931Z" fill="white"/>
<path d="M32.4828 38.1034C32.4828 38.5424 32.6571 38.9634 32.9675 39.2738C33.278 39.5842 33.699 39.7586 34.1379 39.7586V38.1034H32.4828Z" fill="white"/>
<path d="M34.1379 38.1034H35.7931V39.7586H34.1379V38.1034Z" fill="white"/>
<path d="M35.7931 38.1034H37.4483V39.7586H35.7931V38.1034Z" fill="white"/>
<path d="M39.1034 39.7586C39.1034 39.3196 39.2778 38.8986 39.5882 38.5882C39.8986 38.2778 40.3196 38.1034 40.7586 38.1034V39.7586H39.1034Z" fill="white"/>
<path d="M40.7586 38.1034H42.4138V39.7586H40.7586V38.1034Z" fill="white"/>
<path d="M42.4138 38.1034H44.069V39.7586H42.4138V38.1034Z" fill="white"/>
<path d="M44.069 38.1034H45.7241V39.7586H44.069V38.1034Z" fill="white"/>
<path d="M45.7241 38.1034H47.3793V39.7586H45.7241V38.1034Z" fill="white"/>
<path d="M47.3793 38.1034H49.0345V39.7586H47.3793V38.1034Z" fill="white"/>
<path d="M49.0345 38.1034H50.6897V39.7586H49.0345V38.1034Z" fill="white"/>
<path d="M53.1724 38.1034C53.3919 38.1034 53.6024 38.1906 53.7576 38.3458C53.9128 38.501 54 38.7115 54 38.931C54 39.1505 53.9128 39.361 53.7576 39.5162C53.6024 39.6714 53.3919 39.7586 53.1724 39.7586C52.9529 39.7586 52.7424 39.6714 52.5872 39.5162C52.432 39.361 52.3448 39.1505 52.3448 38.931C52.3448 38.7115 52.432 38.501 52.5872 38.3458C52.7424 38.1906 52.9529 38.1034 53.1724 38.1034Z" fill="white"/>
<path d="M19.2414 39.7586H20.8966V41.4138H19.2414V39.7586Z" fill="white"/>
<path d="M20.8966 39.7586H22.5517V41.4138H20.8966V39.7586Z" fill="white"/>
<path d="M22.5517 39.7586C22.9907 39.7586 23.4117 39.933 23.7221 40.2434C24.0325 40.5538 24.2069 40.9748 24.2069 41.4138H22.5517V39.7586Z" fill="white"/>
<path d="M30.8276 40.5862C30.8276 40.3667 30.9148 40.1562 31.07 40.001C31.2252 39.8458 31.4357 39.7586 31.6552 39.7586C31.8747 39.7586 32.0852 39.8458 32.2404 40.001C32.3956 40.1562 32.4828 40.3667 32.4828 40.5862V41.4138H30.8276V40.5862Z" fill="white"/>
<path d="M34.1379 39.7586H35.7931V41.4138H34.1379V39.7586Z" fill="white"/>
<path d="M35.7931 39.7586H37.4483V41.4138H35.7931V39.7586Z" fill="white"/>
<path d="M39.1034 39.7586H40.7586V41.4138H39.1034V39.7586Z" fill="white"/>
<path d="M45.7241 39.7586H47.3793V41.4138H45.7241V39.7586Z" fill="white"/>
<path d="M47.3793 39.7586H49.0345V41.4138H47.3793V39.7586Z" fill="white"/>
<path d="M49.0345 39.7586H50.6897V41.4138H49.0345V39.7586Z" fill="white"/>
<path d="M51.5172 39.7586C51.7367 39.7586 51.9472 39.8458 52.1024 40.001C52.2576 40.1562 52.3448 40.3667 52.3448 40.5862C52.3448 40.8057 52.2576 41.0162 52.1024 41.1714C51.9472 41.3266 51.7367 41.4138 51.5172 41.4138H50.6897V39.7586H51.5172Z" fill="white"/>
<path d="M6 43.069C6 42.63 6.17438 42.209 6.48479 41.8986C6.79519 41.5882 7.21619 41.4138 7.65517 41.4138V43.069H6Z" fill="white"/>
<path d="M7.65517 41.4138H9.31034V43.069H7.65517V41.4138Z" fill="white"/>
<path d="M9.31034 41.4138H10.9655V43.069H9.31034V41.4138Z" fill="white"/>
<path d="M10.9655 41.4138H12.6207V43.069H10.9655V41.4138Z" fill="white"/>
<path d="M12.6207 41.4138H14.2759V43.069H12.6207V41.4138Z" fill="white"/>
<path d="M14.2759 41.4138H15.931V43.069H14.2759V41.4138Z" fill="white"/>
<path d="M15.931 41.4138C16.37 41.4138 16.791 41.5882 17.1014 41.8986C17.4118 42.209 17.5862 42.63 17.5862 43.069H15.931V41.4138Z" fill="white"/>
<path d="M19.2414 41.4138C19.2414 41.8528 19.4158 42.2738 19.7262 42.5842C20.0366 42.8946 20.4576 43.069 20.8966 43.069V41.4138H19.2414Z" fill="white"/>
<path d="M20.8966 41.4138H22.5517V43.069H20.8966V41.4138Z" fill="white"/>
<path d="M22.5517 43.069C22.9907 43.069 23.4117 42.8946 23.7221 42.5842C24.0325 42.2738 24.2069 41.8528 24.2069 41.4138H22.5517V43.069Z" fill="white"/>
<path d="M30.8276 41.4138H32.4828V43.069H30.8276V41.4138Z" fill="white"/>
<path d="M34.1379 41.4138C34.1379 41.8528 34.3123 42.2738 34.6227 42.5842C34.9331 42.8946 35.3541 43.069 35.7931 43.069V41.4138H34.1379Z" fill="white"/>
<path d="M35.7931 41.4138H37.4483V43.069H35.7931V41.4138Z" fill="white"/>
<path d="M37.4483 41.4138H39.1034V43.069H37.4483V41.4138Z" fill="white"/>
<path d="M39.1034 41.4138H40.7586V43.069H39.1034V41.4138Z" fill="white"/>
<path d="M43.2414 41.4138C43.4609 41.4138 43.6714 41.501 43.8266 41.6562C43.9818 41.8114 44.069 42.0219 44.069 42.2414C44.069 42.4609 43.9818 42.6714 43.8266 42.8266C43.6714 42.9818 43.4609 43.069 43.2414 43.069C43.0219 43.069 42.8114 42.9818 42.6562 42.8266C42.501 42.6714 42.4138 42.4609 42.4138 42.2414C42.4138 42.0219 42.501 41.8114 42.6562 41.6562C42.8114 41.501 43.0219 41.4138 43.2414 41.4138Z" fill="white"/>
<path d="M45.7241 41.4138H47.3793V43.069H45.7241V41.4138Z" fill="white"/>
<path d="M49.0345 42.2414C49.0345 42.4609 49.1217 42.6714 49.2769 42.8266C49.4321 42.9818 49.6426 43.069 49.8621 43.069C50.0816 43.069 50.2921 42.9818 50.4473 42.8266C50.6025 42.6714 50.6897 42.4609 50.6897 42.2414V41.4138H49.0345V42.2414Z" fill="white"/>
<path d="M6 43.069H7.65517V44.7241H6V43.069Z" fill="white"/>
<path d="M15.931 43.069H17.5862V44.7241H15.931V43.069Z" fill="white"/>
<path d="M25.0345 43.069C24.815 43.069 24.6045 43.1562 24.4493 43.3114C24.2941 43.4666 24.2069 43.6771 24.2069 43.8966C24.2069 44.116 24.2941 44.3265 24.4493 44.4817C24.6045 44.6369 24.815 44.7241 25.0345 44.7241H25.8621V43.069H25.0345Z" fill="white"/>
<path d="M25.8621 43.069C26.301 43.069 26.722 43.2434 27.0325 43.5538C27.3429 43.8642 27.5172 44.2852 27.5172 44.7241H25.8621V43.069Z" fill="white"/>
<path d="M29.1724 44.7241C29.1724 44.2852 29.3468 43.8642 29.6572 43.5538C29.9676 43.2434 30.3886 43.069 30.8276 43.069V44.7241H29.1724Z" fill="white"/>
<path d="M30.8276 44.7241C31.2666 44.7241 31.6876 44.5498 31.998 44.2393C32.3084 43.9289 32.4828 43.5079 32.4828 43.069H30.8276V44.7241Z" fill="white"/>
<path d="M37.4483 43.069H39.1034V44.7241H37.4483V43.069Z" fill="white"/>
<path d="M39.1034 43.069H40.7586V44.7241H39.1034V43.069Z" fill="white"/>
<path d="M45.7241 43.069H47.3793V44.7241H45.7241V43.069Z" fill="white"/>
<path d="M48.2069 43.069C48.4264 43.069 48.6369 43.1562 48.7921 43.3114C48.9473 43.4666 49.0345 43.6771 49.0345 43.8966C49.0345 44.116 48.9473 44.3265 48.7921 44.4817C48.6369 44.6369 48.4264 44.7241 48.2069 44.7241H47.3793V43.069H48.2069Z" fill="white"/>
<path d="M50.6897 44.7241C50.6897 44.2852 50.864 43.8642 51.1744 43.5538C51.4848 43.2434 51.9059 43.069 52.3448 43.069V44.7241H50.6897Z" fill="white"/>
<path d="M52.3448 43.069C52.7838 43.069 53.2048 43.2434 53.5152 43.5538C53.8256 43.8642 54 44.2852 54 44.7241H52.3448V43.069Z" fill="white"/>
<path d="M6 44.7241H7.65517V46.3793H6V44.7241Z" fill="white"/>
<path d="M9.31034 46.3793C9.31034 45.9403 9.48473 45.5193 9.79513 45.2089C10.1055 44.8985 10.5265 44.7241 10.9655 44.7241V46.3793H9.31034Z" fill="white"/>
<path d="M10.9655 44.7241H12.6207V46.3793H10.9655V44.7241Z" fill="white"/>
<path d="M12.6207 44.7241C13.0597 44.7241 13.4807 44.8985 13.7911 45.2089C14.1015 45.5193 14.2759 45.9403 14.2759 46.3793H12.6207V44.7241Z" fill="white"/>
<path d="M15.931 44.7241H17.5862V46.3793H15.931V44.7241Z" fill="white"/>
<path d="M19.2414 46.3793C19.2414 45.9403 19.4158 45.5193 19.7262 45.2089C20.0366 44.8985 20.4576 44.7241 20.8966 44.7241V46.3793H19.2414Z" fill="white"/>
<path d="M20.8966 44.7241C21.3355 44.7241 21.7565 44.8985 22.0669 45.2089C22.3773 45.5193 22.5517 45.9403 22.5517 46.3793H20.8966V44.7241Z" fill="white"/>
<path d="M25.8621 45.5517C25.8621 45.7712 25.9493 45.9817 26.1045 46.1369C26.2597 46.2921 26.4702 46.3793 26.6897 46.3793C26.9091 46.3793 27.1196 46.2921 27.2748 46.1369C27.4301 45.9817 27.5172 45.7712 27.5172 45.5517V44.7241H25.8621V45.5517Z" fill="white"/>
<path d="M29.1724 44.7241H30.8276V46.3793H29.1724V44.7241Z" fill="white"/>
<path d="M32.4828 46.3793C32.4828 45.9403 32.6571 45.5193 32.9675 45.2089C33.278 44.8985 33.699 44.7241 34.1379 44.7241V46.3793H32.4828Z" fill="white"/>
<path d="M34.1379 44.7241H35.7931V46.3793H34.1379V44.7241Z" fill="white"/>
<path d="M35.7931 44.7241H37.4483V46.3793H35.7931V44.7241Z" fill="white"/>
<path d="M37.4483 44.7241H39.1034V46.3793H37.4483V44.7241Z" fill="white"/>
<path d="M39.1034 44.7241H40.7586V46.3793H39.1034V44.7241Z" fill="white"/>
<path d="M40.7586 44.7241H42.4138V46.3793H40.7586V44.7241Z" fill="white"/>
<path d="M42.4138 44.7241H44.069V46.3793H42.4138V44.7241Z" fill="white"/>
<path d="M44.069 44.7241H45.7241V46.3793H44.069V44.7241Z" fill="white"/>
<path d="M45.7241 46.3793C46.1631 46.3793 46.5841 46.2049 46.8945 45.8945C47.2049 45.5841 47.3793 45.1631 47.3793 44.7241H45.7241V46.3793Z" fill="white"/>
<path d="M50.6897 44.7241H52.3448V46.3793H50.6897V44.7241Z" fill="white"/>
<path d="M52.3448 46.3793C52.7838 46.3793 53.2048 46.2049 53.5152 45.8945C53.8256 45.5841 54 45.1631 54 44.7241H52.3448V46.3793Z" fill="white"/>
<path d="M6 46.3793H7.65517V48.0345H6V46.3793Z" fill="white"/>
<path d="M9.31034 46.3793H10.9655V48.0345H9.31034V46.3793Z" fill="white"/>
<path d="M10.9655 46.3793H12.6207V48.0345H10.9655V46.3793Z" fill="white"/>
<path d="M12.6207 46.3793H14.2759V48.0345H12.6207V46.3793Z" fill="white"/>
<path d="M15.931 46.3793H17.5862V48.0345H15.931V46.3793Z" fill="white"/>
<path d="M19.2414 46.3793C19.2414 46.8183 19.4158 47.2393 19.7262 47.5497C20.0366 47.8601 20.4576 48.0345 20.8966 48.0345V46.3793H19.2414Z" fill="white"/>
<path d="M20.8966 48.0345C21.3355 48.0345 21.7565 47.8601 22.0669 47.5497C22.3773 47.2393 22.5517 46.8183 22.5517 46.3793H20.8966V48.0345Z" fill="white"/>
<path d="M24.2069 47.2069C24.2069 46.9874 24.2941 46.7769 24.4493 46.6217C24.6045 46.4665 24.815 46.3793 25.0345 46.3793C25.254 46.3793 25.4645 46.4665 25.6197 46.6217C25.7749 46.7769 25.8621 46.9874 25.8621 47.2069V48.0345H24.2069V47.2069Z" fill="white"/>
<path d="M29.1724 46.3793H30.8276V48.0345H29.1724V46.3793Z" fill="white"/>
<path d="M32.4828 47.2069C32.4828 47.4264 32.5699 47.6369 32.7252 47.7921C32.8804 47.9473 33.0909 48.0345 33.3103 48.0345C33.5298 48.0345 33.7403 47.9473 33.8955 47.7921C34.0507 47.6369 34.1379 47.4264 34.1379 47.2069V46.3793H32.4828V47.2069Z" fill="white"/>
<path d="M44.069 46.3793H45.7241V48.0345H44.069V46.3793Z" fill="white"/>
<path d="M49.8621 46.3793C49.6426 46.3793 49.4321 46.4665 49.2769 46.6217C49.1217 46.7769 49.0345 46.9874 49.0345 47.2069C49.0345 47.4264 49.1217 47.6369 49.2769 47.7921C49.4321 47.9473 49.6426 48.0345 49.8621 48.0345H50.6897V46.3793H49.8621Z" fill="white"/>
<path d="M50.6897 46.3793H52.3448V48.0345H50.6897V46.3793Z" fill="white"/>
<path d="M6 48.0345H7.65517V49.6897H6V48.0345Z" fill="white"/>
<path d="M9.31034 48.0345C9.31034 48.4735 9.48473 48.8945 9.79513 49.2049C10.1055 49.5153 10.5265 49.6897 10.9655 49.6897V48.0345H9.31034Z" fill="white"/>
<path d="M10.9655 48.0345H12.6207V49.6897H10.9655V48.0345Z" fill="white"/>
<path d="M12.6207 49.6897C13.0597 49.6897 13.4807 49.5153 13.7911 49.2049C14.1015 48.8945 14.2759 48.4735 14.2759 48.0345H12.6207V49.6897Z" fill="white"/>
<path d="M15.931 48.0345H17.5862V49.6897H15.931V48.0345Z" fill="white"/>
<path d="M23.3793 48.0345C23.1598 48.0345 22.9493 48.1217 22.7941 48.2769C22.6389 48.4321 22.5517 48.6426 22.5517 48.8621C22.5517 49.0816 22.6389 49.2921 22.7941 49.4473C22.9493 49.6025 23.1598 49.6897 23.3793 49.6897H24.2069V48.0345H23.3793Z" fill="white"/>
<path d="M24.2069 48.0345H25.8621V49.6897H24.2069V48.0345Z" fill="white"/>
<path d="M25.8621 48.0345C26.301 48.0345 26.722 48.2089 27.0325 48.5193C27.3429 48.8297 27.5172 49.2507 27.5172 49.6897H25.8621V48.0345Z" fill="white"/>
<path d="M29.1724 48.0345H30.8276V49.6897H29.1724V48.0345Z" fill="white"/>
<path d="M30.8276 48.0345C31.2666 48.0345 31.6876 48.2089 31.998 48.5193C32.3084 48.8297 32.4828 49.2507 32.4828 49.6897H30.8276V48.0345Z" fill="white"/>
<path d="M34.9655 48.0345C34.746 48.0345 34.5355 48.1217 34.3803 48.2769C34.2251 48.4321 34.1379 48.6426 34.1379 48.8621C34.1379 49.0816 34.2251 49.2921 34.3803 49.4473C34.5355 49.6025 34.746 49.6897 34.9655 49.6897H35.7931V48.0345H34.9655Z" fill="white"/>
<path d="M35.7931 48.0345C36.2321 48.0345 36.6531 48.2089 36.9635 48.5193C37.2739 48.8297 37.4483 49.2507 37.4483 49.6897H35.7931V48.0345Z" fill="white"/>
<path d="M39.931 48.0345C39.7115 48.0345 39.501 48.1217 39.3458 48.2769C39.1906 48.4321 39.1034 48.6426 39.1034 48.8621C39.1034 49.0816 39.1906 49.2921 39.3458 49.4473C39.501 49.6025 39.7115 49.6897 39.931 49.6897H40.7586V48.0345H39.931Z" fill="white"/>
<path d="M40.7586 48.0345C41.1976 48.0345 41.6186 48.2089 41.929 48.5193C42.2394 48.8297 42.4138 49.2507 42.4138 49.6897H40.7586V48.0345Z" fill="white"/>
<path d="M44.069 48.0345C44.069 48.4735 44.2434 48.8945 44.5538 49.2049C44.8642 49.5153 45.2852 49.6897 45.7241 49.6897V48.0345H44.069Z" fill="white"/>
<path d="M45.7241 48.0345H47.3793V49.6897H45.7241V48.0345Z" fill="white"/>
<path d="M47.3793 48.0345C47.8183 48.0345 48.2393 48.2089 48.5497 48.5193C48.8601 48.8297 49.0345 49.2507 49.0345 49.6897H47.3793V48.0345Z" fill="white"/>
<path d="M50.6897 48.0345C50.6897 48.4735 50.864 48.8945 51.1744 49.2049C51.4848 49.5153 51.9059 49.6897 52.3448 49.6897V48.0345H50.6897Z" fill="white"/>
<path d="M52.3448 48.0345C52.7838 48.0345 53.2048 48.2089 53.5152 48.5193C53.8256 48.8297 54 49.2507 54 49.6897H52.3448V48.0345Z" fill="white"/>
<path d="M6 49.6897H7.65517V51.3448H6V49.6897Z" fill="white"/>
<path d="M15.931 49.6897H17.5862V51.3448H15.931V49.6897Z" fill="white"/>
<path d="M21.7241 49.6897C21.9436 49.6897 22.1541 49.7768 22.3093 49.9321C22.4645 50.0873 22.5517 50.2978 22.5517 50.5172C22.5517 50.7367 22.4645 50.9472 22.3093 51.1024C22.1541 51.2576 21.9436 51.3448 21.7241 51.3448C21.5046 51.3448 21.2941 51.2576 21.1389 51.1024C20.9837 50.9472 20.8966 50.7367 20.8966 50.5172C20.8966 50.2978 20.9837 50.0873 21.1389 49.9321C21.2941 49.7768 21.5046 49.6897 21.7241 49.6897Z" fill="white"/>
<path d="M25.8621 49.6897H27.5172V51.3448H25.8621V49.6897Z" fill="white"/>
<path d="M27.5172 49.6897H29.1724V51.3448H27.5172V49.6897Z" fill="white"/>
<path d="M29.1724 49.6897H30.8276V51.3448H29.1724V49.6897Z" fill="white"/>
<path d="M30.8276 49.6897H32.4828V51.3448H30.8276V49.6897Z" fill="white"/>
<path d="M33.3103 49.6897C33.5298 49.6897 33.7403 49.7768 33.8955 49.9321C34.0507 50.0873 34.1379 50.2978 34.1379 50.5172C34.1379 50.7367 34.0507 50.9472 33.8955 51.1024C33.7403 51.2576 33.5298 51.3448 33.3103 51.3448H32.4828V49.6897H33.3103Z" fill="white"/>
<path d="M35.7931 50.5172C35.7931 50.7367 35.8803 50.9472 36.0355 51.1024C36.1907 51.2576 36.4012 51.3448 36.6207 51.3448C36.8402 51.3448 37.0507 51.2576 37.2059 51.1024C37.3611 50.9472 37.4483 50.7367 37.4483 50.5172V49.6897H35.7931V50.5172Z" fill="white"/>
<path d="M40.7586 50.5172C40.7586 50.7367 40.8458 50.9472 41.001 51.1024C41.1562 51.2576 41.3667 51.3448 41.5862 51.3448C41.8057 51.3448 42.0162 51.2576 42.1714 51.1024C42.3266 50.9472 42.4138 50.7367 42.4138 50.5172V49.6897H40.7586V50.5172Z" fill="white"/>
<path d="M45.7241 49.6897H47.3793V51.3448H45.7241V49.6897Z" fill="white"/>
<path d="M47.3793 49.6897H49.0345V51.3448H47.3793V49.6897Z" fill="white"/>
<path d="M49.8621 49.6897C50.0816 49.6897 50.2921 49.7768 50.4473 49.9321C50.6025 50.0873 50.6897 50.2978 50.6897 50.5172C50.6897 50.7367 50.6025 50.9472 50.4473 51.1024C50.2921 51.2576 50.0816 51.3448 49.8621 51.3448H49.0345V49.6897H49.8621Z" fill="white"/>
<path d="M52.3448 50.5172C52.3448 50.7367 52.432 50.9472 52.5872 51.1024C52.7424 51.2576 52.9529 51.3448 53.1724 51.3448C53.3919 51.3448 53.6024 51.2576 53.7576 51.1024C53.9128 50.9472 54 50.7367 54 50.5172V49.6897H52.3448V50.5172Z" fill="white"/>
<path d="M6 51.3448C6 51.7838 6.17438 52.2048 6.48479 52.5152C6.79519 52.8256 7.21619 53 7.65517 53V51.3448H6Z" fill="white"/>
<path d="M7.65517 51.3448H9.31034V53H7.65517V51.3448Z" fill="white"/>
<path d="M9.31034 51.3448H10.9655V53H9.31034V51.3448Z" fill="white"/>
<path d="M10.9655 51.3448H12.6207V53H10.9655V51.3448Z" fill="white"/>
<path d="M12.6207 51.3448H14.2759V53H12.6207V51.3448Z" fill="white"/>
<path d="M14.2759 51.3448H15.931V53H14.2759V51.3448Z" fill="white"/>
<path d="M15.931 53C16.37 53 16.791 52.8256 17.1014 52.5152C17.4118 52.2048 17.5862 51.7838 17.5862 51.3448H15.931V53Z" fill="white"/>
<path d="M25.8621 51.3448C25.8621 51.7838 26.0365 52.2048 26.3469 52.5152C26.6573 52.8256 27.0783 53 27.5172 53V51.3448H25.8621Z" fill="white"/>
<path d="M27.5172 53C27.9562 53 28.3772 52.8256 28.6876 52.5152C28.998 52.2048 29.1724 51.7838 29.1724 51.3448H27.5172V53Z" fill="white"/>
<path d="M30.8276 52.1724C30.8276 52.3919 30.9148 52.6024 31.07 52.7576C31.2252 52.9128 31.4357 53 31.6552 53C31.8747 53 32.0852 52.9128 32.2404 52.7576C32.3956 52.6024 32.4828 52.3919 32.4828 52.1724V51.3448H30.8276V52.1724Z" fill="white"/>
<path d="M38.2759 51.3448C38.0564 51.3448 37.8459 51.432 37.6907 51.5872C37.5355 51.7424 37.4483 51.9529 37.4483 52.1724C37.4483 52.3919 37.5355 52.6024 37.6907 52.7576C37.8459 52.9128 38.0564 53 38.2759 53H39.1034V51.3448H38.2759Z" fill="white"/>
<path d="M39.931 51.3448C40.1505 51.3448 40.361 51.432 40.5162 51.5872C40.6714 51.7424 40.7586 51.9529 40.7586 52.1724C40.7586 52.3919 40.6714 52.6024 40.5162 52.7576C40.361 52.9128 40.1505 53 39.931 53H39.1034V51.3448H39.931Z" fill="white"/>
<path d="M43.2414 51.3448C43.0219 51.3448 42.8114 51.432 42.6562 51.5872C42.501 51.7424 42.4138 51.9529 42.4138 52.1724C42.4138 52.3919 42.501 52.6024 42.6562 52.7576C42.8114 52.9128 43.0219 53 43.2414 53H44.069V51.3448H43.2414Z" fill="white"/>
<path d="M44.069 51.3448H45.7241V53H44.069V51.3448Z" fill="white"/>
<path d="M45.7241 51.3448H47.3793V53H45.7241V51.3448Z" fill="white"/>
<path d="M47.3793 53C47.8183 53 48.2393 52.8256 48.5497 52.5152C48.8601 52.2048 49.0345 51.7838 49.0345 51.3448H47.3793V53Z" fill="white"/>
<g filter="url(#filter0_d_11_7)">
<path d="M8.29431 58.9465H7.3427L7.34882 58.4144H8.29431C8.5697 58.4144 8.8002 58.3619 8.98583 58.2567C9.1735 58.1515 9.31426 58.0009 9.40809 57.8048C9.50397 57.6087 9.5519 57.3752 9.5519 57.1043V56.893C9.5519 56.6827 9.52437 56.4964 9.46929 56.3342C9.41625 56.172 9.3367 56.0357 9.23062 55.9251C9.12659 55.8146 8.99807 55.7308 8.84508 55.6738C8.69413 55.6168 8.51972 55.5882 8.32185 55.5882H7.32434V55.0535H8.32185C8.61763 55.0535 8.88792 55.0971 9.13271 55.1845C9.37749 55.2701 9.58862 55.3939 9.76609 55.5561C9.9456 55.7184 10.0833 55.9127 10.1792 56.139C10.275 56.3654 10.323 56.6185 10.323 56.8984V57.1043C10.323 57.3841 10.275 57.6373 10.1792 57.8636C10.0833 58.09 9.9456 58.2843 9.76609 58.4465C9.58658 58.607 9.37239 58.7308 9.12353 58.8182C8.8767 58.9037 8.60029 58.9465 8.29431 58.9465ZM7.76802 55.0535V58.9465H7V55.0535H7.76802Z" fill="white"/>
<path d="M13.639 55.5722L12.308 58.9465H11.5032L13.18 55.0535H13.6941L13.639 55.5722ZM14.7528 58.9465L13.4187 55.5722L13.3605 55.0535H13.8777L15.5606 58.9465H14.7528ZM14.6885 57.5027V58.0348H12.2651V57.5027H14.6885Z" fill="white"/>
<path d="M20.4707 55.0535V58.9465H19.7027L17.7047 56.1578V58.9465H16.9366V55.0535H17.7047L19.7089 57.8476V55.0535H20.4707Z" fill="white"/>
<path d="M24.053 55.5722L22.7219 58.9465H21.9172L23.594 55.0535H24.108L24.053 55.5722ZM25.1667 58.9465L23.8327 55.5722L23.7745 55.0535H24.2916L25.9745 58.9465H25.1667ZM25.1025 57.5027V58.0348H22.6791V57.5027H25.1025Z" fill="white"/>
<path d="M32.1323 57.9439C32.1323 57.8636 32.118 57.7923 32.0894 57.7299C32.0629 57.6676 32.015 57.6105 31.9456 57.5588C31.8763 57.5071 31.7784 57.4572 31.6519 57.4091C31.5275 57.3592 31.3683 57.3084 31.1746 57.2567C30.9624 57.1996 30.7666 57.1364 30.5871 57.0668C30.4096 56.9955 30.2546 56.9135 30.122 56.8209C29.9894 56.7264 29.8864 56.6185 29.8129 56.4973C29.7395 56.3743 29.7028 56.2326 29.7028 56.0722C29.7028 55.9135 29.7405 55.7692 29.816 55.639C29.8935 55.5089 30.0026 55.3966 30.1434 55.3021C30.2862 55.2059 30.4545 55.1319 30.6483 55.0802C30.842 55.0267 31.0562 55 31.2908 55C31.6213 55 31.9059 55.0535 32.1445 55.1604C32.3852 55.2674 32.5698 55.4109 32.6983 55.5909C32.8289 55.7709 32.8942 55.9697 32.8942 56.1872H32.1323C32.1323 56.0588 32.1007 55.9456 32.0374 55.8476C31.9762 55.7478 31.8824 55.6693 31.7559 55.6123C31.6315 55.5553 31.4734 55.5267 31.2816 55.5267C31.1001 55.5267 30.9491 55.5508 30.8288 55.5989C30.7084 55.6471 30.6187 55.7121 30.5595 55.7941C30.5004 55.8761 30.4708 55.9688 30.4708 56.0722C30.4708 56.1453 30.4902 56.2121 30.5289 56.2727C30.5677 56.3316 30.6268 56.3868 30.7064 56.4385C30.786 56.4884 30.8859 56.5357 31.0063 56.5802C31.1266 56.6248 31.2684 56.6676 31.4316 56.7086C31.6784 56.7727 31.8936 56.844 32.0772 56.9225C32.2608 56.9991 32.4138 57.0865 32.5362 57.1845C32.6586 57.2825 32.7504 57.3939 32.8116 57.5187C32.8728 57.6417 32.9034 57.7816 32.9034 57.9385C32.9034 58.1025 32.8656 58.2504 32.7901 58.3824C32.7147 58.5125 32.6066 58.6239 32.4658 58.7166C32.3271 58.8075 32.1598 58.8779 31.964 58.9278C31.7702 58.9759 31.554 59 31.3153 59C31.1011 59 30.89 58.975 30.6819 58.9251C30.4759 58.8752 30.2882 58.7995 30.1189 58.6979C29.9496 58.5945 29.815 58.4661 29.715 58.3128C29.6151 58.1578 29.5651 57.9768 29.5651 57.7701H30.3331C30.3331 57.8966 30.3576 58.0045 30.4065 58.0936C30.4575 58.1827 30.5279 58.2558 30.6177 58.3128C30.7074 58.3681 30.8114 58.4091 30.9298 58.4358C31.0501 58.4626 31.1786 58.4759 31.3153 58.4759C31.4948 58.4759 31.6447 58.4537 31.7651 58.4091C31.8875 58.3645 31.9793 58.3021 32.0405 58.2219C32.1017 58.1417 32.1323 58.049 32.1323 57.9439Z" fill="white"/>
<path d="M36.1949 55.5722L34.8639 58.9465H34.0591L35.7359 55.0535H36.25L36.1949 55.5722ZM37.3087 58.9465L35.9746 55.5722L35.9164 55.0535H36.4336L38.1165 58.9465H37.3087ZM37.2444 57.5027V58.0348H34.821V57.5027H37.2444Z" fill="white"/>
<path d="M43.0266 55.0535V58.9465H42.2586L40.2606 56.1578V58.9465H39.4925V55.0535H40.2606L42.2647 57.8476V55.0535H43.0266Z" fill="white"/>
<path d="M46.1132 58.9465H45.1616L45.1677 58.4144H46.1132C46.3886 58.4144 46.6191 58.3619 46.8047 58.2567C46.9924 58.1515 47.1331 58.0009 47.2269 57.8048C47.3228 57.6087 47.3708 57.3752 47.3708 57.1043V56.893C47.3708 56.6827 47.3432 56.4964 47.2881 56.3342C47.2351 56.172 47.1555 56.0357 47.0495 55.9251C46.9454 55.8146 46.8169 55.7308 46.6639 55.6738C46.513 55.6168 46.3386 55.5882 46.1407 55.5882H45.1432V55.0535H46.1407C46.4365 55.0535 46.7068 55.0971 46.9516 55.1845C47.1963 55.2701 47.4075 55.3939 47.5849 55.5561C47.7645 55.7184 47.9022 55.9127 47.998 56.139C48.0939 56.3654 48.1418 56.6185 48.1418 56.8984V57.1043C48.1418 57.3841 48.0939 57.6373 47.998 57.8636C47.9022 58.09 47.7645 58.2843 47.5849 58.4465C47.4054 58.607 47.1912 58.7308 46.9424 58.8182C46.6956 58.9037 46.4191 58.9465 46.1132 58.9465ZM45.5869 55.0535V58.9465H44.8189V55.0535H45.5869Z" fill="white"/>
<path d="M50.0809 55.0535L51.1151 56.9118L52.1494 55.0535H53L51.5007 57.5134V58.9465H50.7265V57.5134L49.2272 55.0535H50.0809Z" fill="white"/>
</g>
</g>
<defs>
<filter id="filter0_d_11_7" x="3" y="55" width="54" height="12" filterUnits="userSpaceOnUse" color-interpolation-filters="sRGB">
<feFlood flood-opacity="0" result="BackgroundImageFix"/>
<feColorMatrix in="SourceAlpha" type="matrix" values="0 0 0 0 0 0 0 0 0 0 0 0 0 0 0 0 0 0 127 0" result="hardAlpha"/>
<feOffset dy="4"/>
<feGaussianBlur stdDeviation="2"/>
<feComposite in2="hardAlpha" operator="out"/>
<feColorMatrix type="matrix" values="0 0 0 0 0 0 0 0 0 0 0 0 0 0 0 0 0 0 0.25 0"/>
<feBlend mode="normal" in2="BackgroundImageFix" result="effect1_dropShadow_11_7"/>
<feBlend mode="normal" in="SourceGraphic" in2="effect1_dropShadow_11_7" result="shape"/>
</filter>
<clipPath id="clip0_11_7">
<rect width="60" height="64" fill="white"/>
</clipPath>
</defs>
</svg>
