<svg width="571" height="33" viewBox="0 0 571 33" fill="none" xmlns="http://www.w3.org/2000/svg">
<path d="M0 3.157H11.1245C14.1877 3.157 16.6061 3.399 18.3796 3.883C20.153 4.34011 21.4563 5.14678 22.2893 6.303C23.1223 7.45922 23.5388 9.05911 23.5388 11.1027V21.7507C23.5388 23.7404 23.1491 25.2866 22.3699 26.389C21.5906 27.4646 20.3143 28.2309 18.5408 28.688C16.7673 29.1182 14.3087 29.3333 11.1648 29.3333H0V3.157ZM10.8826 24.8563C12.6024 24.8563 13.8922 24.7891 14.752 24.6547C15.6388 24.4933 16.2702 24.1976 16.6464 23.7673C17.0495 23.3371 17.251 22.6649 17.251 21.7507V10.9817C17.251 9.74478 16.7539 8.88433 15.7597 8.40033C14.7923 7.88944 13.2338 7.634 11.0842 7.634H6.28775V24.8563H10.8826Z" fill="#4F00B4"/>
<path d="M75.0484 3.157H82.7065L92.1381 29.3333H85.7698L83.432 22.4363H73.8795L71.582 29.3333H65.3749L75.0484 3.157ZM82.0616 18.2417L78.7565 8.40033H78.5953L75.2902 18.2417H82.0616Z" fill="#4F00B4"/>
<path d="M134.539 3.157H140.907L153.563 21.0247V3.157H159.166V29.3333H152.798L140.141 11.1833V29.3333H134.539V3.157Z" fill="#4F00B4"/>
<path d="M211.24 3.157H218.899L228.33 29.3333H221.962L219.624 22.4363H210.072L207.774 29.3333H201.567L211.24 3.157ZM218.254 18.2417L214.949 8.40033H214.787L211.482 18.2417H218.254Z" fill="#4F00B4"/>
<path d="M341.593 29.7413C339.094 29.7403 336.004 29.4971 332.323 29.0116L332.325 24.212C336.893 24.9129 340.01 25.2637 341.676 25.2644C345.169 25.2658 346.916 24.3657 346.917 22.5641L346.917 20.8701C346.918 20.0097 346.663 19.3508 346.152 18.8935C345.669 18.4362 344.782 18.2073 343.492 18.2068L340.429 18.2055C334.679 18.2032 331.804 15.9165 331.806 11.3454L331.807 9.40943C331.808 7.12387 332.763 5.4437 334.671 4.36891C336.579 3.29411 339.602 2.75754 343.74 2.75919C345.89 2.76005 348.617 2.93592 351.922 3.28679L351.92 7.96546C347.863 7.47984 345.069 7.23672 343.537 7.23611C341.414 7.23526 339.99 7.40947 339.264 7.75874C338.485 8.13487 338.095 8.72627 338.095 9.53294L338.094 11.3883C338.093 12.7596 339.249 13.4457 341.56 13.4467L344.703 13.4479C347.686 13.4491 349.849 14.0012 351.192 15.1042C352.535 16.2072 353.206 17.888 353.205 20.1466L353.205 21.881C353.203 25.0001 352.087 27.1104 349.857 28.212C348.782 28.7762 347.586 29.1656 346.269 29.3802C344.979 29.6217 343.421 29.7421 341.593 29.7413Z" fill="#4F00B4"/>
<path d="M390.715 3.18128L398.373 3.18433L407.794 29.3644L401.426 29.3619L399.091 22.464L389.538 22.4601L387.238 29.3562L381.031 29.3537L390.715 3.18128ZM397.722 18.2687L394.421 8.42609L394.26 8.42603L390.951 18.266L397.722 18.2687Z" fill="#4F00B4"/>
<path d="M436.904 3.19972L443.273 3.20226L455.922 21.075L455.929 3.20731L461.531 3.20955L461.521 29.3859L455.152 29.3833L442.504 11.2283L442.496 29.3783L436.894 29.3761L436.904 3.19972Z" fill="#4F00B4"/>
<path d="M493.372 3.22226L504.497 3.2267C507.56 3.22792 509.978 3.47089 511.751 3.9556C513.525 4.41342 514.828 5.2206 515.66 6.37716C516.493 7.53371 516.908 9.13377 516.908 11.1773L516.903 21.8253C516.903 23.8151 516.512 25.3611 515.733 26.4632C514.953 27.5384 513.676 28.3043 511.903 28.7607C510.129 29.1902 507.67 29.4043 504.526 29.403L493.362 29.3986L493.372 3.22226ZM504.246 24.9259C505.966 24.9266 507.256 24.8599 508.116 24.7258C509.002 24.5648 509.634 24.2693 510.01 23.8392C510.414 23.4092 510.615 22.737 510.616 21.8228L510.62 11.0538C510.62 9.81692 510.124 8.95628 509.13 8.47188C508.163 7.96061 506.604 7.70454 504.454 7.70368L499.658 7.70177L499.651 24.9241L504.246 24.9259Z" fill="#4F00B4"/>
<path d="M555.153 18.9366L545.688 3.24314L552.822 3.24599L558.34 13.4929L563.825 3.25038L571 3.25325L561.441 18.8584L561.437 29.4258L555.149 29.4233L555.153 18.9366Z" fill="#4F00B4"/>
<path fill-rule="evenodd" clip-rule="evenodd" d="M272.042 0L277.745 5.68999L283.323 0.0519547L296.92 13.6182L277.745 33L258.446 13.7438L272.042 0ZM272.066 7.23291L265.648 13.7206L277.721 25.7671L289.717 13.6413L283.347 7.28487L277.769 12.9229L272.066 7.23291Z" fill="#4F00B4"/>
</svg>
